<svg width="1920" height="637" viewBox="0 0 1920 637" fill="none" xmlns="http://www.w3.org/2000/svg">
<g clip-path="url(#clip0_1411_1666)">
<path d="M1920 638.573H-431.07V3.146H1920V638.573Z" fill="white"/>
<g style="mix-blend-mode:soft-light">
<path d="M1542.2 637.393L1183.46 638.179L1149.23 596.106L1536.07 453.764L1542.2 637.393Z" fill="#333649"/>
<path d="M1789.23 637.786L1542.21 637.393L1536.07 453.764L1789.23 637.786Z" fill="#6E7184"/>
<path d="M1902.57 638.179L1789.23 637.786L1536.07 453.764" fill="#AAF7EC"/>
<path d="M1920.98 638.179H1899.99L1536.07 453.764L1576.11 439.608L1919.36 393.21L1920.98 638.179Z" fill="#333649"/>
<path d="M1919.68 130.545L1919.36 393.21L1576.11 439.608L1919.68 130.545Z" fill="#6E7184"/>
<path d="M1364.6 517.071L1536.07 453.764L1576.11 439.608L1919.68 130.545L1397.54 495.051L1364.6 517.071Z" fill="#AAF7EC"/>
<path d="M1626.16 159.249L1919.68 92.7969V130.545L1397.54 495.051L1626.16 159.249Z" fill="#333649"/>
<path d="M1626.48 159.249L1919.68 95.9426V77.4618L1818.29 1.57227L1626.48 159.249Z" fill="#AAF7EC"/>
</g>
<g style="mix-blend-mode:soft-light">
<path d="M467.576 14.1551L826.324 13.3687L860.552 55.8353L473.711 199.357L467.576 14.1551Z" fill="#333649"/>
<path d="M220.555 13.7622L467.577 14.1554L473.712 199.357L220.555 13.7622Z" fill="#6E7184"/>
<path d="M107.209 13.3687L220.549 13.7619L473.706 199.357" fill="#AAF7EC"/>
<path d="M88.8066 13.3687H109.472L473.709 199.357L433.669 213.906L90.0981 260.304L88.8066 13.3687Z" fill="#333649"/>
<path d="M90.0996 525.721V260.305L433.671 213.906L90.0996 525.721Z" fill="#6E7184"/>
<path d="M645.173 135.657L473.711 199.357L433.671 213.906L90.0996 525.721L612.237 157.677L645.173 135.657Z" fill="#AAF7EC"/>
<path d="M383.297 496.623L90.0996 563.862V525.721L612.237 157.677L383.297 496.623Z" fill="#333649"/>
</g>
<path d="M454.654 1.57227L778.205 144.701L820.506 1.57227H454.654Z" fill="#00AB9D"/>
<path d="M778.209 144.701L892.194 1.57227H820.509L778.209 144.701Z" fill="#04BFAD"/>
<path d="M1049.77 113.244L1052.68 1.57227H892.194L778.209 144.701L1049.77 113.244Z" fill="#221F20"/>
<path d="M1044.61 114.424L1252.88 1.57227H1047.51L1044.61 114.424Z" fill="#04BFAD"/>
<path d="M1564.48 1.57227H1252.88L1044.61 114.424L1503.45 189.92L1564.48 1.57227Z" fill="#221F20"/>
<path d="M1921.62 1.57227V229.241L1662.32 434.89L1503.45 189.92L1564.48 1.57227H1777.92H1921.62Z" fill="#04BFAD"/>
<path d="M1662.32 434.89L1777.92 1.57227L1503.45 189.92L1662.32 434.89Z" fill="#00AB9D"/>
<path d="M1921.62 387.705V229.241L1662.65 434.89L1921.62 387.705Z" fill="#00AB9D"/>
<path d="M1662.32 434.89L1776.95 1.57227H1921.61L1662.32 434.89Z" fill="#221F20"/>
<path d="M1044.61 114.424L1297.12 49.1507L1373.32 1.57227H1252.88L1044.61 114.424Z" fill="#00AB9D"/>
<path d="M1297.12 49.1514L1255.79 149.027L1044.61 114.424L1297.12 49.1514Z" fill="#04BFAD"/>
<g opacity="0.85">
<path d="M-150.465 536.731L-150.142 342.879L306.446 338.16L-150.465 536.731Z" fill="#221F20"/>
<path d="M346.484 317.714L-149.821 532.799L-169.195 651.156" fill="#00AB9D"/>
<path d="M-158.865 640.146V623.631L311.607 338.16L348.742 369.617L467.247 639.359L-158.865 640.146Z" fill="#04BFAD"/>
<path d="M686.825 639.359H377.805L323.557 369.617L686.825 639.359Z" fill="#221F20"/>
<path d="M258.332 229.241L328.079 355.855L344.225 385.739L686.827 639.359L282.873 253.62L258.332 229.241Z" fill="#00AB9D"/>
<path d="M652.922 408.938L731.065 639.359H686.827L258.332 229.241L652.922 408.938Z" fill="#04BFAD"/>
<path d="M652.92 408.938L731.063 639.359H753.666L847.309 559.931L652.92 408.938Z" fill="#00AB9D"/>
<path d="M979.698 639.36H837.297L809.85 591.781L847.307 559.931L979.698 639.36Z" fill="#221F20"/>
<path d="M837.302 639.36H753.67L847.312 559.931L837.302 639.36Z" fill="#04BFAD"/>
<path d="M862.485 489.546L652.92 408.938L847.309 559.931L862.485 489.546Z" fill="#221F20"/>
</g>
<path d="M862.489 489.546L1001.34 638.966L979.704 639.359L847.312 559.931L862.489 489.546Z" fill="#00AB9D"/>
<path d="M-1715.59 4.32568V676.715L7.43152 675.535L-172.75 4.32568" fill="white"/>
</g>
<defs>
<clipPath id="clip0_1411_1666">
<rect width="2312" height="637" fill="white" transform="translate(-392)"/>
</clipPath>
</defs>
</svg>
