 <svg
          width="550"
          height="auto"
          viewBox="0 0 656 375"
          fill="none"
          xmlns="http://www.w3.org/2000/svg"
          className="w-[350px] h-auto lg:w-[550px]"
        >
          <g clipPath="url(#clip0_1478_1407)">
            <path
              d="M500.538 260.417L496.437 249.535L492.39 260.417H500.538ZM486.4 268.511L494.818 246.641H498.218L506.581 268.511H503.506L501.509 262.882H491.58L489.53 268.511H486.4ZM558.976 258.273C559.588 258.487 560.199 258.934 560.811 259.613C561.422 260.327 562.034 261.292 562.645 262.507L565.667 268.511H562.483L559.678 262.882C558.922 261.417 558.203 260.452 557.519 259.988C556.836 259.488 555.9 259.237 554.713 259.237H551.476V268.511H548.508V246.641H555.253C557.771 246.641 559.642 247.159 560.865 248.195C562.124 249.232 562.753 250.804 562.753 252.912C562.753 254.306 562.429 255.45 561.782 256.343C561.134 257.272 560.199 257.915 558.976 258.273ZM555.253 249.053H551.476V256.825H555.253C556.692 256.825 557.771 256.504 558.49 255.861C559.21 255.182 559.57 254.199 559.57 252.912C559.57 251.662 559.21 250.697 558.49 250.018C557.771 249.375 556.692 249.053 555.253 249.053ZM624.375 248.303V251.412C623.368 250.482 622.289 249.803 621.137 249.375C620.022 248.91 618.817 248.678 617.522 248.678C615.004 248.678 613.08 249.446 611.749 250.983C610.418 252.484 609.752 254.681 609.752 257.576C609.752 260.47 610.418 262.686 611.749 264.222C613.08 265.759 615.004 266.527 617.522 266.527C618.817 266.527 620.022 266.295 621.137 265.831C622.289 265.366 623.368 264.669 624.375 263.74V266.849C623.332 267.528 622.217 268.046 621.03 268.403C619.878 268.761 618.655 268.939 617.36 268.939C614.015 268.939 611.389 267.921 609.482 265.884C607.576 263.847 606.622 261.078 606.622 257.576C606.622 254.074 607.576 251.304 609.482 249.267C611.389 247.231 614.015 246.212 617.36 246.212C618.691 246.212 619.932 246.391 621.084 246.748C622.235 247.106 623.332 247.624 624.375 248.303ZM667.219 268.511V246.641H670.187V255.593H681.033V246.641H684V268.511H681.033V258.112H670.187V268.511H667.219Z"
             fill="#15AC9E" fill-opacity="0.5"
            />
            <path
              d="M275.167 10.1003L222.359 222.271H258.414L298.701 60.3132L382.925 375H419.154L321.539 10.1003H275.167Z"
            fill="#15AC9E" fill-opacity="0.5"
            />
            <path
              d="M163.464 8.41715L82.022 81.8498L0 -0.290283V52.4187L81.0366 133.572L190.013 35.0038L163.464 8.41715Z"
             fill="#15AC9E" fill-opacity="0.5"
            />
            <path
              d="M163.52 8.41736V222.272H198.473V43.4793L163.52 8.41736Z"
              fill="#15AC9E" fill-opacity="0.5"
            />
            <path
              d="M12.75 270.04V246.021H17.082L22.5762 262.387L28.1232 246.021H32.4552V270.04H29.6552V248.965L24.0554 265.448H21.1498L15.6028 248.965V270.04H12.75ZM84.8614 248.199C82.7483 248.199 81.0753 249.082 79.8427 250.848C78.5748 252.615 77.9408 255.009 77.9408 258.031C77.9408 261.053 78.5748 263.447 79.8427 265.213C81.0753 266.979 82.7483 267.862 84.8614 267.862C86.9746 267.862 88.6475 266.979 89.8802 265.213C91.1481 263.447 91.782 261.053 91.782 258.031C91.782 255.009 91.1481 252.615 89.8802 250.848C88.6475 249.082 86.9746 248.199 84.8614 248.199ZM84.8614 245.55C87.8903 245.55 90.3204 246.688 92.1518 248.965C93.948 251.202 94.8461 254.224 94.8461 258.031C94.8461 261.838 93.948 264.879 92.1518 267.156C90.3204 269.393 87.8903 270.511 84.8614 270.511C81.8326 270.511 79.4024 269.393 77.571 267.156C75.7748 264.879 74.8768 261.838 74.8768 258.031C74.8768 254.224 75.7748 251.202 77.571 248.965C79.4024 246.688 81.8326 245.55 84.8614 245.55ZM143.343 248.67H139.803V267.391H143.343C146.301 267.391 148.467 266.626 149.841 265.095C151.214 263.604 151.901 261.229 151.901 257.972C151.901 254.754 151.214 252.399 149.841 250.907C148.467 249.416 146.301 248.67 143.343 248.67ZM136.898 270.04V246.021H142.868C147.059 246.021 150.123 246.983 152.06 248.906C154.032 250.829 155.018 253.851 155.018 257.972C155.018 262.132 154.032 265.193 152.06 267.156C150.087 269.079 147.023 270.04 142.868 270.04H136.898ZM197.123 270.04V246.021H210.753V248.729H200.028V255.852H210.33V258.619H200.028V267.332H211.017V270.04H197.123ZM263.898 258.796C264.497 259.032 265.096 259.522 265.695 260.268C266.293 261.053 266.892 262.112 267.491 263.447L270.449 270.04H267.332L264.585 263.859C263.846 262.25 263.141 261.19 262.472 260.68C261.803 260.13 260.887 259.856 259.725 259.856H256.555V270.04H253.65V246.021H260.253C262.719 246.021 264.55 246.59 265.747 247.728C266.98 248.866 267.597 250.593 267.597 252.909C267.597 254.44 267.28 255.695 266.646 256.677C266.012 257.697 265.096 258.404 263.898 258.796ZM260.253 248.67H256.555V257.207H260.253C261.662 257.207 262.719 256.853 263.423 256.147C264.127 255.401 264.48 254.322 264.48 252.909C264.48 251.535 264.127 250.476 263.423 249.73C262.719 249.023 261.662 248.67 260.253 248.67ZM311.761 270.04V246.021H315.671L325.233 266.096V246.021H328.086V270.04H324.176L314.614 249.906V270.04H311.761Z"
              fill="#15AC9E" fill-opacity="0.5"
            />
            <path
              d="M494.042 161.029C494.042 167.589 493.926 172.233 492.651 176.586C490.448 183.436 485.173 188.719 478.391 190.867C473.464 192.318 468.305 192.318 460.422 192.318C452.538 192.318 447.379 192.318 442.51 190.867C435.728 188.719 430.395 183.436 428.25 176.586C426.801 171.71 426.801 166.544 426.801 158.649V74.9417C426.801 67.0469 426.801 61.8805 428.25 57.0044C430.395 50.2126 435.728 44.872 442.51 42.7242C447.379 41.2729 452.538 41.2729 460.422 41.2729C468.305 41.2729 473.464 41.2729 478.391 42.7242C485.173 44.872 490.448 50.2126 492.651 57.0044C493.984 61.6483 494.042 66.5245 494.042 73.7226H524.648C524.648 68.1499 524.648 58.9781 523.141 50.3867C519.199 30.8821 503.954 15.615 484.478 11.6677C475.609 10.1003 466.102 10.1003 460.596 10.1003C455.089 10.1003 445.582 10.1003 436.714 11.6677C417.237 15.615 401.992 30.8821 398.05 50.3867C396.543 59.2683 396.543 68.7884 396.543 74.3031V158.127C396.543 163.641 396.543 173.220 398.05 182.043C401.992 201.606 417.237 216.815 436.714 220.762C445.582 222.329 455.089 222.329 460.596 222.329C466.102 222.329 475.609 222.329 484.478 220.762C503.954 216.815 519.199 201.606 523.141 182.043C524.416 174.613 524.648 166.602 524.648 161.029H494.042Z"
              fill="#15AC9E" fill-opacity="0.5"
            />
            <path
              d="M649.39 161.029C649.39 167.589 649.274 172.233 647.998 176.586C645.796 183.436 640.521 188.719 633.739 190.867C628.812 192.318 623.653 192.318 615.769 192.318C607.886 192.318 602.727 192.318 597.858 190.867C591.076 188.719 585.743 183.436 583.598 176.586C582.149 171.71 582.149 166.544 582.149 158.649V74.9417C582.149 67.0469 582.149 61.8805 583.598 57.0044C585.743 50.2126 591.076 44.872 597.858 42.7242C602.727 41.2729 607.886 41.2729 615.769 41.2729C623.653 41.2729 628.812 41.2729 633.739 42.7242C640.521 44.872 645.796 50.2126 647.998 57.0044C649.332 61.6483 649.39 66.5245 649.39 73.7226H679.996C679.996 68.1499 679.996 58.9781 678.489 50.3867C674.547 30.8821 659.302 15.615 639.825 11.6677C630.956 10.1003 621.45 10.1003 615.943 10.1003C610.436 10.1003 600.93 10.1003 592.061 11.6677C572.585 15.615 557.339 30.8821 553.398 50.3867C551.891 59.2683 551.891 68.7884 551.891 74.3031V158.127C551.891 163.641 551.891 173.220 553.398 182.043C557.339 201.606 572.585 216.815 592.061 220.762C600.93 222.329 610.436 222.329 615.943 222.329C621.45 222.329 630.956 222.329 639.825 220.762C659.302 216.815 674.547 201.606 678.489 182.043C679.764 174.613 679.996 166.602 679.996 161.029H649.39Z"
              fill="#15AC9E" fill-opacity="0.5"
            />
          </g>
          <defs>
            <linearGradient
              id="paint0_linear_1478_1407"
              x1="-56.3516"
              y1="-17.8825"
              x2="39590.8"
              y2="-36376"
              gradientUnits="userSpaceOnUse"
            >
              <stop stopColor="#66A998" />
              <stop offset="1" stopColor="#31514C" />
            </linearGradient>
            <clipPath id="clip0_1478_1407">
              <rect width="684" height="375" fill="white" />
            </clipPath>
          </defs>
        </svg>