<svg width="258" height="141" viewBox="0 0 258 141" fill="none" xmlns="http://www.w3.org/2000/svg">
<path d="M104.843 3.85938C105.037 3.85953 105.037 3.85953 105.234 3.85968C105.305 3.85959 105.377 3.8595 105.45 3.85941C105.692 3.85923 105.933 3.85981 106.174 3.86038C106.346 3.86041 106.519 3.86039 106.691 3.86034C107.16 3.86031 107.629 3.86092 108.098 3.86165C108.588 3.8623 109.077 3.86237 109.567 3.86249C110.495 3.86282 111.423 3.86368 112.351 3.86473C113.407 3.86589 114.463 3.86647 115.519 3.867C117.692 3.86809 119.866 3.86994 122.039 3.87227C122.152 4.28057 122.265 4.68893 122.378 5.09735C122.417 5.23566 122.455 5.37395 122.494 5.51223C122.743 6.41058 122.982 7.31061 123.203 8.21636C123.418 9.08964 123.652 9.9543 123.904 10.8175C124.107 11.516 124.285 12.2185 124.457 12.9249C124.613 13.5582 124.787 14.1848 124.97 14.811C125.177 15.5231 125.369 16.2365 125.545 16.9569C125.722 17.6792 125.914 18.3951 126.121 19.1093C126.491 20.3865 126.826 21.6713 127.155 22.9595C127.227 23.2397 127.299 23.5199 127.371 23.8002C127.389 23.8705 127.407 23.9409 127.425 24.0134C127.671 24.9701 127.93 25.9219 128.206 26.8701C128.405 27.5562 128.58 28.2467 128.749 28.9407C128.905 29.5739 129.079 30.2004 129.261 30.8266C129.469 31.5387 129.661 32.2521 129.837 32.9725C130.014 33.6948 130.206 34.4107 130.413 35.1249C130.782 36.4021 131.117 37.6869 131.447 38.9751C131.519 39.2553 131.591 39.5355 131.662 39.8157C131.68 39.8861 131.698 39.9565 131.717 40.029C131.963 40.9856 132.221 41.9375 132.498 42.8857C132.672 43.486 132.829 44.0891 132.977 44.6963C133.145 45.3839 133.328 46.0648 133.527 46.7441C133.844 47.828 134.121 48.921 134.4 50.0151C134.66 51.0352 134.929 52.0504 135.225 53.0607C135.423 53.7395 135.595 54.4231 135.762 55.1098C135.919 55.745 136.093 56.374 136.275 57.0024C136.644 58.2796 136.979 59.5644 137.309 60.8526C137.381 61.1328 137.452 61.413 137.524 61.6933C137.542 61.7636 137.56 61.834 137.579 61.9065C137.825 62.8632 138.083 63.815 138.36 64.7632C138.559 65.4493 138.733 66.1398 138.903 66.8338C139.059 67.467 139.233 68.0935 139.415 68.7197C139.622 69.4317 139.815 70.1452 139.991 70.8656C140.167 71.5879 140.36 72.3038 140.566 73.018C140.936 74.2952 141.271 75.58 141.601 76.8682C141.672 77.1484 141.744 77.4286 141.816 77.7088C141.834 77.7792 141.852 77.8496 141.871 77.9221C142.116 78.8787 142.375 79.8306 142.652 80.7788C142.826 81.3791 142.983 81.9822 143.131 82.5894C143.299 83.277 143.482 83.9579 143.681 84.6372C143.997 85.7211 144.275 86.8141 144.553 87.9082C144.813 88.9283 145.083 89.9435 145.379 90.9538C145.576 91.6326 145.748 92.3162 145.916 93.0029C146.073 93.6381 146.246 94.2671 146.428 94.8955C146.798 96.1727 147.133 97.4575 147.463 98.7457C147.534 99.0259 147.606 99.3061 147.678 99.5863C147.696 99.6567 147.714 99.7271 147.733 99.7996C147.978 100.756 148.237 101.708 148.514 102.656C148.713 103.342 148.887 104.033 149.056 104.727C149.213 105.36 149.387 105.987 149.569 106.613C149.776 107.325 149.969 108.038 150.144 108.759C150.321 109.481 150.513 110.197 150.72 110.911C151.09 112.188 151.425 113.473 151.754 114.761C151.826 115.041 151.898 115.322 151.97 115.602C151.997 115.707 151.997 115.707 152.024 115.815C152.27 116.772 152.529 117.724 152.806 118.672C153.005 119.358 153.179 120.049 153.348 120.742C153.504 121.376 153.678 122.002 153.86 122.628C154.068 123.34 154.26 124.054 154.436 124.774C154.613 125.497 154.805 126.212 155.012 126.927C155.382 128.204 155.717 129.489 156.046 130.777C156.118 131.057 156.19 131.337 156.262 131.618C156.289 131.723 156.289 131.723 156.316 131.831C156.562 132.787 156.82 133.739 157.097 134.687C157.296 135.373 157.47 136.062 157.639 136.755C157.847 137.598 158.085 138.431 158.327 139.264C158.35 139.346 158.374 139.428 158.399 139.512C158.46 139.722 158.525 139.931 158.589 140.14C158.676 140.476 158.676 140.476 158.676 140.999C154.185 140.999 149.694 140.999 145.068 140.999C144.786 140.015 144.512 139.031 144.25 138.042C144.176 137.764 144.102 137.486 144.028 137.208C144.01 137.139 143.991 137.07 143.972 136.998C143.772 136.242 143.567 135.487 143.363 134.732C143.188 134.08 143.014 133.427 142.842 132.773C142.76 132.46 142.677 132.147 142.595 131.833C142.574 131.756 142.554 131.679 142.533 131.599C142.318 130.782 142.101 129.966 141.855 129.158C141.618 128.372 141.42 127.578 141.228 126.78C141.079 126.169 140.912 125.566 140.733 124.964C140.489 124.146 140.27 123.324 140.062 122.497C139.961 122.098 139.859 121.699 139.756 121.299C139.726 121.181 139.726 121.181 139.695 121.059C139.433 120.037 139.156 119.019 138.88 118.001C138.708 117.363 138.538 116.725 138.368 116.086C138.106 115.1 137.842 114.114 137.577 113.129C137.547 113.019 137.517 112.908 137.487 112.794C137.335 112.231 137.183 111.668 137.03 111.104C136.708 109.909 136.389 108.713 136.079 107.515C135.903 106.841 135.72 106.169 135.531 105.498C135.352 104.858 135.185 104.214 135.019 103.571C134.839 102.873 134.652 102.18 134.443 101.49C134.198 100.681 133.993 99.8628 133.796 99.0407C133.647 98.4297 133.48 97.8266 133.3 97.2242C133.057 96.4068 132.838 95.5847 132.63 94.7578C132.529 94.3589 132.427 93.9603 132.325 93.5617C132.305 93.4825 132.284 93.4032 132.263 93.3216C132 92.2928 131.722 91.268 131.444 90.2432C131.289 89.6744 131.135 89.1054 130.982 88.5364C130.936 88.3676 130.936 88.3676 130.89 88.1953C130.661 87.344 130.438 86.4911 130.217 85.6376C130.041 84.963 129.858 84.2911 129.669 83.62C129.462 82.8787 129.269 82.1337 129.076 81.3885C128.897 80.6997 128.71 80.0137 128.518 79.3287C128.338 78.6884 128.171 78.0452 128.005 77.4014C127.825 76.7039 127.638 76.0103 127.43 75.3209C127.185 74.5116 126.98 73.6936 126.782 72.8714C126.634 72.2604 126.467 71.6573 126.287 71.0549C126.043 70.2376 125.825 69.4155 125.616 68.5886C125.515 68.1892 125.413 67.79 125.311 67.3908C125.291 67.3115 125.27 67.2322 125.25 67.1505C124.988 66.1284 124.711 65.1106 124.435 64.0924C124.262 63.4545 124.093 62.8159 123.923 62.1774C123.66 61.1913 123.397 60.2056 123.131 59.2203C123.101 59.1098 123.072 58.9994 123.041 58.8857C122.889 58.3223 122.737 57.759 122.585 57.1958C122.262 56.0008 121.944 54.8047 121.633 53.6065C121.458 52.9319 121.274 52.26 121.085 51.5891C120.906 50.9489 120.739 50.3057 120.573 49.6619C120.393 48.9644 120.206 48.2709 119.997 47.5815C119.752 46.7721 119.548 45.9541 119.35 45.132C119.202 44.521 119.035 43.9179 118.855 43.3155C118.611 42.4981 118.393 41.676 118.184 40.8491C118.083 40.4502 117.981 40.0516 117.879 39.653C117.859 39.5738 117.839 39.4946 117.818 39.4129C117.555 38.3842 117.277 37.3593 116.998 36.3345C116.844 35.7658 116.69 35.1967 116.537 34.6277C116.506 34.5151 116.476 34.4026 116.445 34.2866C116.215 33.4353 115.993 32.5824 115.771 31.729C115.596 31.0544 115.412 30.3825 115.224 29.7116C115.044 29.0714 114.877 28.4282 114.711 27.7844C114.508 26.998 114.293 26.2173 114.059 25.4396C113.831 24.6774 113.641 23.9061 113.455 23.1328C113.224 23.794 113.034 24.4584 112.866 25.138C112.84 25.24 112.814 25.3419 112.788 25.447C112.704 25.7821 112.621 26.1174 112.537 26.4527C112.478 26.6889 112.419 26.9251 112.36 27.1613C112.236 27.6567 112.113 28.1522 111.989 28.6477C111.833 29.2747 111.676 29.9016 111.519 30.5284C111.397 31.017 111.275 31.5057 111.153 31.9945C111.096 32.2251 111.038 32.4557 110.98 32.6863C110.684 33.8723 110.395 35.0593 110.124 36.2514C109.748 37.8956 109.334 39.5298 108.921 41.1649C108.806 41.6214 108.691 42.0779 108.576 42.5343C108.378 43.3207 108.18 44.1071 107.982 44.8934C107.48 46.883 106.979 48.8728 106.479 50.8627C106.397 51.1878 106.315 51.513 106.233 51.8381C105.1 56.3417 103.97 60.8462 102.843 65.3514C102.676 66.0188 102.509 66.6861 102.342 67.3535C102.138 68.167 101.935 68.9806 101.731 69.7943C101.628 70.2068 101.525 70.6193 101.422 71.0317C100.996 72.7295 100.582 74.429 100.193 76.1354C100.015 76.9099 99.8257 77.6808 99.6324 78.4514C99.596 78.5972 99.5596 78.743 99.5232 78.8888C99.4487 79.1871 99.3741 79.4854 99.2993 79.7836C99.2034 80.1657 99.1081 80.5479 99.0128 80.9302C98.9385 81.228 98.864 81.5257 98.7895 81.8235C98.7541 81.9647 98.7189 82.1059 98.6837 82.2472C98.6351 82.4419 98.5862 82.6366 98.5373 82.8313C98.5097 82.9416 98.482 83.0519 98.4536 83.1656C98.3816 83.4268 98.3816 83.4268 98.277 83.6362C93.7863 83.6362 89.2957 83.6362 84.6689 83.6362C84.9045 82.3409 84.9045 82.3409 85.0226 81.8719C85.0494 81.7646 85.0763 81.6572 85.1039 81.5466C85.1328 81.4326 85.1617 81.3186 85.1915 81.2012C85.2227 81.0771 85.2538 80.9529 85.2859 80.825C85.3538 80.5547 85.4218 80.2844 85.49 80.0142C85.6008 79.5755 85.7111 79.1367 85.8213 78.6978C85.9399 78.2253 86.0586 77.7527 86.1775 77.2803C86.4741 76.1011 86.7692 74.9215 87.0634 73.7417C87.8637 70.5337 88.6664 67.3263 89.4812 64.122C90.3201 60.8224 91.1493 57.5205 91.976 54.2178C92.0738 53.8272 92.1717 53.4366 92.2696 53.0459C92.4258 52.4231 92.5817 51.8001 92.7374 51.1772C92.7948 50.9475 92.8523 50.7178 92.91 50.4881C93.2437 49.1573 93.5638 47.8242 93.87 46.4868C94.0676 45.625 94.2767 44.7671 94.4971 43.9108C94.5333 43.7694 94.5694 43.6279 94.6054 43.4864C94.6816 43.1878 94.7579 42.8892 94.8344 42.5907C95.0447 41.7689 95.2537 40.9467 95.4625 40.1245C95.484 40.0398 95.5056 39.9551 95.5277 39.8679C95.9607 38.1623 96.3823 36.454 96.8013 34.7449C97.5978 31.4966 98.4124 28.253 99.2321 25.0105C99.4738 24.0542 99.7155 23.098 99.9571 22.1417C99.9871 22.0228 100.017 21.9039 100.048 21.7814C100.673 19.3079 101.295 16.8336 101.914 14.3588C102.022 13.9292 102.13 13.4998 102.237 13.0703C102.765 10.9662 103.287 8.86207 103.766 6.74632C103.894 6.18567 104.032 5.62734 104.172 5.06951C104.198 4.96284 104.224 4.85618 104.251 4.74628C104.276 4.64555 104.301 4.54482 104.327 4.44104C104.349 4.35366 104.371 4.26628 104.393 4.17625C104.486 3.86599 104.507 3.87454 104.843 3.85938Z" fill="white"/>
<path d="M1.03214 0C1.72807 0.572037 2.3581 1.20696 2.99352 1.84411C3.11805 1.9686 3.2426 2.09305 3.36717 2.21749C3.70828 2.55837 4.04906 2.89957 4.38979 3.24083C4.75771 3.6092 5.12593 3.97727 5.49412 4.34537C6.13161 4.9828 6.7689 5.62043 7.40607 6.25818C8.3273 7.18026 9.24882 8.10205 10.1704 9.02378C11.6657 10.5193 13.1607 12.015 14.6556 13.5109C16.1076 14.9639 17.5597 16.4167 19.012 17.8694C19.1015 17.959 19.1911 18.0486 19.2833 18.1408C19.7326 18.5902 20.1818 19.0396 20.631 19.4889C24.3567 23.2157 28.0821 26.9429 31.8072 30.6704C32.2114 30.4819 32.5064 30.2223 32.8278 29.918C32.9406 29.8129 33.0534 29.7078 33.1664 29.6028C33.2208 29.552 33.2753 29.5012 33.3314 29.4489C33.5179 29.2764 33.7085 29.1092 33.9007 28.9432C34.2556 28.6356 34.602 28.3192 34.9475 28.0011C35.293 27.683 35.6394 27.3666 35.9943 27.059C36.4002 26.707 36.7956 26.3437 37.1911 25.98C37.6959 25.5158 38.2054 25.0571 38.7159 24.5991C38.8904 24.4421 39.0648 24.2851 39.2393 24.1281C44.1242 19.7316 49.0091 15.3352 53.8941 10.9388C54.0242 10.8216 54.0242 10.8216 54.157 10.702C54.3272 10.5489 54.4975 10.396 54.6681 10.2432C55.1686 9.79447 55.6646 9.34131 56.1577 8.88446C56.5808 8.49257 57.0074 8.10657 57.4437 7.72934C57.7298 7.47743 58.0101 7.21926 58.2905 6.96102C58.6359 6.64292 58.9823 6.32652 59.3373 6.01893C59.6874 5.71528 60.0298 5.40358 60.3709 5.08992C60.4244 5.04087 60.4778 4.99182 60.5329 4.94129C60.7912 4.70416 61.0493 4.46674 61.3069 4.22879C61.3974 4.14594 61.488 4.06309 61.5813 3.97773C61.661 3.90432 61.7408 3.83092 61.8229 3.75529C62.0639 3.55484 62.3123 3.40322 62.5822 3.24499C67.9155 6.09709 73.5748 10.442 75.6669 16.3296C77.1871 21.3981 76.9591 27.0962 76.9447 32.3309C76.9443 32.5166 76.9439 32.7023 76.9436 32.888C76.9328 37.4819 76.8062 42.0708 76.6317 46.6611C76.5184 49.6401 76.4372 52.6182 76.3856 55.5989C76.3839 55.6978 76.3822 55.7966 76.3804 55.8984C76.3632 56.8915 76.3465 57.8846 76.3302 58.8777C76.2971 60.8987 76.2601 62.9195 76.2209 64.9404C76.2191 65.0332 76.2173 65.126 76.2155 65.2216C76.1605 68.0518 76.0896 70.8812 76.0025 73.7105C75.9988 73.8304 75.9988 73.8304 75.9951 73.9527C75.8957 77.1811 75.7791 80.409 75.6669 83.637C71.3144 83.637 66.9619 83.637 62.4776 83.637C62.443 63.4636 62.4085 43.2902 62.3729 22.5056C61.5438 23.2828 61.5438 23.2828 60.6981 24.0757C60.4217 24.3175 60.1454 24.5593 59.8606 24.8085C59.6549 24.9952 59.4499 25.1827 59.2457 25.3711C58.6867 25.8855 58.1232 26.3947 57.5577 26.902C57.3833 27.059 57.2088 27.216 57.0344 27.373C56.7753 27.6063 56.5161 27.8395 56.2566 28.0723C55.7761 28.5037 55.2983 28.9378 54.8231 29.375C54.4181 29.7474 54.0089 30.1138 53.5931 30.4741C53.2498 30.7771 52.914 31.0883 52.5772 31.3984C52.2889 31.6635 51.9986 31.9255 51.7024 32.1817C51.3264 32.5074 50.9615 32.8444 50.5967 33.1826C50.169 33.5792 49.738 33.97 49.2969 34.3517C48.9601 34.648 48.6309 34.9525 48.3008 35.2561C47.796 35.7202 47.2865 36.179 46.776 36.637C46.6015 36.794 46.4271 36.951 46.2526 37.108C45.9037 37.422 45.5548 37.7361 45.2059 38.0501C45.1192 38.1281 45.0326 38.2061 44.9433 38.2864C44.7717 38.4409 44.6 38.5952 44.4281 38.7493C43.9476 39.1807 43.4698 39.6149 42.9946 40.0521C42.5893 40.4247 42.1797 40.7913 41.7638 41.152C41.4261 41.4498 41.0955 41.7553 40.7641 42.0601C40.2593 42.5242 39.7497 42.983 39.2393 43.441C39.0648 43.598 38.8903 43.755 38.7159 43.912C38.4568 44.1453 38.1977 44.3784 37.9382 44.6112C37.4576 45.0426 36.9799 45.4768 36.5046 45.914C36.0993 46.2866 35.6897 46.6532 35.2738 47.0139C34.9361 47.3117 34.6055 47.6172 34.2741 47.922C33.8542 48.308 33.4318 48.6911 33.0065 49.071C32.8236 49.2359 32.6425 49.4026 32.4627 49.5707C32.3694 49.6572 32.2762 49.7437 32.1801 49.8328C32.096 49.9118 32.012 49.9907 31.9254 50.072C31.7025 50.245 31.7025 50.245 31.3885 50.245C31.1548 50.0732 31.1548 50.0732 30.8758 49.8265C30.8241 49.7812 30.7725 49.7359 30.7194 49.6892C30.5449 49.5357 30.3716 49.3811 30.1983 49.2264C30.0728 49.1153 29.9473 49.0043 29.8218 48.8933C29.4756 48.5865 29.1304 48.2785 28.7856 47.9701C28.5649 47.7728 28.344 47.5758 28.123 47.3789C25.2912 44.853 22.5153 42.2685 19.7605 39.659C19.3058 39.2282 18.8506 38.7979 18.3952 38.3679C18.2593 38.2395 18.2593 38.2395 18.1206 38.1086C16.8544 36.9146 15.5675 35.7477 14.2594 34.5998C12.0004 32.6176 9.79273 30.5909 7.66155 28.4713C7.57844 28.3889 7.49532 28.3064 7.40969 28.2215C2.50206 23.3373 0.0664047 19.0199 2.67836e-05 11.9959C-0.00377841 7.97824 0.398146 3.96394 1.03214 0Z" fill="#5C998A"/>
<path d="M232.866 3.85386C232.996 3.85375 233.126 3.85363 233.26 3.85352C235.353 3.85372 237.438 3.8878 239.519 4.1221C239.645 4.13617 239.77 4.15025 239.899 4.16475C240.25 4.20546 240.601 4.24805 240.952 4.2922C241.036 4.30267 241.119 4.31314 241.205 4.32394C244.869 4.8154 248.312 6.75147 250.954 9.27637C251.1 9.41601 251.248 9.55387 251.397 9.69165C255.319 13.4449 256.503 18.5407 256.863 23.7621C256.863 25.1093 256.863 26.4565 256.863 27.8445C253.063 27.8445 249.263 27.8445 245.349 27.8445C245.314 26.7046 245.279 25.5647 245.244 24.3902C244.937 21.6469 244.219 19.4863 242.095 17.6197C239.519 15.5687 236.234 15.6824 233.115 15.6826C232.732 15.6824 232.349 15.6805 231.965 15.6785C228.886 15.6711 225.622 15.684 223.157 17.7955C223.09 17.8463 223.023 17.897 222.955 17.9493C221.465 19.1342 220.612 21.0855 220.331 22.9247C220.313 23.0365 220.295 23.1482 220.276 23.2634C220.19 23.9683 220.211 24.6805 220.211 25.3895C220.211 25.5561 220.211 25.7227 220.21 25.8893C220.21 26.3461 220.209 26.8029 220.209 27.2596C220.209 27.7527 220.208 28.2458 220.208 28.7389C220.206 29.8166 220.206 30.8943 220.205 31.972C220.205 32.6454 220.204 33.3188 220.204 33.9923C220.203 35.8581 220.202 37.7239 220.201 39.5897C220.201 39.709 220.201 39.8284 220.201 39.9513C220.201 40.071 220.201 40.1906 220.201 40.3139C220.201 40.5562 220.201 40.7986 220.201 41.041C220.201 41.1613 220.201 41.2815 220.201 41.4054C220.2 43.3527 220.199 45.2999 220.196 47.2472C220.194 49.2482 220.192 51.2491 220.192 53.2501C220.192 54.3728 220.192 55.4956 220.19 56.6184C220.188 57.5746 220.188 58.5309 220.188 59.4871C220.189 59.9745 220.189 60.4619 220.187 60.9493C220.186 61.3965 220.186 61.8437 220.187 62.291C220.187 62.4517 220.187 62.6125 220.186 62.7733C220.172 65.3699 220.797 67.8628 222.657 69.7485C223.969 71.0162 225.375 71.6525 227.135 72.0182C227.255 72.0447 227.255 72.0447 227.378 72.0717C228.489 72.2746 229.644 72.2446 230.769 72.2452C230.924 72.2455 231.079 72.2459 231.233 72.2462C231.555 72.2469 231.877 72.2471 232.199 72.247C232.525 72.247 232.85 72.2477 233.175 72.2491C235.396 72.2656 235.396 72.2656 237.613 72.1385C237.695 72.1308 237.778 72.1232 237.863 72.1153C239.951 71.8849 241.921 70.8229 243.268 69.2181C243.682 68.6823 244.004 68.124 244.302 67.5171C244.348 67.4313 244.394 67.3455 244.442 67.2571C245.418 65.2515 245.275 62.7313 245.349 60.6084C249.148 60.6084 252.948 60.6084 256.863 60.6084C256.863 63.6746 256.863 63.6746 256.778 64.874C256.768 65.0108 256.759 65.1476 256.749 65.2885C256.363 70.4981 254.41 75.2178 250.499 78.7748C250.218 79.0089 249.932 79.2302 249.64 79.4503C249.481 79.5797 249.481 79.5797 249.319 79.7116C247.486 81.1707 245.291 82.1694 243.046 82.8C242.934 82.8336 242.823 82.8672 242.708 82.9018C239.507 83.7977 236.016 83.6565 232.722 83.657C232.649 83.6571 232.577 83.6571 232.502 83.6572C227.812 83.6604 227.812 83.6604 225.663 83.4019C225.55 83.3884 225.438 83.375 225.322 83.3611C222.008 82.9383 218.829 81.7916 216.202 79.6859C216.05 79.5636 215.895 79.4443 215.739 79.3252C213.82 77.8194 212.285 75.9348 211.119 73.7978C211.065 73.6993 211.065 73.6993 211.01 73.5989C208.678 69.2851 208.571 64.4188 208.581 59.6228C208.582 59.1645 208.581 58.7062 208.581 58.2479C208.58 57.3544 208.581 56.4608 208.582 55.5673C208.583 54.5235 208.583 53.4797 208.583 52.4359C208.583 50.572 208.584 48.7082 208.585 46.8443C208.587 45.0415 208.588 43.2386 208.588 41.4358C208.588 41.3246 208.588 41.2135 208.588 41.099C208.588 40.988 208.587 40.877 208.587 40.7627C208.587 38.7012 208.588 36.6396 208.589 34.5781C208.589 33.8529 208.589 33.1276 208.589 32.4023C208.59 31.5173 208.59 30.6323 208.591 29.7472C208.591 29.2968 208.592 28.8465 208.592 28.3961C208.591 26.057 208.601 23.7224 208.849 21.3938C208.863 21.2656 208.876 21.1375 208.89 21.0054C209.273 17.587 210.369 14.3754 212.48 11.6196C212.552 11.5239 212.624 11.4283 212.697 11.3297C214.437 9.08411 216.561 7.37914 219.075 6.07171C219.142 6.03558 219.21 5.99945 219.28 5.96222C223.415 3.78205 228.31 3.85602 232.866 3.85386Z" fill="white"/>
<path d="M172.096 3.85582C172.234 3.85537 172.371 3.85493 172.512 3.85447C172.953 3.85327 173.394 3.85341 173.834 3.85377C173.947 3.85381 173.947 3.85381 174.062 3.85386C181.863 3.85751 181.863 3.85751 185.159 4.92017C185.26 4.95124 185.26 4.95124 185.362 4.98294C188.24 5.88066 190.607 7.49111 192.801 9.52596C192.893 9.61036 192.893 9.61036 192.988 9.69647C195.45 12.0298 197.176 15.4365 197.825 18.7375C197.846 18.8428 197.846 18.8428 197.867 18.9501C197.979 19.5395 198.063 20.1314 198.139 20.7264C198.154 20.8396 198.168 20.9527 198.183 21.0693C198.463 23.3504 198.453 25.5254 198.453 27.8444C194.619 27.8444 190.784 27.8444 186.834 27.8444C186.799 26.6354 186.765 25.4264 186.729 24.1807C186.596 22.8562 186.474 21.7137 185.892 20.5171C185.826 20.3735 185.826 20.3735 185.759 20.2271C184.793 18.2806 183.09 16.9708 181.077 16.2253C179.023 15.6097 176.738 15.6694 174.617 15.6804C174.232 15.6823 173.846 15.6825 173.46 15.6825C169.986 15.6875 166.743 15.7547 164.104 18.3172C161.961 20.5063 161.696 23.4088 161.696 26.3159C161.696 26.4757 161.695 26.6356 161.695 26.7954C161.694 27.2315 161.693 27.6676 161.693 28.1037C161.693 28.5753 161.692 29.0469 161.691 29.5185C161.689 30.6558 161.688 31.7931 161.687 32.9305C161.686 33.4674 161.686 34.0044 161.685 34.5413C161.683 36.3286 161.682 38.1158 161.681 39.9031C161.681 40.3661 161.681 40.8291 161.681 41.292C161.681 41.4646 161.681 41.4646 161.68 41.6407C161.68 43.5024 161.677 45.364 161.674 47.2257C161.67 49.1414 161.668 51.0571 161.668 52.9728C161.668 54.0466 161.667 55.1204 161.664 56.1942C161.662 57.1091 161.661 58.024 161.662 58.9389C161.662 59.4046 161.662 59.8703 161.66 60.336C161.646 63.699 161.692 67.0938 164.114 69.7194C166.32 71.8327 169.027 72.2645 171.966 72.2553C172.13 72.2555 172.294 72.2557 172.458 72.2559C172.799 72.2562 173.139 72.2558 173.48 72.2548C173.911 72.2536 174.341 72.2543 174.772 72.2555C179.819 72.3208 179.819 72.3208 184.115 69.9405C186.732 67.3001 186.726 64.2769 186.834 60.6084C190.668 60.6084 194.503 60.6084 198.453 60.6084C198.453 62.1115 198.444 63.5777 198.322 65.0702C198.315 65.158 198.308 65.2458 198.301 65.3363C198.193 66.6752 198.057 67.9927 197.72 69.2966C197.698 69.3828 197.676 69.469 197.654 69.5578C196.849 72.6293 195.315 75.3802 193.115 77.6707C193.042 77.7477 193.042 77.7477 192.969 77.8263C190.139 80.8409 186.16 82.8413 182.05 83.2965C181.814 83.3228 181.579 83.3527 181.343 83.3838C179.74 83.5894 178.143 83.6541 176.528 83.6549C176.356 83.6552 176.185 83.6556 176.013 83.6559C175.656 83.6566 175.298 83.6568 174.94 83.6567C174.58 83.6567 174.22 83.6574 173.86 83.6589C166.994 83.6857 160.782 82.8695 155.693 77.867C154.882 77.0556 154.169 76.2254 153.547 75.2631C153.486 75.1702 153.486 75.1702 153.424 75.0755C151.356 71.8871 150.621 68.5327 150.302 64.7954C150.293 64.7027 150.285 64.61 150.276 64.5144C150.198 63.6087 150.182 62.709 150.183 61.8005C150.183 61.6395 150.183 61.4785 150.182 61.3175C150.182 60.8787 150.182 60.4398 150.182 60.001C150.182 59.5263 150.181 59.0515 150.181 58.5767C150.18 57.6477 150.18 56.7186 150.18 55.7895C150.179 55.0332 150.179 54.2769 150.179 53.5205C150.178 51.3712 150.178 49.2219 150.178 47.0726C150.178 46.9568 150.178 46.8411 150.178 46.7219C150.178 46.6061 150.178 46.4902 150.178 46.3708C150.178 44.4969 150.177 42.6229 150.175 40.749C150.174 38.8199 150.173 36.8908 150.173 34.9618C150.173 33.8807 150.173 32.7997 150.172 31.7187C150.171 30.7975 150.17 29.8763 150.171 28.9551C150.172 28.4865 150.172 28.0178 150.171 27.5491C150.16 21.786 150.498 15.982 154.279 11.3055C154.387 11.1664 154.387 11.1664 154.496 11.0246C157.414 7.31536 161.791 4.8465 166.468 4.2459C167.358 4.14198 168.25 4.05169 169.144 3.97808C169.302 3.96488 169.302 3.96488 169.464 3.95141C170.342 3.88274 171.215 3.85669 172.096 3.85582Z" fill="white"/>
<path d="M62.4774 3.24414C62.6212 3.37891 62.6212 3.37891 62.7679 3.5164C63.1748 3.86478 63.6119 4.10682 64.0832 4.35809C68.9159 6.94222 73.8423 10.9958 75.6667 16.3288C77.1257 21.392 76.8956 27.0522 76.8832 32.2687C76.883 32.3607 76.8829 32.4526 76.8827 32.5473C76.8746 37.239 76.7546 41.9257 76.5852 46.614C76.4774 49.5969 76.4001 52.5791 76.351 55.5636C76.3493 55.6625 76.3477 55.7614 76.346 55.8633C76.3296 56.8572 76.3137 57.8511 76.2982 58.845C76.2667 60.8677 76.2315 62.8904 76.1942 64.9129C76.1925 65.0058 76.1908 65.0987 76.189 65.1944C76.1366 68.0279 76.0691 70.8608 75.9862 73.6936C75.9827 73.8136 75.9827 73.8136 75.9792 73.9361C75.8845 77.1698 75.7736 80.4029 75.6667 83.6361C71.3488 83.6361 67.0309 83.6361 62.5821 83.6361C62.5795 81.8771 62.5768 80.1182 62.5741 78.3059C62.5724 77.1272 62.5706 75.9484 62.5688 74.7697C62.5687 74.6947 62.5686 74.6196 62.5685 74.5423C62.5646 71.9929 62.5606 69.4436 62.5566 66.8943C62.5565 66.8104 62.5563 66.7265 62.5562 66.6401C62.5533 64.8135 62.5504 62.9869 62.5474 61.1603C62.546 60.2633 62.5446 59.3663 62.5431 58.4693C62.543 58.3801 62.5428 58.2908 62.5427 58.1989C62.5384 55.5306 62.5343 52.8623 62.5304 50.194C62.5246 46.2375 62.5184 42.2811 62.5118 38.3246C62.511 37.8174 62.5101 37.3101 62.5093 36.8029C62.4979 29.8953 62.4859 22.9878 62.4467 16.0803C62.446 15.9634 62.4454 15.8464 62.4447 15.7259C62.4321 13.4982 62.4183 11.2705 62.4019 9.04277C62.3973 8.40643 62.3929 7.77009 62.3886 7.13376C62.3853 6.64413 62.3815 6.15452 62.3772 5.6649C62.3754 5.44383 62.3738 5.22276 62.3723 5.00169C62.3705 4.73783 62.3683 4.47397 62.3657 4.21011C62.3651 4.09666 62.3644 3.98322 62.3637 3.86634C62.3629 3.76809 62.3621 3.66984 62.3613 3.56861C62.3727 3.34882 62.3727 3.34882 62.4774 3.24414Z" fill="white"/>
<path d="M206.513 92.6387C211.752 92.6387 211.752 92.6387 212.584 93.3714C213.05 93.9254 213.062 94.5509 213.035 95.2503C212.957 96.0295 212.621 96.4108 212.024 96.9006C211.939 96.9672 211.939 96.9672 211.852 97.0351C211.916 97.1035 211.916 97.1035 211.982 97.1733C212.038 97.2357 212.095 97.298 212.153 97.3622C212.209 97.4229 212.264 97.4837 212.322 97.5462C212.767 98.1719 212.749 98.9253 212.8 99.6651C212.817 99.89 212.833 100.115 212.85 100.34C212.857 100.439 212.864 100.538 212.871 100.64C212.895 100.936 212.895 100.936 213.003 101.327C212.537 101.379 212.537 101.379 212.061 101.432C211.807 100.686 211.784 99.9394 211.743 99.1573C211.694 98.375 211.694 98.375 211.224 97.7678C210.846 97.5212 210.469 97.5226 210.031 97.5152C209.896 97.5114 209.761 97.5077 209.622 97.5039C209.451 97.5003 209.28 97.4967 209.104 97.4931C208.56 97.4801 208.016 97.4672 207.455 97.4538C207.455 98.7665 207.455 100.079 207.455 101.432C206.723 101.432 206.723 101.432 206.513 101.327C206.513 98.4598 206.513 95.5927 206.513 92.6387Z" fill="white"/>
<path d="M95.7646 92.6387C101.004 92.6387 101.004 92.6387 101.836 93.3714C102.302 93.9254 102.314 94.5509 102.287 95.2503C102.208 96.0295 101.873 96.4108 101.275 96.9006C101.19 96.9672 101.19 96.9672 101.103 97.0351C101.168 97.1035 101.168 97.1035 101.233 97.1733C101.29 97.2357 101.346 97.298 101.404 97.3622C101.46 97.4229 101.516 97.4837 101.573 97.5462C102.019 98.1719 102.001 98.9253 102.052 99.6651C102.068 99.89 102.084 100.115 102.101 100.34C102.108 100.439 102.115 100.538 102.122 100.64C102.146 100.936 102.146 100.936 102.255 101.327C101.788 101.379 101.788 101.379 101.313 101.432C101.058 100.686 101.035 99.9394 100.995 99.1573C100.946 98.375 100.946 98.375 100.475 97.7678C100.098 97.5212 99.7202 97.5226 99.2828 97.5152C99.1478 97.5114 99.0128 97.5077 98.8738 97.5039C98.7027 97.5003 98.5317 97.4967 98.3554 97.4931C97.8113 97.4801 97.2673 97.4672 96.7067 97.4538C96.7067 98.7665 96.7067 100.079 96.7067 101.432C95.974 101.432 95.974 101.432 95.7646 101.327C95.7646 98.4598 95.7646 95.5927 95.7646 92.6387Z" fill="white"/>
<path d="M5.42871 92.6387C5.87778 92.6387 6.32684 92.6387 6.78951 92.6387C6.89937 92.9338 7.00923 93.2288 7.11908 93.5239C7.15347 93.6163 7.18786 93.7087 7.22329 93.8038C7.41288 94.3131 7.60238 94.8225 7.79171 95.3319C7.86845 95.5383 7.94518 95.7447 8.02192 95.9511C8.05995 96.0534 8.09799 96.1557 8.13717 96.2612C8.33388 96.79 8.53113 97.3186 8.72966 97.8468C8.80543 98.0484 8.881 98.2501 8.9565 98.4518C9.0452 98.6886 9.13428 98.9252 9.22382 99.1617C9.26249 99.2652 9.30117 99.3687 9.34102 99.4754C9.37421 99.5635 9.4074 99.6516 9.4416 99.7424C9.51112 99.9661 9.51112 99.9661 9.51112 100.28C9.5802 100.28 9.64929 100.28 9.72047 100.28C9.73113 100.195 9.74179 100.11 9.75277 100.023C9.84007 99.5756 9.98632 99.1698 10.1457 98.7439C10.1779 98.6565 10.2101 98.5691 10.2433 98.479C10.3476 98.196 10.4528 97.9132 10.5579 97.6305C10.6655 97.3394 10.7729 97.0483 10.8802 96.7572C10.9515 96.5641 11.0227 96.3711 11.0941 96.1781C11.4272 95.2763 11.7522 94.3717 12.0728 93.4653C12.107 93.3696 12.1411 93.2738 12.1763 93.1751C12.2052 93.0934 12.2341 93.0116 12.2639 92.9274C12.3374 92.7433 12.3374 92.7433 12.4421 92.6387C12.8911 92.6387 13.3402 92.6387 13.8029 92.6387C13.8029 95.5403 13.8029 98.442 13.8029 101.432C13.492 101.432 13.1811 101.432 12.8608 101.432C12.8262 98.979 12.7917 96.5264 12.7561 93.9995C12.4452 94.8631 12.1343 95.7266 11.814 96.6164C11.6162 97.1597 11.4181 97.7028 11.2187 98.2454C11.1948 98.3106 11.1709 98.3757 11.1462 98.4428C10.78 99.4407 10.4109 100.437 10.0345 101.432C9.75815 101.432 9.48181 101.432 9.19708 101.432C8.71822 100.33 8.31118 99.204 7.90171 98.0753C7.80082 97.7981 7.69986 97.5209 7.59888 97.2437C7.53669 97.0728 7.47456 96.902 7.41253 96.7311C7.06858 95.7844 6.71902 94.84 6.3708 93.8948C6.33626 96.3819 6.30172 98.8691 6.26613 101.432C5.98978 101.432 5.71343 101.432 5.42871 101.432C5.42871 98.5299 5.42871 95.6282 5.42871 92.6387Z" fill="white"/>
<path d="M187.357 92.6387C187.703 92.6387 188.048 92.6387 188.404 92.6387C188.886 93.7692 189.328 94.9143 189.771 96.0602C189.901 96.3965 190.031 96.7327 190.161 97.0688C190.373 97.6136 190.583 98.1585 190.793 98.7037C190.876 98.919 190.959 99.1343 191.042 99.3496C191.161 99.6576 191.28 99.9657 191.399 100.274C191.435 100.367 191.471 100.46 191.508 100.556C191.54 100.641 191.573 100.726 191.606 100.813C191.635 100.887 191.664 100.962 191.693 101.038C191.754 101.222 191.754 101.222 191.754 101.432C191.478 101.432 191.201 101.432 190.916 101.432C190.84 101.251 190.764 101.07 190.688 100.889C190.645 100.788 190.603 100.687 190.559 100.583C190.321 99.997 190.097 99.4051 189.87 98.8146C188.557 98.8146 187.244 98.8146 185.892 98.8146C185.586 99.6366 185.586 99.6366 185.281 100.459C185.243 100.561 185.205 100.662 185.166 100.767C185.127 100.872 185.088 100.976 185.048 101.084C184.95 101.327 184.95 101.327 184.845 101.432C184.566 101.446 184.288 101.436 184.008 101.432C184.233 100.622 184.52 99.8467 184.831 99.0665C184.879 98.9423 184.928 98.8182 184.979 98.6902C185.108 98.3618 185.238 98.0336 185.368 97.7054C185.498 97.3774 185.628 97.0492 185.757 96.7211C185.908 96.3396 186.058 95.9581 186.209 95.5767C186.595 94.5987 186.978 93.6194 187.357 92.6387Z" fill="white"/>
<path d="M52.3237 92.6387C57.4825 92.6387 57.4825 92.6387 58.4997 93.5808C59.504 94.5851 59.5777 95.9274 59.5796 97.2574C59.5643 98.4578 59.3335 99.5723 58.4997 100.489C56.754 101.988 54.5778 101.432 52.3237 101.432C52.3237 98.5299 52.3237 95.6282 52.3237 92.6387ZM53.2658 93.3714C53.2658 95.7895 53.2658 98.2075 53.2658 100.699C55.7832 100.882 55.7832 100.882 57.9313 99.8291C58.814 98.7848 58.7798 97.384 58.709 96.093C58.6246 95.2353 58.2646 94.5623 57.6426 93.9668C56.3135 93.0298 54.8713 93.3714 53.2658 93.3714Z" fill="white"/>
<path d="M117.433 92.6387C118.48 92.6387 118.48 92.6387 118.714 92.803C118.762 92.88 118.811 92.9571 118.861 93.0366C118.918 93.1237 118.975 93.2108 119.034 93.3006C119.092 93.3964 119.15 93.4923 119.209 93.591C119.273 93.6895 119.336 93.788 119.402 93.8895C119.604 94.2054 119.801 94.5242 119.998 94.8434C120.13 95.0523 120.263 95.2609 120.396 95.4692C120.654 95.8745 120.91 96.2808 121.165 96.688C121.616 97.407 122.088 98.1109 122.562 98.8146C122.977 99.4364 122.977 99.4364 123.4 100.071C123.434 97.6182 123.469 95.1656 123.504 92.6387C123.781 92.6387 124.057 92.6387 124.342 92.6387C124.342 95.5403 124.342 98.442 124.342 101.432C123.295 101.432 123.295 101.432 123.048 101.235C122.993 101.142 122.938 101.049 122.881 100.954C122.815 100.848 122.75 100.743 122.682 100.634C122.581 100.459 122.581 100.459 122.477 100.28C122.403 100.158 122.328 100.037 122.253 99.9157C122.092 99.6544 121.932 99.3921 121.773 99.1293C121.369 98.4657 120.936 97.8203 120.507 97.1725C120.28 96.8291 120.054 96.4848 119.828 96.1404C119.752 96.0251 119.676 95.9098 119.598 95.7909C119.187 95.1608 118.782 94.5274 118.375 93.8948C118.341 96.3819 118.306 98.8691 118.271 101.432C117.994 101.432 117.718 101.432 117.433 101.432C117.433 98.5299 117.433 95.6282 117.433 92.6387Z" fill="white"/>
<path d="M35.3088 93.0063C36.3529 93.7496 36.9003 94.8521 37.1456 96.0934C37.3145 97.6093 37.0476 99.1575 36.0988 100.385C35.5613 100.986 34.973 101.286 34.2146 101.537C34.111 101.571 34.0073 101.606 33.9006 101.641C32.5092 101.741 31.3954 101.647 30.2565 100.758C29.4319 99.968 28.9163 98.7538 28.8577 97.6223C28.8281 96.0888 28.988 94.7263 30.0463 93.5333C31.4785 92.1978 33.6284 91.9734 35.3088 93.0063ZM30.6032 94.1438C29.7752 95.2568 29.5924 96.5064 29.7135 97.8729C29.931 98.8999 30.3588 99.825 31.2378 100.431C32.0649 100.948 32.8404 101.016 33.7959 100.909C34.5732 100.66 35.2596 100.263 35.6801 99.5478C36.0851 98.6879 36.2273 97.9729 36.2362 97.029C36.2392 96.9243 36.2422 96.8197 36.2454 96.7119C36.2545 95.6273 35.9211 94.6825 35.1567 93.8952C34.3777 93.2829 33.5934 93.1007 32.6109 93.1163C31.8308 93.2099 31.1366 93.5637 30.6032 94.1438Z" fill="white"/>
<path d="M250.582 92.6387C250.858 92.6387 251.135 92.6387 251.419 92.6387C251.419 93.8822 251.419 95.1258 251.419 96.407C253.147 96.407 254.874 96.407 256.653 96.407C256.653 95.1635 256.653 93.9199 256.653 92.6387C256.93 92.6387 257.206 92.6387 257.491 92.6387C257.491 95.5403 257.491 98.442 257.491 101.432C257.214 101.432 256.938 101.432 256.653 101.432C256.653 100.015 256.653 98.599 256.653 97.1398C254.926 97.1398 253.199 97.1398 251.419 97.1398C251.419 98.5561 251.419 99.9723 251.419 101.432C251.143 101.432 250.867 101.432 250.582 101.432C250.582 98.5299 250.582 95.6282 250.582 92.6387Z" fill="white"/>
<path d="M74.7246 92.6387C76.659 92.6387 78.5935 92.6387 80.5865 92.6387C80.5865 92.8805 80.5865 93.1223 80.5865 93.3714C78.9284 93.3714 77.2704 93.3714 75.562 93.3714C75.562 94.4077 75.562 95.444 75.562 96.5117C77.0819 96.5117 78.6018 96.5117 80.1678 96.5117C80.1678 96.7535 80.1678 96.9953 80.1678 97.2445C78.6479 97.2445 77.128 97.2445 75.562 97.2445C75.562 98.3844 75.562 99.5243 75.562 100.699C77.2892 100.699 79.0164 100.699 80.7959 100.699C80.7959 100.941 80.7959 101.182 80.7959 101.432C78.7924 101.432 76.7888 101.432 74.7246 101.432C74.7246 98.5299 74.7246 95.6282 74.7246 92.6387Z" fill="white"/>
<path d="M234.318 93.1468C234.58 93.3835 234.733 93.6022 234.907 93.9081C234.959 93.9991 235.012 94.09 235.066 94.1837C235.281 94.5747 235.309 94.8058 235.299 95.2559C235.023 95.2559 234.747 95.2559 234.462 95.2559C234.426 95.1648 234.426 95.1648 234.389 95.0719C234.086 94.3467 233.789 93.7809 233.049 93.4371C232.241 93.1488 231.261 93.1035 230.467 93.467C229.583 93.9916 229.142 94.6798 228.857 95.6619C228.769 96.0714 228.79 96.4874 228.79 96.9045C228.789 96.9955 228.787 97.0864 228.786 97.1801C228.784 98.2159 229.011 99.2571 229.713 100.057C230.416 100.693 231.071 100.879 232.01 100.853C232.717 100.756 233.345 100.481 233.831 99.95C234.145 99.4989 234.371 99.0127 234.567 98.5009C234.843 98.5009 235.119 98.5009 235.404 98.5009C235.242 99.5029 234.843 100.352 234.028 100.987C232.992 101.683 231.909 101.722 230.694 101.641C229.833 101.47 229.157 100.944 228.6 100.28C227.946 99.1707 227.843 98.1798 227.828 96.9176C227.824 96.7962 227.82 96.6747 227.816 96.5496C227.805 95.4229 228.121 94.4358 228.839 93.5545C230.275 92.0952 232.675 91.9881 234.318 93.1468Z" fill="white"/>
</svg>
