<svg width="146" height="445" viewBox="0 0 146 445" fill="none" xmlns="http://www.w3.org/2000/svg">
<path d="M65.6326 308.027C67.3709 308.027 68.8094 309.406 68.8094 311.204V318.757V338.716H65.6326V331.344H44.4141V325.709L44.8936 325.05H65.6326V317.498C65.6326 315.76 64.254 314.321 62.4558 314.321H28.5302C24.8739 314.321 24.3345 315.22 23.6152 316.779H22.776L19.1797 308.687L19.6592 308.027H65.5727H65.6326Z" fill="#00263E"/>
<path d="M60.8361 172.446H19.7178L19.2383 173.105L22.8346 181.137H23.6738C24.3931 179.578 24.9325 178.679 28.5888 178.679H60.8961C65.4515 178.679 67.3096 179.099 67.9689 181.197H68.868V169.928H67.9689C67.2496 171.966 65.3915 172.446 60.8361 172.446Z" fill="#00263E"/>
<path d="M76.1849 207.27C74.2069 207.27 72.6484 208.709 72.6484 210.747C72.6484 212.665 74.2069 214.223 76.1849 214.223C78.1029 214.223 79.6613 212.665 79.6613 210.747C79.6613 208.829 78.1029 207.27 76.1849 207.27Z" fill="#00263E"/>
<path d="M37.2814 323.493H34.7639C34.7639 323.493 36.7419 329.247 32.726 330.506C32.726 330.506 30.3884 331.285 28.6501 329.547C27.4513 328.348 27.4513 326.37 28.9498 323.972L28.2306 322.953C27.0318 324.452 26.3125 326.19 26.3125 328.168C26.3125 331.884 28.5902 334.222 32.3664 334.222C32.3664 334.222 35.1236 334.282 36.6221 331.944L37.4013 335.061H39.0796C38.3004 333.143 37.8209 330.626 37.5212 327.928C37.3413 326.43 37.2814 324.991 37.2814 323.493Z" fill="#00263E"/>
<path d="M68.8667 206.191V190.307C68.8667 188.569 67.4281 187.13 65.6899 187.13H19.7764L19.2969 187.79L22.8932 195.881H23.7324C24.4517 194.323 24.9911 193.424 28.6474 193.424H62.573C64.3113 193.424 65.7498 194.862 65.7498 196.601V202.834C65.7498 204.573 64.3712 206.011 62.573 206.011H41.4744L40.9949 206.67L44.5913 214.762H45.4304C46.1497 213.204 46.6891 212.305 50.3454 212.305L62.573 212.365C64.3113 212.365 65.7498 213.743 65.7498 215.541V224.353L46.9888 238.199C40.7551 242.694 39.0169 247.249 42.853 252.704C44.4714 254.922 47.2286 256.66 50.4054 257.799L51.4843 257.079C49.3265 256.3 47.7081 255.101 46.6292 253.663C43.812 249.707 45.9099 246.89 51.3644 242.994L65.7498 232.265V267.329H41.5344L41.0548 267.988L44.6512 276.08H45.4904C46.2096 274.522 46.7491 273.623 50.4054 273.623H67.6079C78.457 273.623 82.4729 279.017 82.4729 287.109V287.169H83.7316C83.8515 286.39 83.9114 285.551 83.9114 284.711C83.9114 276.62 80.3151 268.288 69.1064 267.449V215.302C69.1064 213.204 68.8667 212.365 68.2673 210.806C68.6269 209.128 68.8067 208.289 68.8667 206.191Z" fill="#00263E"/>
<path d="M67.909 290.764C67.1897 292.862 65.3316 293.282 60.8361 293.282H19.7178L19.2383 293.941L22.8346 302.033H23.6738C24.3931 300.474 24.9325 299.575 28.5888 299.575H60.8961C65.4515 299.575 67.3096 299.995 67.9689 302.093H68.868V290.764H67.909Z" fill="#00263E"/>
<path d="M46.8698 357.538L65.6308 343.692H68.8076V425.149C80.0761 425.988 83.6126 434.32 83.6126 442.412C83.6126 443.251 83.5526 444.09 83.4327 444.869H82.174V444.809C82.174 436.717 78.0981 431.383 67.3091 431.383L50.1065 431.323C46.4502 431.323 45.9107 432.222 45.1915 433.78H44.3523L40.756 425.689L41.2355 425.029H65.451V414.18H57.0594C40.8758 414.18 41.7749 400.514 41.7749 400.514C41.9547 393.201 46.4502 386.908 46.4502 386.908H65.391V351.424L51.0056 362.153C45.4912 366.049 43.4532 368.866 46.2704 372.822C47.2893 374.261 48.9676 375.459 51.1255 376.239L50.0466 376.958C46.8698 375.819 44.1126 374.141 42.4942 371.863C38.8379 366.588 40.5761 361.913 46.8698 357.538ZM47.4692 393.921C45.1915 397.877 45.1915 400.574 45.1915 400.574C45.1915 400.574 44.2325 407.287 55.2013 407.287H65.6308V393.921H47.4692Z" fill="#00263E"/>
<path d="M118.914 172.086H85.9469L85.5273 172.626L88.7041 179.758H89.4234C90.0228 178.44 90.5623 177.601 93.739 177.601H118.914C122.929 177.601 124.548 177.96 125.147 179.818H125.926V169.868H125.147C124.548 171.727 122.87 172.086 118.914 172.086Z" fill="#00263E"/>
<path d="M129.227 279.556C129.227 281.235 130.545 282.613 132.343 282.613C134.022 282.613 135.4 281.295 135.4 279.556C135.4 277.818 134.082 276.499 132.343 276.499C130.545 276.44 129.227 277.758 129.227 279.556Z" fill="#00263E"/>
<path d="M105.067 227.411H124.248C135.517 227.411 139.053 235.143 139.053 242.696C139.053 243.415 138.993 244.134 138.933 244.853H137.794V244.793C137.794 237.721 134.138 232.925 124.548 232.925C124.548 232.925 125.986 235.263 125.926 238.14C125.926 238.14 126.526 248.929 113.399 248.929C100.632 248.929 101.351 238.14 101.351 238.14C101.411 232.446 105.067 227.411 105.067 227.411ZM105.667 232.925C103.869 236.042 103.869 238.14 103.869 238.14C103.869 238.14 103.089 243.415 111.781 243.415H115.377C124.068 243.415 123.289 238.14 123.289 238.14C123.289 238.14 123.289 235.982 121.491 232.925H105.667Z" fill="#00263E"/>
<path d="M85.5273 254.562L85.9469 254.023H123.109C124.668 254.023 125.926 255.222 125.926 256.78V271.105C125.926 272.904 125.747 273.683 125.207 275.061C125.807 276.44 125.926 277.219 125.926 279.017V309.826C125.926 311.565 124.548 312.763 124.548 312.763C124.548 312.763 125.986 315.101 125.926 317.978C125.926 317.978 126.526 328.767 113.399 328.767C100.632 328.767 101.351 317.978 101.351 317.978C101.471 312.224 105.068 307.189 105.068 307.189H123.109V278.838C123.109 277.279 121.911 276.08 120.352 276.08H109.563C106.386 276.08 105.847 276.86 105.247 278.238H104.528L101.351 271.105L101.771 270.566H120.352C121.911 270.566 123.109 269.367 123.109 267.809V262.294C123.109 260.736 121.911 259.537 120.352 259.537H93.739C90.5623 259.537 90.0228 260.316 89.4234 261.695H88.7041L85.5273 254.562ZM105.667 312.763C103.869 315.88 103.869 317.978 103.869 317.978C103.869 317.978 103.09 323.253 111.781 323.253H115.377C124.068 323.253 123.289 317.978 123.289 317.978C123.289 317.978 123.289 315.82 121.491 312.763H105.667Z" fill="#00263E"/>
<path d="M88.7055 193.483H89.4247C90.0241 192.164 90.5636 191.325 93.7404 191.325H120.293C121.852 191.325 123.051 192.584 123.051 194.083V200.376C123.051 201.935 121.852 203.133 120.293 203.133H111.363C104.769 203.133 101.293 206.25 101.293 212.724C101.293 216.26 102.551 219.317 104.649 221.954L105.189 221.235C103.93 219.377 103.391 217.459 103.391 215.541C103.391 211.525 105.488 208.768 110.823 208.648H120.293C121.852 208.648 123.051 209.847 123.051 211.405V222.074H125.868V208.828C125.868 207.029 125.688 206.25 125.149 204.872C125.748 203.493 125.868 202.714 125.868 200.916V188.508C125.868 186.95 124.609 185.751 123.051 185.751H85.8883L85.4688 186.29L88.7055 193.483Z" fill="#00263E"/>
<path d="M129.227 271.405C129.227 273.083 130.545 274.462 132.343 274.462C134.022 274.462 135.4 273.143 135.4 271.405C135.4 269.727 134.082 268.348 132.343 268.348C130.545 268.288 129.227 269.607 129.227 271.405Z" fill="#00263E"/>
<path d="M98.537 320.495C98.537 318.817 97.2184 317.438 95.4801 317.438C93.7419 317.438 92.3633 318.697 92.3633 320.495C92.3633 322.173 93.682 323.552 95.4801 323.552C97.2184 323.492 98.537 322.173 98.537 320.495Z" fill="#00263E"/>
<path d="M95.5387 315.34C97.217 315.34 98.5956 314.022 98.5956 312.283C98.5956 310.605 97.277 309.227 95.5387 309.227C93.8005 309.227 92.4219 310.485 92.4219 312.283C92.4219 314.022 93.7405 315.34 95.5387 315.34Z" fill="#00263E"/>
<path d="M106.992 137.98C110.108 129.469 116.762 120.598 128.989 120.358C130.428 118.68 131.747 116.882 133.065 115.084C131.747 115.143 130.428 115.203 129.109 115.203C113.285 115.443 103.815 127.551 100.698 140.917C102.856 140.018 104.954 139.059 106.992 137.98ZM64.195 145.772C65.3938 144.394 66.8922 143.075 68.151 141.757C69.5895 140.378 70.8483 139.119 71.6874 138.1C74.8642 134.264 75.7633 129.529 76.6024 124.854C77.5015 119.819 78.2807 115.503 81.8171 113.285C83.7352 112.027 85.8331 111.907 88.1707 111.727C90.6882 111.547 93.5652 111.367 96.5022 109.689C100.338 107.531 102.196 105.433 103.995 103.455C105.193 102.077 106.392 100.758 108.25 99.3195C108.43 99.1996 122.396 88.7102 133.185 95.6632C134.084 96.2626 134.564 96.862 134.684 97.4014C134.803 98.3604 133.904 99.6192 133.485 100.099C131.267 102.257 121.137 104.654 114.784 105.613H114.664C104.055 107.711 99.739 117.661 96.2625 125.753L95.6631 127.071C92.2466 134.863 88.1707 142.416 81.5774 145.772C85.1138 145.413 88.5903 144.694 92.0068 143.854C95.5432 139.719 98.1206 134.444 100.458 129.169L101.058 127.851C104.354 120.238 107.771 112.326 115.683 110.768C118.68 110.288 133.005 107.951 137.261 103.815C137.561 103.515 140.018 100.998 140.018 97.6412C140.018 97.4014 140.018 97.2216 139.958 96.9219C139.778 95.3635 138.999 93.2057 136.182 91.3476C130.368 87.6313 123.175 87.1518 115.263 89.909C109.569 91.9469 105.433 95.0038 105.313 95.1837C103.036 96.9219 101.597 98.5403 100.338 99.9788C98.6601 101.837 97.2815 103.455 94.2246 105.134C92.3065 106.213 90.3285 106.332 88.1107 106.512C85.4135 106.692 82.3566 106.872 79.2997 108.91C73.9651 112.386 72.8862 118.26 71.8073 123.895C71.088 128.03 70.3088 131.926 68.0311 134.804C67.3118 135.583 66.173 136.782 64.8543 138.04C62.6965 140.198 60.2989 142.476 58.6206 144.753C60.239 145.233 62.217 145.533 64.195 145.772ZM61.198 49.39C68.3907 51.4879 76.1229 48.0114 79.5994 45.1343C82.2367 42.9765 84.2746 40.519 86.3126 38.1214C86.7321 37.582 87.2117 37.0425 87.6312 36.5031C91.6472 31.8877 96.8019 28.9507 104.414 27.0327C111.547 25.2944 118.26 23.5562 125.513 23.1965C125.753 23.1965 126.112 23.1965 126.412 23.1366C124.794 21.4583 123.175 19.8399 121.437 18.3415C115.203 19.0607 109.329 20.4993 103.156 21.9977C94.4044 24.1556 88.4105 27.5721 83.6753 33.1464C83.1957 33.6859 82.7762 34.2853 82.2967 34.8248C80.3786 37.1025 78.5205 39.3202 76.2428 41.1783C73.5455 43.3961 67.4916 45.8536 62.5167 44.4151H62.5766C61.0781 44.0554 58.6806 42.5569 58.6806 39.3801C58.6806 39.2603 58.6806 39.1404 58.6806 39.0805C58.8004 36.563 60.9583 32.607 70.4886 28.2914L70.7883 28.1116C89.4294 19.4803 96.0228 11.1487 99.2595 4.8551C97.6411 4.19577 96.0228 3.6563 94.2845 3.17677C91.2276 8.75113 85.1138 15.7641 68.5705 23.4363L68.3308 23.5562C58.8604 27.9317 53.8854 33.0266 53.5258 38.7808C53.5258 39.0205 53.5258 39.2003 53.5258 39.3801C53.4658 44.8346 57.4218 48.3711 61.198 49.39ZM45.1942 140.798C45.7337 137.201 46.2731 133.605 47.352 130.248C51.0083 118.44 57.9014 111.907 71.0281 107.651C77.8012 105.493 83.915 101.537 88.1707 96.6222C90.0288 94.4644 91.2876 92.0069 92.3665 89.6093C93.0857 88.1108 93.7451 86.7322 94.5842 85.4135C98.3005 79.4796 105.493 75.8832 112.506 76.4226C118.26 76.8422 123.475 79.7193 129.109 82.7762C130.248 83.3756 131.327 83.975 132.406 84.5744C135.703 86.3127 139.958 88.2307 144.514 89.1897C144.873 87.5114 145.233 85.8331 145.473 84.0949C142.296 83.4355 138.819 82.1169 134.863 79.9591C133.784 79.3597 132.706 78.7603 131.627 78.2208C125.813 75.044 119.819 71.7474 112.926 71.2079C104.055 70.5486 94.9438 75.1639 90.2686 82.5964C89.3096 84.1548 88.5303 85.7732 87.7511 87.2717C86.6722 89.4295 85.6533 91.5274 84.2747 93.2057C80.6184 97.4614 75.3437 100.818 69.4696 102.676C59.0402 106.033 47.7716 111.667 42.437 128.63C41.418 131.867 40.8187 135.283 40.3391 138.52C41.8976 139.359 43.5159 140.078 45.1942 140.798ZM18.5812 121.857C24.0357 115.863 30.5091 110.049 38.3012 107.471C40.7587 106.692 43.3361 106.153 46.0334 105.613C50.4689 104.714 55.0243 103.815 59.22 101.477C66.2329 97.4613 70.3088 90.3885 74.2048 83.5554C77.8611 77.082 81.3976 70.9682 87.0918 67.6116C93.9249 63.5956 102.197 64.4348 110.948 65.3339C119.819 66.173 128.929 67.0721 137.021 62.9363C139.539 61.6776 141.756 59.9393 143.854 58.321C144.094 58.1411 144.334 57.9613 144.574 57.7815C144.214 55.9834 143.734 54.1252 143.195 52.387C142.356 52.9864 141.517 53.5858 140.737 54.1852C138.7 55.7436 136.781 57.2421 134.684 58.321C127.91 61.7974 119.879 61.0182 111.487 60.1191C102.316 59.2201 92.786 58.261 84.5144 63.1161C77.5614 67.192 73.6054 74.145 69.7094 80.9181C65.9932 87.4515 62.4567 93.6252 56.6426 96.9219C53.2261 98.8999 49.2102 99.6791 45.0144 100.518C42.2572 101.058 39.4401 101.657 36.6229 102.556C27.9917 105.433 21.0387 111.547 15.1646 117.841C16.3035 119.219 17.3824 120.538 18.5812 121.857ZM27.6919 29.1905C32.7268 26.4932 45.7337 15.6442 50.2891 9.17072C50.4689 8.93095 50.6487 8.69122 50.9484 8.33159C52.3869 6.35359 53.7655 4.31564 55.0842 2.33765C52.3869 3.05692 49.6897 3.89607 47.0523 4.91504C46.9325 5.09485 46.8126 5.1548 46.7527 5.33461C46.5129 5.69426 46.2132 6.05389 46.0933 6.2337C42.0774 11.9279 29.7299 22.2975 25.3543 24.6351C21.9977 26.3733 18.6411 27.632 15.2246 28.5911C13.6062 30.6889 12.0478 32.8468 10.7291 35.1245C16.2435 33.6859 21.9378 32.1874 27.6919 29.1905ZM7.97192 106.392C12.2276 104.115 16.4234 101.657 20.4992 99.0198C22.4772 97.7611 24.3354 96.4424 25.8338 94.5243C27.3923 92.5463 28.1115 90.3286 28.9507 88.1708C29.4901 86.6124 30.0296 85.1738 30.7489 83.975C33.6859 79.2998 39.4401 78.2208 46.1533 76.9621C51.2481 76.063 56.4628 75.104 60.8384 72.3468C64.135 70.3088 66.7124 67.4318 69.1699 64.6746C72.107 61.3779 74.8642 58.2611 78.5205 57.0023C79.5394 56.6427 80.7382 56.343 81.997 56.0433C83.6153 55.6836 85.1737 55.324 86.6722 54.7246C92.2466 52.5668 94.7041 47.9515 96.1426 45.2542L96.3224 45.0145C102.077 34.2254 111.367 36.0236 122.156 38.1214C126.532 38.9606 131.147 39.8597 135.283 39.6798C136.302 39.6199 137.201 39.5 137.98 39.3801C137.141 37.7019 136.182 36.1434 135.223 34.5251C135.163 34.5251 135.103 34.5251 135.043 34.5251C131.447 34.7049 127.431 33.8657 123.115 33.0266C112.506 30.9287 99.3194 28.4113 91.7671 42.497L91.5873 42.7967C90.2686 45.3141 88.5903 48.431 84.8141 49.9295C83.6153 50.349 82.2367 50.7087 80.7982 51.0683C79.4795 51.368 78.1009 51.7276 76.8422 52.1472C71.8672 53.8255 68.5706 57.6616 65.3338 61.258C63.0561 63.8953 60.8384 66.3529 58.2011 67.9712C54.6047 70.129 49.8695 71.0281 45.3141 71.8673C38.0615 73.1859 30.5091 74.5645 26.4332 81.2178C25.3543 82.8961 24.7549 84.6943 24.1555 86.4325C23.4962 88.2307 22.8968 90.0289 21.8778 91.3476C20.8589 92.6063 19.3604 93.6253 17.802 94.6442C13.9658 97.1617 9.94992 99.4993 5.87404 101.657C6.4135 103.275 7.19271 104.834 7.97192 106.392ZM25.654 45.7337C29.7299 44.7747 33.8657 43.7557 37.7618 41.7178C42.1973 39.3802 46.2731 35.6639 50.2291 30.3293C52.2671 27.6321 54.0652 24.755 55.8035 21.9977C58.9203 17.0827 61.8573 12.5273 65.7534 8.63129C69.1699 5.27467 73.3058 2.51747 78.4605 0.239777C76.7223 0.119888 74.8642 0 73.066 0C71.3278 0 69.5895 0.0599365 67.9112 0.17981C65.8733 1.55841 63.9552 3.11685 62.157 4.91504C57.8414 9.17073 54.6047 14.2656 51.4879 19.1806C49.8096 21.8779 48.0114 24.695 46.0933 27.2125C42.5569 31.9477 39.0804 35.1844 35.3042 37.1624C32.0675 38.8407 28.3513 39.7997 24.4552 40.7587H24.3953C18.5812 42.1973 11.3285 43.9355 4.7352 47.2322C3.83611 49.5698 3.0569 52.0274 2.39757 54.4849C8.81108 50.1093 16.8429 47.9515 25.654 45.7337ZM0 75.104C0.359636 74.8642 0.719268 74.5645 1.13884 74.2648C3.3566 72.5266 5.3346 70.3688 7.25266 68.3308C10.909 64.4348 14.2655 60.7785 18.8209 60.1191C20.0197 59.9393 21.3384 59.9394 22.717 59.9993C23.676 60.0592 24.695 60.0592 25.714 59.9993C29.4302 59.8195 33.2064 57.7815 36.7428 55.7436C43.3361 52.0273 45.7337 51.3081 47.6517 54.0653C48.371 55.1442 48.371 56.2231 48.1912 57.0622C47.8915 58.5607 46.8725 59.9993 45.4939 60.7785C43.3361 62.0372 40.7587 62.5167 37.9416 62.9963C36.7428 63.236 35.544 63.4158 34.3452 63.7155C25.654 65.7534 18.5212 70.6685 14.6851 77.1419C13.5463 79 12.7071 80.5585 11.9879 81.9371C8.63126 88.0509 8.33156 88.5903 2.03793 90.0289C2.39757 91.7072 2.87708 93.3855 3.41653 95.0038C11.5083 93.0258 12.7671 91.2876 16.5432 84.3946C17.2625 83.0759 18.1616 81.5175 19.2405 79.7193C22.3574 74.4446 28.2913 70.4287 35.6039 68.7504C36.6828 68.5107 37.7618 68.3309 38.9006 68.0911C42.0774 67.5517 45.2542 66.9522 48.2511 65.214C50.8285 63.6556 52.6866 61.0782 53.286 58.1412C53.4658 57.4219 53.5258 56.7626 53.5258 56.1032C53.5258 54.3051 52.9863 52.5668 51.9674 51.1282C47.0523 44.0554 39.6199 48.1912 34.2253 51.2481C31.1684 52.9264 28.0516 54.7246 25.4742 54.9044C24.635 54.9644 23.7959 54.9044 22.8369 54.9044C21.2785 54.8445 19.6601 54.7846 18.0417 55.0843C11.7481 56.0433 7.55234 60.5387 3.47647 64.9143C2.33763 66.1131 1.31866 67.2519 0.179811 68.3308C0.059932 70.0091 0 71.6275 0 73.3058C0 73.8453 0 74.4446 0 75.104Z" fill="url(#paint0_linear_1707_2581)"/>
<defs>
<linearGradient id="paint0_linear_1707_2581" x1="130.534" y1="129.283" x2="15.9219" y2="16.9258" gradientUnits="userSpaceOnUse">
<stop stop-color="#F6E2C7"/>
<stop offset="1" stop-color="#B39868"/>
</linearGradient>
</defs>
</svg>
