<svg width="121" height="437" viewBox="0 0 121 437" fill="none" xmlns="http://www.w3.org/2000/svg">
<mask id="mask0_1707_2001" style="mask-type:luminance" maskUnits="userSpaceOnUse" x="0" y="0" width="120" height="120">
<path d="M0 119.864L119.864 119.864L119.864 0.000114441L0 0.000114441L0 119.864Z" fill="white"/>
</mask>
<g mask="url(#mask0_1707_2001)">
<path d="M179.281 67.7331L67.6797 -59.4153L-59.4687 52.1861L52.1327 179.334L179.281 67.7331Z" fill="url(#paint0_radial_1707_2001)"/>
</g>
<path d="M50.6066 420.585C50.6066 418.845 49.1932 417.486 47.3993 417.486C45.7142 417.486 44.3008 418.9 44.3008 420.585C44.3008 422.324 45.6598 423.792 47.3993 423.792C49.2476 423.792 50.6066 422.379 50.6066 420.585Z" fill="#666A70"/>
<path d="M81.4844 411.453C81.4844 413.302 82.8434 414.661 84.5829 414.661C86.3224 414.661 87.7358 413.302 87.7358 411.453C87.7358 409.768 86.3224 408.355 84.5829 408.355C82.9521 408.355 81.4844 409.768 81.4844 411.453Z" fill="#666A70"/>
<path d="M67.7863 406.778C70.5587 406.778 71.5372 407.811 71.5372 410.746V414.117H64.5247C57.4579 414.117 53.707 417.759 53.707 424.554C53.707 432.871 59.5236 436.676 65.2314 436.676C69.4171 436.676 72.57 435.317 74.2552 432.817C76.1578 429.936 76.5383 427.544 76.5383 422.108V410.475C76.5383 404.278 74.2008 400.799 67.9494 400.799H53.707V406.833H67.7863V406.778ZM71.5372 420.042V423.467C71.5372 428.414 69.5802 430.479 65.0139 430.479C61.1544 430.479 58.7082 428.305 58.7082 424.934C58.7082 421.564 60.7739 419.988 65.177 419.988H71.5372V420.042Z" fill="#666A70"/>
<path d="M50.6066 427.87C50.6066 426.13 49.1932 424.771 47.3993 424.771C45.7142 424.771 44.3008 426.185 44.3008 427.87C44.3008 429.609 45.6598 430.968 47.3993 430.968C49.2476 430.968 50.6066 429.718 50.6066 427.87Z" fill="#666A70"/>
<path d="M65.2314 376.989C59.5236 376.989 53.707 380.685 53.707 389.002V393.732H58.7082V388.513C58.7082 385.143 61.1544 382.968 65.0139 382.968H71.5372V398.57H76.5383V376.989H65.2314Z" fill="#666A70"/>
<path d="M81.4844 404.277C81.4844 406.017 82.8434 407.376 84.5829 407.376C86.3224 407.376 87.7358 406.017 87.7358 404.277C87.7358 402.538 86.3224 401.07 84.5829 401.07C82.9521 401.07 81.4844 402.484 81.4844 404.277Z" fill="#666A70"/>
<path d="M42.6172 169.658V175.529H76.5923V169.658H42.6172Z" fill="#666A70"/>
<path d="M81.4829 173.573H87.1363C87.4625 171.671 87.5712 170.312 87.5712 169.007C87.5712 160.853 83.8747 156.885 76.2099 156.885H55.9336V162.973H76.3187C80.1782 162.973 82.5157 165.147 82.5157 168.518C82.5157 170.638 81.9721 172.214 81.809 172.812L81.4829 173.573Z" fill="#666A70"/>
<path d="M46.2617 147.154V153.025H76.5947V147.154H46.2617Z" fill="#666A70"/>
<path d="M74.3095 247.177C76.2121 244.296 76.5926 241.904 76.5926 236.414V234.402C80.5066 234.457 82.4635 236.686 82.4635 240.871C82.4635 242.774 82.1917 245.057 81.3763 247.503L81.2676 247.884H86.9211C87.4647 244.894 87.6821 242.611 87.6821 240.545C87.6821 232.554 83.9856 228.423 76.647 228.314V193.904C76.647 184.391 74.2008 179.39 65.3401 179.39C59.6322 179.39 53.8157 183.087 53.8157 191.404C53.8157 198.144 57.5122 201.841 64.6334 201.841H71.6458V207.168C70.1237 206.407 68.3299 205.918 66.1011 205.918C61.1 205.918 55.2834 209.125 55.2834 217.931V218.692L42.6719 207.222V214.289C47.5099 218.584 54.5224 225.053 55.2291 225.814H60.2846V217.496C60.2846 214.942 61.2631 211.897 65.8293 211.897C70.0694 211.897 71.6458 213.8 71.6458 218.91V228.423H64.5247C57.4578 228.423 53.707 232.065 53.707 238.86C53.707 247.177 59.5235 250.982 65.2313 250.982C69.4171 251.037 72.6243 249.678 74.3095 247.177ZM65.177 195.915C60.8282 195.915 58.7081 194.339 58.7081 190.969C58.7081 187.598 61.2087 185.424 65.0139 185.424C69.5802 185.424 71.5371 187.49 71.5371 192.382V195.915H65.177ZM58.7625 239.404C58.7625 236.033 60.8282 234.511 65.2313 234.511H71.5915V237.882C71.5915 242.828 69.6345 244.894 65.0683 244.894C61.2087 244.894 58.7625 242.774 58.7625 239.404Z" fill="#666A70"/>
<path d="M76.5379 281.804C76.5379 279.249 75.94 276.64 75.1246 275.226C74.0374 273.324 72.1348 272.508 71.1563 272.345C70.3952 272.128 69.5798 272.074 67.949 272.074H42.6172V278.108H67.7859C70.5583 278.108 71.5368 279.14 71.5368 282.076V283.489C71.5368 284.468 71.3193 285.446 70.9388 286.533C70.1778 286.425 69.308 286.316 68.2752 286.316H55.9354V292.241H67.8947C70.5039 292.241 71.5911 293.383 71.5911 296.101C71.5911 297.079 71.4824 298.058 71.1563 299.091C70.2865 298.982 69.4711 298.873 68.2208 298.873H55.9354L55.9354 304.798H67.8947C70.2321 304.798 71.2106 305.396 71.5368 307.082V310.126C71.5368 310.561 71.5912 311.648 70.9932 311.648H55.8811V317.573H71.4824V327.575C68.0577 324.314 64.3612 322.357 61.5889 322.357C56.2616 322.357 53.5436 328.771 53.5436 335.186C53.5436 341.546 56.2616 348.015 61.5889 348.015C65.3397 348.015 69.4711 344.644 71.4824 342.687V351.82H64.5243C57.4575 351.82 53.7067 355.462 53.7067 362.203C53.7067 370.52 59.5232 374.216 65.231 374.216C69.4167 374.216 72.5696 372.912 74.2548 370.465C76.1574 367.584 76.5379 365.193 76.5379 359.757V357.745C80.4518 357.8 82.4088 359.974 82.4088 364.214C82.4088 366.117 82.137 368.4 81.3216 370.846L81.2129 371.227H86.8663C87.4099 368.237 87.6274 365.954 87.6274 363.888C87.6274 355.897 83.9309 351.766 76.5923 351.657V311.322C76.701 310.18 76.8097 308.984 76.8097 307.788C76.8097 305.505 76.4292 303.82 75.5051 302.189C76.3748 300.069 76.8097 297.514 76.8097 295.014C76.8097 292.73 76.3748 290.828 75.3964 289.414C76.2661 287.458 76.6466 285.066 76.6466 282.293V281.804H76.5379ZM71.5368 357.8V361.224C71.5368 366.171 69.5798 368.237 65.0136 368.237C61.154 368.237 58.7078 366.062 58.7078 362.692C58.7078 359.322 60.7735 357.745 65.1223 357.745H71.5368V357.8ZM71.1563 335.294C71.1563 336.164 65.1767 342.47 61.6432 342.47C59.6863 342.47 58.6534 338.719 58.6534 335.131C58.6534 331.707 59.6863 328.119 61.6432 328.119C65.1223 328.065 71.1563 334.099 71.1563 335.294Z" fill="#666A70"/>
<path d="M42.6172 261.636V267.507H76.5923V261.636H42.6172Z" fill="#666A70"/>
<path d="M40.9324 145.74V149.002C40.8781 150.361 40.6063 150.687 39.5734 150.687C38.3775 150.687 38.1601 150.307 38.1601 148.893C38.1601 147.969 38.3775 147.317 39.0842 146.338H36.2031L35.9857 146.773C35.6595 147.48 35.5508 148.132 35.5508 148.948C35.5508 151.937 36.9641 153.623 39.6278 153.623C40.2258 153.623 40.6063 153.514 40.9324 153.351V154.438H43.5417V145.74H40.9324Z" fill="#666A70"/>
<path d="M97.1406 154.493C97.1406 160.853 102.359 166.072 108.719 166.072C115.079 166.072 120.298 160.853 120.298 154.493C120.298 148.133 115.079 142.969 108.719 142.969C102.359 142.969 97.1406 148.133 97.1406 154.493ZM115.025 154.493C115.025 158.026 112.144 160.799 108.719 160.799C105.295 160.799 102.468 158.026 102.468 154.493C102.468 151.068 105.24 148.242 108.719 148.242C112.198 148.242 115.025 151.068 115.025 154.493Z" fill="#666A70"/>
<path d="M96.8672 196.893C96.8672 199.448 97.4108 202.058 98.2262 204.123C97.2477 205.808 96.8672 207.439 96.8672 209.777C96.8672 212.712 97.2477 215.702 98.3893 218.964L98.6067 219.562H119.862V213.745H102.412C102.031 212.549 101.868 211.679 101.868 210.483C101.868 207.602 102.792 206.787 105.782 206.787H119.862V200.916H105.402C104.097 200.916 103.227 200.97 102.466 201.188C102.086 200.046 101.868 199.122 101.868 198.089C101.868 195.371 103.119 194.121 105.782 194.121H119.862V188.304H105.347C102.466 188.304 100.781 188.739 99.3677 190.044C97.7913 191.512 96.8672 193.904 96.8672 196.893Z" fill="#666A70"/>
<path d="M115.296 173.682C115.296 177.541 112.904 179.77 108.718 179.77C104.424 179.77 101.977 177.541 101.977 173.627C101.977 172.812 102.086 172.159 102.249 171.507C102.249 171.507 102.575 170.311 103.391 169.278L99.205 166.832C98.1178 168.191 97.6286 169.713 97.4655 170.257C97.0306 171.779 96.9219 173.953 96.9219 173.953C96.9219 180.911 101.76 185.586 108.935 185.586C115.839 185.586 120.297 181.183 120.297 174.28C120.297 174.28 120.514 169.659 117.633 166.615L113.937 169.496C114.915 171.018 115.296 172.105 115.296 173.682Z" fill="#666A70"/>
<path d="M97.0859 249.189C97.0859 257.451 100.728 261.311 108.447 261.311H119.808V255.386H108.882H108.338C104.425 255.386 102.033 253.157 102.033 249.732C102.033 248.319 102.304 247.177 102.468 246.416L97.3034 245.057C97.0859 247.34 97.0859 249.189 97.0859 249.189Z" fill="#666A70"/>
<path d="M107.849 222.932H119.863V230.868C119.863 236.359 119.482 238.751 117.579 241.577C115.894 244.078 112.687 245.437 108.556 245.437C102.848 245.437 97.0312 241.686 97.0312 233.315C97.0312 226.574 100.782 222.932 107.849 222.932ZM108.447 228.748C104.098 228.748 101.924 230.434 101.924 233.804C101.924 237.229 104.479 239.457 108.284 239.457C112.904 239.457 114.916 237.229 114.916 232.282V228.694H108.447V228.748Z" fill="#666A70"/>
<path d="M107.849 264.518H119.863V272.4C119.863 277.891 119.482 280.282 117.579 283.109C115.894 285.61 112.687 286.969 108.556 286.969C102.848 286.969 97.0312 283.218 97.0312 274.846C97.0312 268.106 100.782 264.518 107.849 264.518ZM108.447 270.498C104.044 270.498 101.924 272.074 101.924 275.499C101.924 278.923 104.479 281.152 108.284 281.152C112.904 281.152 114.916 278.923 114.916 273.977V270.443H108.447V270.498Z" fill="#666A70"/>
<path d="M106.111 388.568C105.078 392.101 104.48 393.514 103.338 393.514C102.142 393.514 101.49 391.72 101.49 389.546C101.49 387.372 101.979 385.252 102.523 383.675L97.4674 382.316C96.9238 384.654 96.5977 387.48 96.5977 389.383C96.5977 395.634 99.4244 399.059 103.664 399.059C105.785 399.059 108.666 398.461 110.514 391.884C111.655 388.024 111.764 386.611 113.069 386.611C114.482 386.611 115.515 389.057 115.515 391.829C115.515 394.71 114.265 397.646 113.395 399.385H118.885C119.755 397.265 120.407 394.602 120.407 391.938C120.407 385.089 117.526 381.066 113.014 381.066C109.59 381.066 107.741 383.132 106.111 388.568Z" fill="#666A70"/>
<path d="M111.384 338.991C114.211 338.991 115.244 340.078 115.244 343.068V343.394C115.244 346.384 114.211 347.471 111.384 347.471H97.3594V353.233H111.819C118.505 353.233 120.354 349.482 120.354 343.666V342.687C120.354 336.49 118.614 332.902 111.819 332.902H97.3594V338.882H111.384V338.991Z" fill="#666A70"/>
<path d="M89.1445 301.754C89.1445 303.494 90.5035 304.853 92.2431 304.853C93.9826 304.853 95.3959 303.494 95.3959 301.754C95.3959 300.014 94.037 298.655 92.2431 298.655C90.5579 298.601 89.1445 300.014 89.1445 301.754Z" fill="#666A70"/>
<path d="M98.0117 298.874V304.582H119.865V298.874H98.0117Z" fill="#666A70"/>
<path d="M107.849 356.604H119.863V364.541C119.863 370.031 119.482 372.423 117.579 375.25C115.894 377.75 112.687 379.109 108.556 379.109C102.848 379.109 97.0312 375.359 97.0312 366.987C97.0312 360.246 100.782 356.604 107.849 356.604ZM108.447 362.366C104.098 362.366 101.924 364.052 101.924 367.422C101.924 370.847 104.479 373.075 108.284 373.075C112.904 373.075 114.916 370.847 114.916 365.9V362.312H108.447V362.366Z" fill="#666A70"/>
<path d="M88.7148 308.277H119.863V315.507C119.863 320.998 119.483 323.389 117.58 326.216C115.895 328.717 112.688 330.076 108.556 330.076C101.598 330.076 97.0863 325.401 97.0863 318.606V318.008C97.0863 316.486 97.5212 315.072 98.3366 313.822H88.7148V308.277ZM108.556 313.876C103.881 313.876 101.979 315.181 101.979 318.443C101.979 321.867 104.534 324.096 108.339 324.096C112.959 324.096 114.971 321.922 114.971 317.029V313.931H108.556V313.876Z" fill="#666A70"/>
<path d="M50.282 53.7633C50.9887 52.3499 52.4021 51.4258 53.598 51.5889C54.7939 51.8063 55.1744 53.1109 54.4677 54.5787C53.7067 56.0464 52.239 56.9705 51.0431 56.7531C49.9015 56.4269 49.5753 55.1766 50.282 53.7633Z" fill="white"/>
<path d="M27.23 49.5224C27.828 48.3809 28.8608 47.5655 29.6219 47.6198C30.3286 47.7286 30.4373 48.7614 29.8393 49.9573C29.187 51.1532 28.1542 51.9686 27.3931 51.8599C26.6864 51.6968 26.5777 50.7184 27.23 49.5224Z" fill="white"/>
<path d="M24.8966 49.1428C25.4402 48.1644 26.2557 47.512 26.8536 47.5664C27.4516 47.6751 27.5059 48.4905 27.0167 49.5234C26.4731 50.5019 25.6033 51.2085 25.0597 51.0998C24.4618 50.9367 24.4074 50.1213 24.8966 49.1428Z" fill="white"/>
<path d="M22.6145 48.7622C23.1037 47.8924 23.8648 47.2401 24.4084 47.2944C24.952 47.4031 25.0063 48.1642 24.5171 49.0883C24.0278 50.0124 23.2125 50.6648 22.7232 50.556C22.1796 50.4473 22.1796 49.6863 22.6145 48.7622Z" fill="white"/>
<path d="M20.3822 48.4353C20.817 47.6199 21.5237 47.0219 22.013 47.0763C22.5022 47.1306 22.5022 47.8917 22.0673 48.7071C21.6325 49.5769 20.8714 50.1205 20.4365 50.0661C19.9473 49.9574 19.9473 49.2507 20.3822 48.4353Z" fill="white"/>
<path d="M18.3763 48.1101C18.8111 47.3491 19.4635 46.8055 19.844 46.8599C20.2789 46.9142 20.2789 47.5665 19.844 48.3819C19.4091 49.143 18.7568 49.7409 18.3219 49.6322C17.9414 49.5235 17.9414 48.8712 18.3763 48.1101Z" fill="white"/>
<path d="M16.5249 47.7836C16.9054 47.0769 17.5033 46.5877 17.8839 46.5877C18.2644 46.642 18.2644 47.24 17.8839 48.001C17.5033 48.7077 16.9054 49.2513 16.5249 49.1969C16.09 49.0882 16.1443 48.4903 16.5249 47.7836Z" fill="white"/>
<path d="M14.7281 47.5112C15.1086 46.8589 15.5435 46.3697 15.9784 46.424C16.3589 46.4784 16.3045 47.022 15.924 47.6743C15.5435 48.3266 15.0542 48.8159 14.6737 48.7615C14.2932 48.7071 14.3476 48.1635 14.7281 47.5112Z" fill="white"/>
<path d="M12.8843 47.2402C13.2105 46.6966 13.591 46.2617 13.9172 46.316C14.2433 46.3704 14.189 46.8596 13.8628 47.4032C13.5366 48.0012 13.1561 48.3817 12.7756 48.3274C12.5038 48.273 12.5582 47.7838 12.8843 47.2402Z" fill="white"/>
<path d="M11.1969 46.968C11.4687 46.4244 11.8492 46.0439 12.1754 46.0982C12.4472 46.1526 12.3928 46.5875 12.121 47.0767C11.7949 47.6203 11.4687 48.0009 11.1425 47.9465C10.8164 47.8921 10.9251 47.4573 11.1969 46.968Z" fill="white"/>
<path d="M9.51632 46.6968C9.78812 46.262 10.0599 45.9358 10.3317 45.9358C10.6035 45.9901 10.4948 46.3163 10.223 46.8056C9.95121 47.2404 9.62505 47.6209 9.40761 47.5666C9.19017 47.5122 9.24452 47.1317 9.51632 46.6968Z" fill="white"/>
<path d="M7.93817 46.4244C8.15562 46.0439 8.42743 45.7177 8.64487 45.7721C8.86231 45.8265 8.75358 46.0983 8.53614 46.5332C8.3187 46.9137 8.04691 47.2398 7.82946 47.1855C7.61202 47.1311 7.72073 46.8593 7.93817 46.4244Z" fill="white"/>
<path d="M58.33 55.231C57.7321 56.427 56.4818 57.2424 55.449 57.0249C54.4161 56.8075 54.1443 55.7203 54.6879 54.5243C55.2859 53.3284 56.5362 52.5674 57.569 52.7305C58.5475 52.9479 58.928 54.0351 58.33 55.231Z" fill="white"/>
<path d="M63.2726 56.2093C62.6746 57.4052 61.4243 58.1663 60.3371 57.9488C59.3043 57.7314 58.9781 56.6442 59.5217 55.5026C60.1197 54.361 61.3156 53.6 62.4028 53.7631C63.4357 53.9262 63.8162 54.959 63.2726 56.2093Z" fill="white"/>
<path d="M68.3878 57.1884C67.8442 58.33 66.5396 59.091 65.5067 58.8735C64.4739 58.6561 64.0934 57.5689 64.5826 56.4273C65.1262 55.2858 66.3765 54.5791 67.4637 54.7422C68.4965 54.9596 68.9314 55.9925 68.3878 57.1884Z" fill="white"/>
<path d="M74.0385 58.2753C73.4949 59.4169 72.2446 60.1235 71.1574 59.9061C70.0702 59.6887 69.6897 58.6558 70.1789 57.5142C70.7225 56.427 71.9184 55.7204 73.0056 55.8834C74.0928 56.1552 74.5277 57.1337 74.0385 58.2753Z" fill="white"/>
<path d="M79.6352 59.4162C79.146 60.3947 78.0588 60.9927 77.026 60.7752C76.0475 60.5578 75.6126 59.6337 76.0475 58.6552C76.4824 57.6767 77.6239 57.0788 78.6024 57.2962C79.6353 57.5137 80.0701 58.4378 79.6352 59.4162Z" fill="white"/>
<path d="M86.4858 60.8308C86.0509 61.7549 84.9093 62.3529 83.9308 62.1355C82.9523 61.918 82.4631 60.9939 82.898 60.0698C83.3328 59.1456 84.4201 58.6021 85.4529 58.7651C86.377 58.9826 86.8663 59.8523 86.4858 60.8308Z" fill="white"/>
<path d="M93.828 62.3524C93.4475 63.2222 92.4146 63.7114 91.4361 63.494C90.512 63.2765 90.0227 62.4612 90.4033 61.6457C90.7838 60.8303 91.7623 60.3411 92.7408 60.5042C93.7193 60.7216 94.2085 61.537 93.828 62.3524Z" fill="white"/>
<path d="M101.218 63.8746C100.892 64.5813 100.022 65.0162 99.0977 64.7987C98.2279 64.5813 97.793 63.8746 98.0648 63.1679C98.391 62.4612 99.2607 62.0263 100.131 62.2438C101 62.4612 101.49 63.1679 101.218 63.8746Z" fill="white"/>
<path d="M53.0572 48.708C53.6552 47.5665 54.7967 46.8054 55.7752 46.9141C56.7537 47.0772 57.0255 48.0557 56.4819 49.1973C55.884 50.3388 54.688 51.0999 53.7639 50.9911C52.7854 50.8281 52.5136 49.8496 53.0572 48.708Z" fill="white"/>
<path d="M55.1194 43.7609C55.8261 42.4019 57.2938 41.4234 58.5441 41.5321C59.7943 41.6408 60.1749 42.8368 59.4682 44.2501C58.7071 45.6635 57.2394 46.642 55.9891 46.5333C54.7932 46.3158 54.467 45.1199 55.1194 43.7609Z" fill="white"/>
<path d="M53.3235 9.29647C52.943 9.84007 53.1061 10.2206 53.5953 10.1662C54.0846 10.1119 54.7912 9.62263 55.1718 9.02467C55.5523 8.42671 55.3892 8.04617 54.9 8.15489C54.3564 8.26361 53.6497 8.75287 53.3235 9.29647Z" fill="white"/>
<path d="M50.5539 13.3195C50.119 14.0806 50.2277 14.6242 50.8801 14.5154C51.5324 14.4067 52.4022 13.8088 52.8914 13.0477C53.3263 12.2867 53.2176 11.7974 52.5652 11.8518C51.9129 11.9061 51.0431 12.5585 50.5539 13.3195Z" fill="white"/>
<path d="M87.9517 24.5173C87.3538 25.4958 87.7887 26.2025 88.9302 26.2568C90.0718 26.2568 91.4852 25.4958 92.1375 24.5173C92.7354 23.5389 92.3006 22.8322 91.1047 22.7778C89.9087 22.8322 88.5497 23.5389 87.9517 24.5173Z" fill="white"/>
<path d="M78.4927 29.301C77.8404 30.4426 78.2753 31.3123 79.5256 31.3667C80.7758 31.3667 82.2436 30.5513 82.9503 29.4097C83.6026 28.2682 83.1677 27.3984 81.9174 27.344C80.6128 27.344 79.1451 28.1595 78.4927 29.301Z" fill="white"/>
<path d="M70.2863 34.3024C69.6883 35.3896 70.0688 36.3137 71.156 36.368C72.2976 36.4224 73.6566 35.607 74.2546 34.4654C74.8525 33.3239 74.472 32.4541 73.3305 32.3998C72.2432 32.3998 70.9386 33.2152 70.2863 34.3024Z" fill="white"/>
<path d="M36.7461 37.401C36.2025 38.3794 36.3113 39.1949 37.0179 39.2492C37.7246 39.3036 38.7031 38.5425 39.2467 37.5097C39.7903 36.4768 39.6272 35.6615 38.9205 35.6615C38.2139 35.6615 37.2897 36.4225 36.7461 37.401Z" fill="white"/>
<path d="M51.6404 16.9073C51.2055 17.6683 51.3142 18.2663 52.0209 18.2119C52.6732 18.1575 53.5973 17.5052 54.0866 16.6898C54.5758 15.8744 54.4127 15.3308 53.7061 15.3852C52.9994 15.4939 52.0752 16.0919 51.6404 16.9073Z" fill="white"/>
<path d="M49.1953 20.9299C48.706 21.7453 48.8691 22.3433 49.5758 22.3433C50.2825 22.2889 51.2066 21.5822 51.6958 20.7668C52.1851 19.897 52.022 19.2991 51.3153 19.3535C50.5543 19.4078 49.6845 20.1145 49.1953 20.9299Z" fill="white"/>
<path d="M47.7816 29.0295C47.238 30.008 47.4011 30.769 48.2165 30.769C49.0319 30.769 50.0647 30.008 50.6083 29.0295C51.1519 28.051 50.9345 27.29 50.1191 27.29C49.3581 27.29 48.3252 28.051 47.7816 29.0295Z" fill="white"/>
<path d="M46.7536 24.9522C46.2644 25.8763 46.3731 26.583 47.1342 26.583C47.8952 26.5286 48.8737 25.822 49.4173 24.8435C49.9609 23.9194 49.7434 23.2127 48.9824 23.2127C48.2214 23.267 47.2429 24.0281 46.7536 24.9522Z" fill="white"/>
<path d="M44.2459 29.1928C43.7023 30.2256 43.8653 31.041 44.6264 31.041C45.4418 31.041 46.529 30.2256 47.127 29.1384C47.7249 28.0512 47.5075 27.2902 46.6921 27.2902C45.931 27.3445 44.8438 28.1599 44.2459 29.1928Z" fill="white"/>
<path d="M45.2819 33.3236C44.6839 34.4108 44.9014 35.2806 45.7168 35.335C46.5865 35.335 47.7281 34.5196 48.3261 33.4324C48.924 32.3452 48.7066 31.4754 47.8368 31.421C47.0214 31.421 45.8798 32.2364 45.2819 33.3236Z" fill="white"/>
<path d="M62.456 39.0861C61.8581 40.2276 62.2386 41.1517 63.2714 41.3148C64.3586 41.3692 65.6633 40.5538 66.3156 39.4122C66.9136 38.2706 66.5331 37.2922 65.4458 37.2378C64.3586 37.1291 63.054 37.9989 62.456 39.0861Z" fill="white"/>
<path d="M57.9441 38.7598C57.2918 40.01 57.6179 40.9885 58.7051 41.0973C59.7923 41.206 61.2057 40.2818 61.858 39.0316C62.5103 37.7813 62.1298 36.7484 61.0426 36.6941C59.9554 36.6397 58.5964 37.5638 57.9441 38.7598Z" fill="white"/>
<path d="M53.7078 38.4339C53.0011 39.7929 53.3273 40.8801 54.4688 40.9888C55.6104 41.0975 57.0781 40.119 57.8392 38.76C58.5458 37.401 58.1653 36.3139 57.0238 36.2051C55.8278 36.1508 54.4145 37.1292 53.7078 38.4339Z" fill="white"/>
<path d="M49.7357 38.1624C49.0834 39.467 49.3552 40.4998 50.388 40.6086C51.4752 40.6629 52.8342 39.7388 53.5409 38.4342C54.2476 37.1295 53.9214 36.0423 52.8342 35.9879C51.747 35.9336 50.4424 36.9121 49.7357 38.1624Z" fill="white"/>
<path d="M46.2593 37.9995C45.6613 39.141 45.8787 40.0651 46.7485 40.1195C47.6726 40.1739 48.8142 39.3585 49.4665 38.2169C50.0645 37.0753 49.847 36.1512 48.9229 36.0969C48.0532 36.0425 46.8572 36.8579 46.2593 37.9995Z" fill="white"/>
<path d="M42.7823 37.7278C42.1299 38.9781 42.3474 39.9565 43.2715 40.0109C44.1956 40.0653 45.4459 39.1411 46.1526 37.8908C46.8049 36.6406 46.5875 35.6621 45.609 35.6077C44.6305 35.6077 43.4346 36.5318 42.7823 37.7278Z" fill="white"/>
<path d="M39.5702 37.5634C38.9722 38.7593 39.1353 39.7378 39.9507 39.7922C40.8205 39.8465 42.0164 38.9224 42.6687 37.7265C43.321 36.5306 43.1036 35.552 42.2338 35.4977C41.3641 35.4977 40.2225 36.3675 39.5702 37.5634Z" fill="white"/>
<path d="M29.786 45.2828C29.3511 46.0982 29.4055 46.8048 29.9491 46.9136C30.4927 46.9679 31.2537 46.37 31.6886 45.5546C32.1235 44.6848 32.0691 44.0325 31.5255 43.9238C30.9819 43.8694 30.2753 44.4674 29.786 45.2828Z" fill="white"/>
<path d="M27.2887 45.1198C26.9082 45.8809 26.9082 46.5332 27.3974 46.5876C27.8867 46.6419 28.539 46.0983 28.9739 45.3373C29.3544 44.5762 29.3 43.9239 28.8651 43.8696C28.3759 43.8152 27.7236 44.3588 27.2887 45.1198Z" fill="white"/>
<path d="M24.9492 44.9568C24.623 45.6092 24.623 46.1528 25.0035 46.2615C25.384 46.3159 25.982 45.8266 26.3625 45.1743C26.743 44.522 26.6887 43.9783 26.3082 43.924C25.8733 43.8696 25.3297 44.3045 24.9492 44.9568Z" fill="white"/>
<path d="M22.6679 44.9022C22.3417 45.5002 22.3417 45.9894 22.7223 46.0438C23.1028 46.0981 23.592 45.6632 23.9182 45.0653C24.2443 44.4673 24.2444 43.9781 23.8638 43.9237C23.4833 43.8693 22.9941 44.3042 22.6679 44.9022Z" fill="white"/>
<path d="M20.5489 44.7393C20.2771 45.2829 20.2228 45.7177 20.5489 45.8265C20.9294 45.8808 21.3643 45.446 21.6361 44.9024C21.9079 44.3588 21.9623 43.8695 21.6361 43.8695C21.31 43.8151 20.8751 44.1957 20.5489 44.7393Z" fill="white"/>
<path d="M18.4278 44.6848C18.156 45.174 18.1017 45.5545 18.4278 45.6089C18.754 45.6089 19.1345 45.2827 19.4063 44.7935C19.6781 44.3042 19.7325 43.8694 19.4063 43.8694C19.0801 43.815 18.6996 44.1955 18.4278 44.6848Z" fill="white"/>
<path d="M16.526 44.5755C16.2542 45.0104 16.1999 45.391 16.4717 45.4453C16.7435 45.4453 17.0696 45.1191 17.3414 44.6843C17.6132 44.195 17.6676 43.8689 17.3414 43.8145C17.124 43.8145 16.7978 44.1406 16.526 44.5755Z" fill="white"/>
<path d="M14.6225 44.4675C14.405 44.848 14.3507 45.1742 14.5681 45.2285C14.7855 45.2285 15.1117 44.9567 15.3291 44.5218C15.5466 44.1413 15.601 43.8151 15.3835 43.7608C15.1117 43.8151 14.8399 44.0869 14.6225 44.4675Z" fill="white"/>
<path d="M60.4451 49.7952C60.88 48.9255 60.6082 48.1644 59.8471 48.0013C59.0861 47.8926 58.162 48.4906 57.7271 49.3603C57.2922 50.2301 57.564 50.9912 58.325 51.1542C59.0317 51.263 60.0102 50.665 60.4451 49.7952Z" fill="white"/>
<path d="M65.3933 50.5561C65.7738 49.6863 65.502 48.9797 64.7409 48.8709C63.9799 48.7622 63.0558 49.3602 62.6209 50.1756C62.2404 50.991 62.4578 51.752 63.2189 51.8608C64.0343 51.9695 64.9584 51.3715 65.3933 50.5561Z" fill="white"/>
<path d="M70.4467 51.6979C70.8272 50.8282 70.5554 50.1215 69.74 50.0127C68.9246 49.904 68.0549 50.4476 67.62 51.263C67.2395 52.0784 67.5113 52.8395 68.2723 52.9482C69.0877 53.1113 70.0662 52.5677 70.4467 51.6979Z" fill="white"/>
<path d="M75.9907 52.7847C76.3712 52.0237 76.0451 51.317 75.284 51.1539C74.523 51.0452 73.6532 51.5344 73.2727 52.2955C72.8922 53.0565 73.2184 53.7632 73.9794 53.9263C74.6861 54.0894 75.6102 53.6001 75.9907 52.7847Z" fill="white"/>
<path d="M81.4846 54.0891C81.8107 53.3825 81.4846 52.6758 80.7235 52.5671C79.9625 52.4583 79.1471 52.8932 78.7666 53.6543C78.4404 54.3609 78.7665 55.0133 79.5276 55.1763C80.2886 55.2851 81.1041 54.8502 81.4846 54.0891Z" fill="white"/>
<path d="M88.063 55.6118C88.3892 54.9051 88.0087 54.3071 87.302 54.1984C86.5409 54.0897 85.7255 54.5246 85.3994 55.1769C85.0732 55.8836 85.3994 56.4816 86.1604 56.5903C86.9214 56.7534 87.7368 56.3185 88.063 55.6118Z" fill="white"/>
<path d="M42.0193 33.3778C41.4757 34.4107 41.6388 35.1717 42.3998 35.2261C43.1609 35.2261 44.1937 34.465 44.7373 33.4322C45.2809 32.3994 45.1178 31.6383 44.3568 31.584C43.5958 31.6383 42.5629 32.3994 42.0193 33.3778Z" fill="white"/>
<path d="M48.9227 33.5961C48.4334 34.5202 48.5965 35.2269 49.3576 35.2812C50.1186 35.2812 51.0427 34.6289 51.5863 33.7048C52.0756 32.7807 51.8581 32.074 51.1514 32.0196C50.3904 32.0196 49.4119 32.7263 48.9227 33.5961Z" fill="white"/>
<path d="M52.5151 33.7043C51.9715 34.7372 52.189 35.5526 53.0587 35.6069C53.9285 35.6069 55.0701 34.8459 55.668 33.8131C56.2116 32.7802 55.9942 31.9648 55.0701 31.9104C54.1459 31.9104 53.0587 32.6715 52.5151 33.7043Z" fill="white"/>
<path d="M65.2872 34.1933C64.7436 35.2261 65.0698 36.0415 65.9939 36.0959C66.9724 36.1503 68.1683 35.3892 68.7663 34.3564C69.3099 33.3235 68.9837 32.5081 68.0052 32.4538C67.0268 32.4538 65.8308 33.2148 65.2872 34.1933Z" fill="white"/>
<path d="M48.1087 17.2331C47.6194 18.1029 47.7825 18.7008 48.4348 18.6465C49.1415 18.5921 50.0657 17.8311 50.6093 17.0157C51.0985 16.1459 50.9354 15.548 50.2287 15.6023C49.5764 15.6567 48.5979 16.3634 48.1087 17.2331Z" fill="white"/>
<path d="M84.6363 29.6272C84.0927 30.5513 84.4732 31.3123 85.5604 31.3667C86.6476 31.3667 87.8979 30.66 88.4958 29.7359C89.0394 28.8118 88.6046 28.0507 87.5174 27.9964C86.4302 27.9964 85.1799 28.703 84.6363 29.6272Z" fill="white"/>
<path d="M94.3106 24.4634C93.7669 25.3332 94.1475 26.0399 95.289 26.0942C96.4306 26.0942 97.7353 25.3876 98.3332 24.5178C98.9312 23.5937 98.4963 22.9414 97.3004 22.9414C96.2132 22.887 94.9085 23.5937 94.3106 24.4634Z" fill="white"/>
<path d="M75.6129 34.7376C75.0693 35.7704 75.4498 36.5858 76.537 36.6945C77.6242 36.7489 78.9288 35.9878 79.5268 34.955C80.0704 33.9222 79.6899 33.0524 78.5483 32.998C77.4611 32.9437 76.2108 33.7047 75.6129 34.7376Z" fill="white"/>
<path d="M67.6746 39.5216C67.131 40.5544 67.5115 41.3698 68.49 41.4785C69.4685 41.5329 70.6645 40.8262 71.2624 39.7934C71.806 38.7605 71.4255 37.8908 70.447 37.8364C69.4142 37.782 68.2182 38.4887 67.6746 39.5216Z" fill="white"/>
<path d="M59.9064 44.1413C59.3628 45.2829 59.689 46.207 60.6674 46.3701C61.7003 46.4788 62.8962 45.7177 63.4942 44.5762C64.0378 43.4346 63.7116 42.5105 62.6788 42.3474C61.7003 42.2931 60.5044 43.0541 59.9064 44.1413Z" fill="white"/>
<path d="M60.939 34.0305C60.4497 34.9546 60.7215 35.7157 61.5369 35.77C62.4067 35.8244 63.4939 35.1177 64.0375 34.1392C64.5811 33.1607 64.2549 32.4541 63.3852 32.3997C62.5154 32.3997 61.4826 33.1064 60.939 34.0305Z" fill="white"/>
<path d="M34.0308 37.2378C33.5415 38.1076 33.6502 38.8143 34.2482 38.8687C34.8462 38.8687 35.7159 38.2163 36.2052 37.3466C36.6944 36.4768 36.5857 35.7701 35.9877 35.7158C35.3354 35.7158 34.4656 36.3681 34.0308 37.2378Z" fill="white"/>
<path d="M46.0378 21.1473C45.6573 21.854 45.766 22.3433 46.3096 22.3433C46.8532 22.2889 47.6142 21.7453 48.0491 21.0386C48.4296 20.3319 48.3209 19.8427 47.7773 19.8427C47.1793 19.897 46.4727 20.4406 46.0378 21.1473Z" fill="white"/>
<path d="M55.4469 28.9748C55.012 29.7902 55.1751 30.3882 55.8818 30.3882C56.5885 30.3882 57.4582 29.7902 57.9475 28.9748C58.3824 28.1594 58.1649 27.5614 57.4582 27.5614C56.7516 27.6158 55.8818 28.2138 55.4469 28.9748Z" fill="white"/>
<path d="M73.2249 29.355C72.6813 30.3335 73.0074 31.0946 74.0403 31.1489C75.0731 31.1489 76.3234 30.4423 76.9214 29.4094C77.465 28.4309 77.1388 27.6699 76.0516 27.6155C75.0731 27.6699 73.8228 28.3766 73.2249 29.355Z" fill="white"/>
<path d="M56.8017 33.8666C56.3125 34.7907 56.5299 35.4974 57.3453 35.5518C58.1607 35.5518 59.1936 34.8994 59.6828 33.9753C60.172 33.0512 59.9546 32.3445 59.0848 32.2901C58.3238 32.2358 57.2909 32.9425 56.8017 33.8666Z" fill="white"/>
<path d="M62.0766 24.4089C61.5874 25.2787 61.8048 25.9854 62.6746 25.9854C63.5444 25.9854 64.5772 25.2787 65.1208 24.3545C65.6644 23.4304 65.3926 22.7781 64.5228 22.7781C63.7074 22.8325 62.6202 23.5392 62.0766 24.4089Z" fill="white"/>
<path d="M105.184 20.6037C104.695 21.3104 105.021 21.854 106.054 21.854C107.087 21.854 108.283 21.256 108.826 20.5493C109.37 19.8427 108.989 19.2991 107.957 19.2991C106.924 19.2991 105.728 19.897 105.184 20.6037Z" fill="white"/>
<path d="M50.2818 24.7898C49.8469 25.6052 50.01 26.2031 50.6623 26.2031C51.369 26.2031 52.2931 25.4964 52.728 24.681C53.2172 23.8656 52.9998 23.2133 52.2931 23.2677C51.6951 23.322 50.771 23.9744 50.2818 24.7898Z" fill="white"/>
<path d="M31.9053 41.4237C31.4704 42.2391 31.5791 42.8914 32.0683 42.9458C32.6119 43.0001 33.373 42.4022 33.8079 41.5868C34.2427 40.7714 34.134 40.1191 33.5904 40.0647C33.0468 40.0103 32.3401 40.6083 31.9053 41.4237Z" fill="white"/>
<path d="M33.5974 33.2699C33.2169 34.0309 33.2712 34.6289 33.7604 34.6289C34.3041 34.6289 35.0107 34.0309 35.4456 33.2699C35.8805 32.5089 35.7718 31.9109 35.2825 31.8566C34.7389 31.9109 34.0323 32.5089 33.5974 33.2699Z" fill="white"/>
<path d="M43.8657 25.0607C43.5396 25.7131 43.5939 26.1479 44.0832 26.1479C44.5724 26.1479 45.2247 25.6043 45.6053 25.0064C45.9858 24.354 45.8771 23.8648 45.3335 23.9192C44.8986 23.9192 44.2463 24.4084 43.8657 25.0607Z" fill="white"/>
<path d="M59.5208 29.1924C59.0859 30.0078 59.3033 30.6058 60.01 30.6602C60.7711 30.6602 61.6952 30.0078 62.1844 29.1924C62.6193 28.377 62.4019 27.7247 61.6408 27.7247C60.9341 27.7247 59.9556 28.377 59.5208 29.1924Z" fill="white"/>
<path d="M57.999 24.6804C57.6185 25.3871 57.7816 25.9307 58.4339 25.9307C59.0862 25.9307 59.9016 25.3327 60.3365 24.626C60.717 23.9193 60.554 23.3757 59.9017 23.3757C59.2493 23.4301 58.4339 23.9737 57.999 24.6804Z" fill="white"/>
<path d="M64.8525 20.0599C64.3632 20.821 64.5807 21.4189 65.3961 21.4189C66.1571 21.3646 67.19 20.7123 67.6792 19.9512C68.1684 19.1358 67.8966 18.5922 67.1356 18.5922C66.3202 18.6466 65.3417 19.2989 64.8525 20.0599Z" fill="white"/>
<path d="M54.2493 13.0479C53.8688 13.6459 54.0319 14.0264 54.5211 14.0264C55.0647 13.972 55.7714 13.4284 56.1519 12.8848C56.5324 12.2869 56.3693 11.9063 55.8257 11.9063C55.2821 11.9607 54.6298 12.4499 54.2493 13.0479Z" fill="white"/>
<path d="M31.1998 33.2694C30.8193 33.9217 30.8736 34.4653 31.3085 34.4653C31.7434 34.4653 32.3957 33.9217 32.7762 33.2694C33.1567 32.5627 33.1024 32.0735 32.6675 32.0735C32.1783 32.0735 31.5803 32.6171 31.1998 33.2694Z" fill="white"/>
<path d="M36.3625 33.3242C35.982 34.0309 36.0364 34.5745 36.58 34.6289C37.0692 34.6289 37.7759 34.0853 38.1564 33.3786C38.5369 32.6719 38.4282 32.1284 37.939 32.1284C37.3954 32.074 36.7431 32.6176 36.3625 33.3242Z" fill="white"/>
<path d="M98.5543 19.842C98.0107 20.6574 98.3912 21.2554 99.4784 21.2554C100.566 21.2554 101.87 20.5487 102.468 19.7333C103.066 18.9179 102.631 18.3199 101.544 18.3199C100.457 18.3743 99.1522 19.0266 98.5543 19.842Z" fill="white"/>
<path d="M31.5787 37.1289C31.1982 37.8356 31.2525 38.3792 31.6874 38.4336C32.1223 38.4336 32.7746 37.9443 33.2095 37.2377C33.59 36.531 33.5357 35.9874 33.0464 35.933C32.6115 35.933 31.9592 36.4766 31.5787 37.1289Z" fill="white"/>
<path d="M51.6449 29.1921C51.2644 29.8988 51.4274 30.4424 51.971 30.4424C52.569 30.4424 53.3301 29.8988 53.7106 29.1921C54.0911 28.4854 53.928 27.9418 53.33 27.9418C52.7864 27.9418 52.0254 28.4854 51.6449 29.1921Z" fill="white"/>
<path d="M41.6936 29.2469C41.3674 29.8449 41.4761 30.2798 41.911 30.2798C42.3459 30.2798 42.9438 29.7905 43.27 29.2469C43.5962 28.649 43.4874 28.2141 43.0526 28.2141C42.6177 28.2141 42.0197 28.649 41.6936 29.2469Z" fill="white"/>
<path d="M68.5486 29.302C68.168 30.0087 68.3855 30.5522 69.0922 30.5522C69.7988 30.5522 70.6142 30.0087 71.0491 29.302C71.4296 28.5953 71.2122 28.0517 70.5055 28.0517C69.7988 28.0517 68.9834 28.5953 68.5486 29.302Z" fill="white"/>
<path d="M82.1366 24.3547C81.6473 25.1701 81.9735 25.7681 82.8976 25.7681C83.8217 25.7681 84.9089 25.1157 85.4525 24.3547C85.9418 23.5393 85.6156 22.9413 84.6915 22.9413C83.713 22.9957 82.6258 23.5936 82.1366 24.3547Z" fill="white"/>
<path d="M39.5214 33.3771C39.2496 33.9207 39.304 34.3013 39.6845 34.3013C40.065 34.3013 40.6086 33.9207 40.8804 33.3771C41.1522 32.8335 41.0979 32.453 40.7174 32.3987C40.3368 32.3987 39.7932 32.8335 39.5214 33.3771Z" fill="white"/>
<path d="M100.836 24.7891C100.455 25.4414 100.727 25.9307 101.597 25.9307C102.467 25.9307 103.445 25.4414 103.88 24.7891C104.261 24.1368 103.934 23.6475 103.119 23.6475C102.249 23.7019 101.271 24.1368 100.836 24.7891Z" fill="white"/>
<path d="M52.9457 20.7125C52.5651 21.3648 52.7282 21.854 53.2718 21.854C53.8698 21.7996 54.5765 21.256 55.0113 20.6037C55.3919 19.9514 55.2288 19.4621 54.6852 19.4621C54.0872 19.5165 53.3262 20.0601 52.9457 20.7125Z" fill="white"/>
<path d="M33.429 29.301C33.1028 29.8989 33.1572 30.3882 33.5377 30.3882C33.9183 30.3882 34.5162 29.8989 34.8424 29.301C35.1685 28.703 35.1142 28.2138 34.7337 28.2681C34.3531 28.2138 33.7552 28.703 33.429 29.301Z" fill="white"/>
<path d="M55.9904 5.38273C55.6643 5.87197 55.773 6.19812 56.2079 6.0894C56.6428 6.03504 57.2407 5.60017 57.6212 5.11093C57.9474 4.62168 57.8387 4.29553 57.4038 4.40425C56.9145 4.45861 56.3166 4.89348 55.9904 5.38273Z" fill="white"/>
<path d="M67.7903 15.657C67.3554 16.3637 67.5729 16.853 68.2796 16.7986C68.9862 16.7443 69.9103 16.1463 70.3996 15.494C70.8345 14.7873 70.617 14.298 69.9104 14.3524C69.1493 14.3524 68.2252 14.9504 67.7903 15.657Z" fill="white"/>
<path d="M112.252 17.7767C111.763 18.3747 112.089 18.8095 113.068 18.7552C113.992 18.7552 115.133 18.2659 115.677 17.668C116.166 17.07 115.84 16.6895 114.861 16.6895C113.883 16.7439 112.741 17.1787 112.252 17.7767Z" fill="white"/>
<path d="M91.1074 29.8443C90.7269 30.551 91.053 31.0946 91.8684 31.1489C92.7382 31.1489 93.7167 30.6597 94.1516 29.953C94.5865 29.2463 94.2059 28.7027 93.3905 28.6484C92.5208 28.6484 91.5423 29.1376 91.1074 29.8443Z" fill="white"/>
<path d="M60.9386 20.223C60.6668 20.7123 60.7755 21.0928 61.2647 21.0928C61.754 21.0928 62.3519 20.6579 62.6781 20.1687C63.0043 19.6794 62.8412 19.2989 62.3519 19.2989C61.8627 19.3533 61.2104 19.7338 60.9386 20.223Z" fill="white"/>
<path d="M30.9827 29.5183C30.7109 30.0075 30.7109 30.4424 31.037 30.4424C31.4176 30.4424 31.8524 30.0075 32.1242 29.5183C32.396 28.9747 32.3961 28.5942 32.0155 28.5942C31.6894 28.5942 31.2545 28.9747 30.9827 29.5183Z" fill="white"/>
<path d="M33.1569 25.8226C32.9394 26.2575 32.9394 26.5293 33.2112 26.5293C33.5374 26.5293 33.8635 26.1488 34.1353 25.7139C34.3528 25.279 34.3528 25.0072 34.081 25.0072C33.8092 25.0616 33.4287 25.3877 33.1569 25.8226Z" fill="white"/>
<path d="M82.2476 35.0084C81.9214 35.6608 82.1932 36.15 82.8456 36.2044C83.5522 36.2587 84.3676 35.7695 84.6938 35.1715C85.0199 34.5192 84.7482 34.0299 84.0415 33.9756C83.3892 33.9212 82.5737 34.3561 82.2476 35.0084Z" fill="white"/>
<path d="M73.603 40.1183C73.2768 40.7163 73.4943 41.2599 74.1466 41.3143C74.7989 41.3686 75.5056 40.9338 75.8317 40.2814C76.1579 39.6291 75.8861 39.1399 75.2881 39.0855C74.6902 39.0855 73.9291 39.5204 73.603 40.1183Z" fill="white"/>
<path d="M65.6103 44.9025C65.2841 45.5005 65.5016 46.0441 66.0452 46.0984C66.6431 46.1528 67.2954 45.7179 67.6216 45.12C67.9478 44.522 67.7303 43.9784 67.1324 43.924C66.6431 43.8697 65.9364 44.3046 65.6103 44.9025Z" fill="white"/>
<path d="M30.8772 26.0388C30.6054 26.4737 30.6054 26.7998 30.9316 26.7998C31.2577 26.7998 31.6382 26.4193 31.91 25.9301C32.1818 25.4952 32.1818 25.169 31.8557 25.169C31.4752 25.2777 31.0946 25.6039 30.8772 26.0388Z" fill="white"/>
<path d="M30.9303 23.1587C30.7129 23.5393 30.7128 23.811 30.9846 23.811C31.2564 23.7567 31.5826 23.4849 31.8 23.1044C32.0175 22.7238 32.0175 22.452 31.7457 22.452C31.4739 22.452 31.1477 22.7782 30.9303 23.1587Z" fill="white"/>
<path d="M71.0987 11.2537C70.8269 11.6886 70.9357 12.0147 71.4249 11.9604C71.9141 11.906 72.5121 11.5255 72.8383 11.0906C73.1101 10.6558 73.0014 10.3296 72.5121 10.384C72.0229 10.4383 71.4249 10.8188 71.0987 11.2537Z" fill="white"/>
<path d="M72.244 15.2766C71.8635 15.8202 72.0809 16.2007 72.6789 16.2007C73.2768 16.1463 74.0379 15.7114 74.4184 15.1135C74.7989 14.5699 74.5815 14.1894 73.9835 14.1894C73.3312 14.2981 72.6245 14.733 72.244 15.2766Z" fill="white"/>
<path d="M69.4134 19.8426C69.0873 20.3319 69.2504 20.7124 69.794 20.7124C70.3376 20.7124 70.9899 20.2775 71.3704 19.7339C71.6966 19.1903 71.5335 18.8098 70.9899 18.8641C70.3919 18.9185 69.7396 19.299 69.4134 19.8426Z" fill="white"/>
<path d="M66.6456 24.4627C66.3738 24.952 66.4825 25.3325 66.9718 25.3325C67.461 25.3325 68.059 24.952 68.3308 24.4627C68.6026 23.9735 68.4395 23.593 68.0046 23.593C67.5697 23.593 66.9718 23.9735 66.6456 24.4627Z" fill="white"/>
<path d="M63.9258 29.1928C63.654 29.682 63.8171 30.0625 64.252 30.0625C64.7413 30.0625 65.2849 29.682 65.611 29.1928C65.8828 28.7035 65.7197 28.323 65.2849 28.323C64.7956 28.323 64.1976 28.7035 63.9258 29.1928Z" fill="white"/>
<path d="M75.3392 11.0359C75.0131 11.4708 75.1761 11.797 75.7197 11.7426C76.209 11.6882 76.9157 11.3077 77.1875 10.8728C77.5136 10.4379 77.3505 10.1118 76.8069 10.1662C76.3177 10.2205 75.6654 10.601 75.3392 11.0359Z" fill="white"/>
<path d="M78.712 6.52443C78.4402 6.90495 78.5489 7.17676 79.0382 7.17676C79.5274 7.1224 80.1254 6.79622 80.4515 6.4157C80.7777 6.03518 80.6146 5.76339 80.1254 5.81775C79.6362 5.81775 79.0382 6.14391 78.712 6.52443Z" fill="white"/>
<path d="M36.0396 29.3553C35.7678 29.8446 35.7678 30.2251 36.1483 30.2251C36.5289 30.2251 36.9637 29.7902 37.2355 29.301C37.5073 28.8117 37.5074 28.4312 37.1268 28.4312C36.8007 28.4855 36.3658 28.8661 36.0396 29.3553Z" fill="white"/>
<path d="M47.9422 58.9814C47.3986 60.1229 47.6704 61.2101 48.5946 61.4819C49.5187 61.6994 50.7146 60.9383 51.2582 59.7968C51.8018 58.6008 51.53 57.5136 50.5515 57.2962C49.6274 57.0788 48.4858 57.8398 47.9422 58.9814Z" fill="white"/>
<path d="M45.1212 64.0379C44.4689 65.5057 44.7407 66.919 45.8823 67.2452C47.0238 67.5714 48.4915 66.6472 49.1982 65.1251C49.9049 63.6031 49.5244 62.1897 48.3828 61.9179C47.1869 61.6461 45.8279 62.5702 45.1212 64.0379Z" fill="white"/>
<path d="M9.3502 97.9038C9.622 97.0884 10.1112 96.7079 10.4918 96.9797C10.8723 97.2515 10.9266 98.1212 10.7092 98.9366C10.4374 99.752 9.94816 100.133 9.56764 99.8607C9.18712 99.5346 9.0784 98.6648 9.3502 97.9038Z" fill="white"/>
<path d="M11.0884 92.3047C11.4689 91.3806 12.0669 90.8914 12.5561 91.1632C12.991 91.4893 13.0997 92.4678 12.7735 93.4463C12.393 94.4248 11.7951 94.914 11.3058 94.5878C10.8166 94.2617 10.7622 93.2288 11.0884 92.3047Z" fill="white"/>
<path d="M55.2803 94.4246C55.6608 93.5549 56.4218 93.12 57.1829 93.4461C57.8895 93.7723 58.2157 94.7508 57.8895 95.6749C57.509 96.599 56.6936 97.0339 55.9869 96.6534C55.2259 96.2728 54.9541 95.2944 55.2803 94.4246Z" fill="white"/>
<path d="M51.2651 86.4339C51.7543 85.238 52.8959 84.5857 53.8744 84.9662C54.8528 85.4011 55.2334 86.6514 54.7441 87.9017C54.2005 89.152 53.059 89.7499 52.0805 89.3694C51.1564 88.9345 50.7758 87.6299 51.2651 86.4339Z" fill="white"/>
<path d="M48.9217 78.3885C49.4653 77.1382 50.6613 76.4315 51.6941 76.7577C52.7269 77.1382 53.0531 78.4428 52.5095 79.7475C51.9115 81.0521 50.7156 81.7588 49.6828 81.3783C48.7587 80.9434 48.4325 79.6931 48.9217 78.3885Z" fill="white"/>
<path d="M23.3224 63.3844C23.866 62.2972 24.7358 61.6449 25.3881 61.808C26.0404 62.0254 26.1491 63.0039 25.6055 64.1455C25.0619 65.2327 24.1378 65.9394 23.4855 65.7219C22.8875 65.5045 22.8332 64.4716 23.3224 63.3844Z" fill="white"/>
<path d="M15.6511 88.7715C16.0316 87.7387 16.7383 87.2495 17.2819 87.5213C17.8255 87.8474 17.9342 88.8803 17.5537 89.9131C17.1731 90.946 16.4665 91.4896 15.9229 91.1634C15.3793 90.8372 15.2705 89.8044 15.6511 88.7715Z" fill="white"/>
<path d="M17.6083 83.6068C18.0431 82.574 18.8042 82.0304 19.3478 82.3022C19.8914 82.6283 20.0001 83.6612 19.6196 84.694C19.1847 85.7268 18.4237 86.3248 17.8801 85.9987C17.2821 85.7269 17.1734 84.6396 17.6083 83.6068Z" fill="white"/>
<path d="M24.5697 75.0174C25.059 73.8759 25.9831 73.2236 26.6898 73.4954C27.3421 73.8215 27.5052 74.9087 27.016 76.0503C26.4724 77.1919 25.6026 77.8442 24.8959 77.5724C24.1892 77.3006 24.0805 76.159 24.5697 75.0174Z" fill="white"/>
<path d="M19.5659 78.6058C20.0552 77.5186 20.8706 76.8662 21.5229 77.138C22.1208 77.4642 22.2839 78.5514 21.7947 79.693C21.3054 80.8345 20.4357 81.4868 19.7834 81.1607C19.1854 80.8345 19.0767 79.7473 19.5659 78.6058Z" fill="white"/>
<path d="M21.6869 73.6593C22.2305 72.5178 23.1546 71.8111 23.8613 72.0829C24.5679 72.3547 24.6767 73.4963 24.1331 74.6922C23.5895 75.8881 22.6653 76.5948 21.9587 76.2686C21.3063 75.9424 21.1976 74.8009 21.6869 73.6593Z" fill="white"/>
<path d="M26.6913 70.1255C27.2893 68.9296 28.2678 68.1686 29.0288 68.4404C29.7899 68.7122 29.9529 69.9081 29.4093 71.1584C28.8114 72.4087 27.7785 73.1153 27.0175 72.8435C26.2564 72.5174 26.1477 71.3214 26.6913 70.1255Z" fill="white"/>
<path d="M46.9122 70.9419C47.5102 69.6916 48.6518 68.9849 49.6846 69.2567C50.6631 69.5829 50.9892 70.7788 50.4456 72.0835C49.8477 73.3881 48.6517 74.0948 47.6189 73.7686C46.6948 73.4424 46.3686 72.2465 46.9122 70.9419Z" fill="white"/>
<path d="M42.784 69.6905C43.4364 68.3315 44.6866 67.5704 45.6651 67.8422C46.698 68.1684 47.0241 69.4731 46.3718 70.8864C45.7195 72.2998 44.4692 73.0608 43.4364 72.7346C42.4579 72.3541 42.1861 71.0495 42.784 69.6905Z" fill="white"/>
<path d="M38.8685 68.4952C39.5752 67.0274 40.8798 66.1577 41.9127 66.4838C42.9455 66.81 43.2717 68.2234 42.6194 69.6911C41.9127 71.2132 40.5537 72.0829 39.5208 71.7024C38.488 71.3763 38.2162 69.9629 38.8685 68.4952Z" fill="white"/>
<path d="M35.2283 67.3529C35.8807 65.9395 37.1309 65.1241 38.1094 65.3959C39.0879 65.7221 39.3597 67.0267 38.7074 68.4944C38.0007 69.9622 36.7504 70.7776 35.7719 70.5058C34.7935 70.1253 34.576 68.7663 35.2283 67.3529Z" fill="white"/>
<path d="M32.0154 66.3747C32.6134 65.1244 33.7006 64.4177 34.516 64.6352C35.3314 64.907 35.5488 66.0485 34.9509 67.2988C34.3529 68.5491 33.2657 69.3101 32.3959 69.0383C31.6349 68.7665 31.4718 67.5706 32.0154 66.3747Z" fill="white"/>
<path d="M28.8596 65.1796C29.5119 63.875 30.6535 63.0596 31.5232 63.277C32.393 63.5488 32.5561 64.7991 31.9038 66.1581C31.2514 67.5171 30.0555 68.3325 29.2401 68.0607C28.3703 67.7889 28.2073 66.5386 28.8596 65.1796Z" fill="white"/>
<path d="M25.9303 64.2003C26.5826 62.8957 27.6698 62.1346 28.4852 62.3521C29.3006 62.6239 29.4093 63.8198 28.8113 65.1244C28.159 66.4291 27.0718 67.2445 26.2564 67.027C25.441 66.7009 25.3323 65.505 25.9303 64.2003Z" fill="white"/>
<path d="M25.2793 53.9806C25.7141 53.1109 26.4752 52.5673 26.9644 52.6216C27.508 52.7303 27.5624 53.4914 27.1275 54.3612C26.6926 55.2309 25.9316 55.8289 25.388 55.7202C24.8987 55.6114 24.8444 54.8504 25.2793 53.9806Z" fill="white"/>
<path d="M22.8808 53.3287C23.3156 52.5676 23.968 52.024 24.4028 52.0783C24.8377 52.1871 24.8921 52.8938 24.5116 53.6548C24.0767 54.4702 23.4244 54.9594 22.9351 54.9051C22.5546 54.7964 22.5002 54.0897 22.8808 53.3287Z" fill="white"/>
<path d="M20.7109 52.6223C21.0914 51.9699 21.635 51.4807 22.0155 51.5351C22.396 51.6438 22.396 52.1874 22.0699 52.8941C21.6894 53.6008 21.1458 54.0356 20.7652 53.9813C20.3847 53.8726 20.3847 53.3289 20.7109 52.6223Z" fill="white"/>
<path d="M18.5878 52.0235C18.914 51.4255 19.4032 50.9906 19.7294 51.045C20.1099 51.1537 20.0555 51.6429 19.7294 52.2953C19.4032 52.8932 18.914 53.3281 18.5335 53.2737C18.2617 53.165 18.2617 52.6214 18.5878 52.0235Z" fill="white"/>
<path d="M16.6856 51.4803C17.0118 50.9367 17.3923 50.5018 17.7728 50.5561C18.099 50.6105 18.0446 51.0997 17.7728 51.6977C17.4467 52.2957 17.0118 52.6762 16.6856 52.6218C16.3595 52.5131 16.4138 52.0239 16.6856 51.4803Z" fill="white"/>
<path d="M14.8966 50.9368C15.1684 50.4475 15.5489 50.067 15.8207 50.1214C16.0925 50.1757 16.0381 50.6106 15.8207 51.0998C15.5489 51.5891 15.1684 51.9696 14.8966 51.9152C14.5704 51.8609 14.6248 51.426 14.8966 50.9368Z" fill="white"/>
<path d="M13.3737 50.4474C13.6455 49.9582 13.9716 49.632 14.2434 49.6864C14.5152 49.7407 14.4609 50.1213 14.1891 50.6105C13.9173 51.0998 13.5911 51.4259 13.3193 51.3715C13.0475 51.3172 13.1019 50.9366 13.3737 50.4474Z" fill="white"/>
<path d="M11.7943 49.958C12.0118 49.5231 12.3379 49.2513 12.5554 49.3057C12.7728 49.36 12.7185 49.6862 12.501 50.1211C12.2836 50.5559 11.9574 50.8277 11.74 50.7734C11.5225 50.719 11.5769 50.3929 11.7943 49.958Z" fill="white"/>
<path d="M55.1192 60.6666C54.6843 61.5908 53.7602 62.1343 52.9991 61.9713C52.2924 61.7538 52.0206 60.9384 52.4555 60.0143C52.8904 59.1445 53.8145 58.5466 54.5212 58.7096C55.2823 58.9271 55.5541 59.7425 55.1192 60.6666Z" fill="white"/>
<path d="M59.9024 61.6452C59.4675 62.515 58.5977 63.0586 57.8367 62.8955C57.13 62.678 56.8582 61.917 57.2387 61.0472C57.6736 60.1775 58.5434 59.6339 59.3044 59.7969C60.0654 60.0144 60.3372 60.7754 59.9024 61.6452Z" fill="white"/>
<path d="M65.0134 62.624C64.6329 63.4938 63.7088 63.983 62.8934 63.8199C62.1324 63.6025 61.8606 62.8414 62.2411 61.9717C62.6216 61.1019 63.5457 60.6127 64.3068 60.7758C65.1222 60.9388 65.394 61.7543 65.0134 62.624Z" fill="white"/>
<path d="M70.5568 63.4395C70.1763 64.2549 69.3066 64.7441 68.5455 64.5811C67.7845 64.3636 67.5127 63.6026 67.8388 62.7872C68.2194 61.9718 69.0891 61.5369 69.8502 61.7C70.6112 61.8631 70.9374 62.6241 70.5568 63.4395Z" fill="white"/>
<path d="M76.5924 64.581C76.2662 65.3421 75.3964 65.7769 74.6354 65.6139C73.8743 65.3964 73.6025 64.6898 73.9287 63.9287C74.2549 63.1677 75.1246 62.7328 75.8313 62.8959C76.538 63.0589 76.9185 63.82 76.5924 64.581Z" fill="white"/>
<path d="M83.384 65.7225C83.0579 66.4292 82.2425 66.8097 81.4814 66.6466C80.7748 66.4292 80.4486 65.7768 80.7204 65.0702C81.0465 64.3635 81.8076 63.983 82.5686 64.146C83.384 64.3635 83.7102 65.0158 83.384 65.7225Z" fill="white"/>
<path d="M23.9175 68.8755C24.4611 67.7339 25.3852 67.0816 26.0375 67.299C26.6899 67.5708 26.8529 68.6037 26.3093 69.7453C25.7657 70.8868 24.8416 71.5935 24.1349 71.3217C23.537 71.0499 23.4282 70.0171 23.9175 68.8755Z" fill="white"/>
<path d="M29.9523 71.3756C30.4416 70.3427 31.3113 69.7448 31.9637 69.9622C32.616 70.234 32.7791 71.2125 32.2898 72.2453C31.8006 73.2782 30.9308 73.8761 30.2785 73.6587C29.6262 73.3869 29.5175 72.4084 29.9523 71.3756Z" fill="white"/>
<path d="M33.1033 72.5712C33.6469 71.4296 34.6254 70.723 35.4408 70.9948C36.2018 71.2666 36.4193 72.4081 35.93 73.604C35.3864 74.8 34.3536 75.4523 33.5926 75.1805C32.7772 74.8543 32.6141 73.7128 33.1033 72.5712Z" fill="white"/>
<path d="M44.521 76.8117C45.0646 75.6702 46.0974 75.0179 46.9672 75.2897C47.837 75.6158 48.1088 76.7574 47.6195 77.9533C47.0759 79.1493 46.0431 79.8016 45.1189 79.4754C44.3035 79.1492 44.0318 78.0077 44.521 76.8117Z" fill="white"/>
<path d="M12.8857 87.1402C13.3206 86.053 14.0817 85.5095 14.6253 85.8356C15.1689 86.1618 15.2776 87.3034 14.8427 88.3906C14.4078 89.4778 13.6468 90.0757 13.0488 89.6952C12.5596 89.3147 12.4508 88.2275 12.8857 87.1402Z" fill="white"/>
<path d="M56.6443 88.5533C57.1336 87.4117 58.2208 86.8681 59.1449 87.1943C60.1234 87.6292 60.5039 88.8251 60.069 89.9666C59.5798 91.1082 58.4926 91.7062 57.5141 91.2713C56.59 90.8908 56.2094 89.6949 56.6443 88.5533Z" fill="white"/>
<path d="M59.8493 96.545C60.2841 95.4034 61.3713 94.8598 62.3498 95.2947C63.3283 95.7839 63.7632 97.0342 63.3283 98.1758C62.8934 99.3717 61.7519 99.861 60.7734 99.4261C59.8493 98.9368 59.4144 97.6866 59.8493 96.545Z" fill="white"/>
<path d="M53.9252 80.2369C54.4688 79.041 55.556 78.3886 56.5889 78.7692C57.5674 79.1497 57.9479 80.3456 57.4586 81.5415C56.915 82.7374 55.7735 83.3898 54.7406 83.0093C53.8165 82.6287 53.436 81.4328 53.9252 80.2369Z" fill="white"/>
<path d="M51.7474 72.5174C52.2367 71.4302 53.3239 70.7779 54.248 70.9954C55.1721 71.3215 55.4983 72.4087 55.009 73.5503C54.4654 74.6918 53.3782 75.3442 52.4541 75.0724C51.53 74.7462 51.2582 73.659 51.7474 72.5174Z" fill="white"/>
<path d="M49.5768 65.396C50.1204 64.2001 51.3163 63.4934 52.2404 63.7109C53.2189 63.9827 53.545 65.1242 53.0014 66.3201C52.4035 67.5161 51.2619 68.2228 50.2834 68.0053C49.3049 67.6792 49.0331 66.5919 49.5768 65.396Z" fill="white"/>
<path d="M40.4934 75.3977C40.9827 74.3105 41.9611 73.7126 42.7222 73.9844C43.4832 74.3105 43.755 75.3434 43.2658 76.4306C42.7766 77.5178 41.7981 78.1157 40.9827 77.8439C40.276 77.5178 40.0585 76.4306 40.4934 75.3977Z" fill="white"/>
<path d="M20.8183 62.5689C21.3076 61.6448 22.0686 61.0468 22.6122 61.1556C23.1558 61.3186 23.2102 62.1884 22.7753 63.1669C22.286 64.1454 21.525 64.7433 20.927 64.5802C20.4378 64.4172 20.3834 63.5474 20.8183 62.5689Z" fill="white"/>
<path d="M15.2193 82.0844C15.5998 81.2147 16.1978 80.7798 16.687 80.9972C17.1219 81.269 17.1763 82.1388 16.7958 83.0086C16.4152 83.8783 15.7629 84.3676 15.328 84.0958C14.8932 83.824 14.8388 82.9542 15.2193 82.0844Z" fill="white"/>
<path d="M31.1451 77.845C31.5799 76.9209 32.341 76.3773 32.9389 76.6491C33.5369 76.9209 33.7 77.845 33.3195 78.7691C32.8846 79.6932 32.1235 80.2368 31.5256 79.965C30.8732 79.6932 30.7102 78.7691 31.1451 77.845Z" fill="white"/>
<path d="M46.5328 84.4766C47.022 83.3351 48.1092 82.6828 48.979 83.0089C49.9031 83.3894 50.2293 84.5853 49.74 85.7813C49.2508 86.9772 48.1636 87.6295 47.2395 87.249C46.3697 86.8685 46.0436 85.6726 46.5328 84.4766Z" fill="white"/>
<path d="M36.9631 74.0392C37.4523 73.0063 38.3221 72.4084 39.0831 72.6258C39.7898 72.8976 40.0073 73.9305 39.5724 74.9633C39.0831 75.9962 38.159 76.6485 37.398 76.3767C36.6913 76.1049 36.4738 75.072 36.9631 74.0392Z" fill="white"/>
<path d="M32.2317 84.8572C32.6666 83.77 33.5363 83.172 34.2974 83.4982C35.0041 83.8243 35.2215 84.9659 34.7866 86.0531C34.3517 87.1403 33.4276 87.7382 32.7209 87.4121C32.0143 87.0859 31.7968 85.9444 32.2317 84.8572Z" fill="white"/>
<path d="M63.2712 103.502C63.5973 102.687 64.304 102.36 65.065 102.687C65.7717 103.067 66.0979 103.991 65.8261 104.807C65.4999 105.622 64.7389 105.948 64.0322 105.622C63.3255 105.242 62.9994 104.317 63.2712 103.502Z" fill="white"/>
<path d="M22.5067 80.182C22.9416 79.2035 23.7026 78.6599 24.3006 78.8774C24.8985 79.1492 25.0073 80.1276 24.5724 81.1605C24.1375 82.1933 23.3765 82.7369 22.7785 82.4651C22.1805 82.139 22.0718 81.1605 22.5067 80.182Z" fill="white"/>
<path d="M23.1596 58.2209C23.5945 57.4055 24.3012 56.8075 24.7904 56.9706C25.2797 57.1337 25.334 57.8947 24.8992 58.7101C24.4643 59.5799 23.7576 60.1235 23.214 59.9604C22.7791 59.7973 22.7247 59.0363 23.1596 58.2209Z" fill="white"/>
<path d="M14.7863 70.5063C15.0581 69.854 15.493 69.4191 15.8192 69.5279C16.1453 69.6366 16.2541 70.1802 15.9823 70.8325C15.7105 71.4848 15.2756 71.9197 14.8951 71.811C14.6233 71.7023 14.5145 71.1587 14.7863 70.5063Z" fill="white"/>
<path d="M17.1745 77.4108C17.5007 76.6498 18.0986 76.2149 18.4792 76.4323C18.8597 76.6498 18.9684 77.3564 18.6422 78.1718C18.3161 78.9329 17.7181 79.3678 17.3376 79.2047C16.9027 78.9329 16.8484 78.1719 17.1745 77.4108Z" fill="white"/>
<path d="M34.736 79.4758C35.1708 78.5517 35.9319 78.0081 36.5842 78.2256C37.2365 78.4974 37.3996 79.4758 37.0191 80.4543C36.5842 81.4328 35.7688 81.9764 35.1165 81.7046C34.5185 81.3784 34.3554 80.4 34.736 79.4758Z" fill="white"/>
<path d="M29.0272 83.1713C29.4077 82.3016 30.0601 81.8667 30.6037 82.0841C31.1473 82.3559 31.256 83.2257 30.9298 84.0955C30.5493 84.9652 29.897 85.4545 29.3534 85.1827C28.8098 84.9109 28.7011 84.0411 29.0272 83.1713Z" fill="white"/>
<path d="M30.2764 90.5652C30.6569 89.5323 31.4179 89.0431 32.0703 89.3692C32.6682 89.6954 32.8857 90.7826 32.5052 91.7611C32.1246 92.7939 31.3636 93.3375 30.7113 92.957C30.0589 92.6308 29.8959 91.598 30.2764 90.5652Z" fill="white"/>
<path d="M14.0251 94.0442C14.2969 93.2288 14.8405 92.8482 15.2211 93.12C15.6016 93.3918 15.7103 94.2072 15.4385 95.0226C15.1667 95.838 14.6231 96.2729 14.1882 96.0011C13.8621 95.675 13.7533 94.8596 14.0251 94.0442Z" fill="white"/>
<path d="M12.5564 69.4195C12.8282 68.7128 13.3174 68.2779 13.698 68.3323C14.0785 68.441 14.1328 69.0389 13.861 69.7456C13.5892 70.4523 13.1 70.8872 12.7195 70.8328C12.3933 70.7241 12.2846 70.1262 12.5564 69.4195Z" fill="white"/>
<path d="M18.8043 66.9729C19.2392 66.1032 19.8915 65.6139 20.3808 65.777C20.87 65.9944 20.9244 66.7555 20.4895 67.6253C20.0546 68.495 19.3479 69.0386 18.9131 68.8212C18.4238 68.6038 18.4238 67.8427 18.8043 66.9729Z" fill="white"/>
<path d="M16.4664 65.9943C16.847 65.2332 17.4449 64.7983 17.8798 64.9071C18.3147 65.0701 18.3147 65.7224 17.9341 66.4835C17.5536 67.2445 16.9557 67.7338 16.5208 67.5707C16.0859 67.4076 16.0859 66.7009 16.4664 65.9943Z" fill="white"/>
<path d="M28.0497 76.5405C28.4302 75.7251 29.0826 75.2902 29.5718 75.4533C30.0611 75.6708 30.2241 76.4862 29.8436 77.3016C29.4631 78.117 28.8108 78.6062 28.3215 78.3888C27.8323 78.1713 27.7236 77.3559 28.0497 76.5405Z" fill="white"/>
<path d="M19.4603 72.5716C19.7864 71.9193 20.2757 71.5388 20.6562 71.6475C21.0367 71.8106 21.0911 72.4629 20.7649 73.1152C20.4387 73.7675 19.9495 74.2024 19.569 74.0393C19.1885 73.8763 19.1341 73.2783 19.4603 72.5716Z" fill="white"/>
<path d="M42.5109 82.7371C42.837 81.9217 43.5981 81.4868 44.196 81.7042C44.794 81.976 45.0114 82.7915 44.6853 83.6612C44.3048 84.4766 43.5981 84.9658 43.0001 84.694C42.4022 84.4222 42.1847 83.6068 42.5109 82.7371Z" fill="white"/>
<path d="M21.6318 68.1145C21.9036 67.5165 22.3929 67.1904 22.719 67.2991C23.0452 67.4078 23.0995 68.0058 22.8277 68.6038C22.5559 69.2017 22.0667 69.5822 21.6862 69.4192C21.4144 69.2561 21.36 68.6581 21.6318 68.1145Z" fill="white"/>
<path d="M18.5863 61.9719C18.9125 61.3195 19.5104 60.8847 19.891 60.939C20.2715 61.0478 20.3258 61.6457 19.9453 62.298C19.5648 62.9504 19.0212 63.3852 18.6407 63.3309C18.3145 63.2222 18.2602 62.6242 18.5863 61.9719Z" fill="white"/>
<path d="M20.549 85.4562C20.8752 84.6408 21.4731 84.2059 21.9624 84.4234C22.3973 84.6952 22.506 85.5106 22.1798 86.3804C21.8537 87.2501 21.2557 87.685 20.7665 87.4132C20.3316 87.087 20.2229 86.2716 20.549 85.4562Z" fill="white"/>
<path d="M7.55317 103.394C7.77062 102.741 8.15113 102.415 8.47729 102.687C8.74909 102.959 8.85782 103.666 8.64038 104.372C8.42294 105.079 8.04241 105.351 7.71625 105.079C7.44445 104.807 7.33573 104.1 7.55317 103.394Z" fill="white"/>
<path d="M28.2628 96.3819C28.589 95.4577 29.2957 94.9685 29.8393 95.2946C30.3829 95.6208 30.6003 96.6537 30.2741 97.5778C29.948 98.5019 29.2413 98.9911 28.6977 98.665C28.0997 98.3388 27.9366 97.3603 28.2628 96.3819Z" fill="white"/>
<path d="M68.5453 105.514C68.8171 104.753 69.5782 104.481 70.2305 104.807C70.9372 105.188 71.2634 106.058 70.9916 106.819C70.7198 107.58 69.9587 107.852 69.252 107.525C68.5997 107.145 68.2735 106.275 68.5453 105.514Z" fill="white"/>
<path d="M71.59 111.385C71.8074 110.733 72.4598 110.461 73.0577 110.787C73.6557 111.113 73.9275 111.929 73.7101 112.581C73.4926 113.234 72.8403 113.505 72.2423 113.179C71.6444 112.853 71.3726 112.038 71.59 111.385Z" fill="white"/>
<path d="M61.8611 90.6188C62.2416 89.7491 63.057 89.3685 63.8181 89.6403C64.5791 89.9665 64.9053 90.8906 64.5791 91.7604C64.1986 92.6301 63.3832 93.065 62.6222 92.7389C61.8068 92.4127 61.535 91.4886 61.8611 90.6188Z" fill="white"/>
<path d="M65.283 98.6642C65.6635 97.7945 66.4789 97.414 67.24 97.6858C68.001 98.0119 68.3272 98.936 68.001 99.8058C67.6205 100.676 66.8051 101.11 66.044 100.784C65.2286 100.404 64.9568 99.4796 65.283 98.6642Z" fill="white"/>
<path d="M27.1208 88.7716C27.3926 88.1193 27.8275 87.7932 28.2624 88.0106C28.6429 88.2281 28.7516 88.8804 28.5342 89.5327C28.2624 90.185 27.7732 90.5112 27.3926 90.2938C26.9578 90.0763 26.849 89.424 27.1208 88.7716Z" fill="white"/>
<path d="M9.29357 72.2456C9.51101 71.702 9.83718 71.3215 10.1633 71.4302C10.4351 71.5389 10.4351 72.0282 10.2177 72.5718C10.0003 73.1154 9.61973 73.4959 9.34793 73.3872C9.07613 73.2784 9.07613 72.7892 9.29357 72.2456Z" fill="white"/>
<path d="M59.1926 82.1391C59.5187 81.4325 60.2254 81.0519 60.8777 81.2694C61.53 81.4868 61.7475 82.2478 61.4757 83.0089C61.1495 83.7156 60.4428 84.1504 59.7905 83.8786C59.1382 83.6068 58.9208 82.9002 59.1926 82.1391Z" fill="white"/>
<path d="M56.5304 74.2575C56.8566 73.5509 57.5089 73.1703 58.1069 73.3878C58.7048 73.6052 58.9223 74.2575 58.5961 74.9642C58.2699 75.6709 57.6176 76.0514 57.0197 75.834C56.4217 75.6165 56.2042 74.9099 56.5304 74.2575Z" fill="white"/>
<path d="M54.8993 66.9186C55.2255 66.2663 55.8235 65.8857 56.4214 66.0488C56.965 66.2119 57.1825 66.8099 56.8563 67.4622C56.5301 68.1145 55.8778 68.495 55.3342 68.332C54.7906 68.1689 54.5732 67.5709 54.8993 66.9186Z" fill="white"/>
<path d="M26.6361 102.687C26.8535 102.034 27.234 101.763 27.6146 101.98C27.9951 102.252 28.1038 102.904 27.9407 103.557C27.7233 104.209 27.3427 104.481 26.9622 104.263C26.5273 104.046 26.4186 103.339 26.6361 102.687Z" fill="white"/>
<path d="M31.2013 98.5562C31.4731 97.7952 32.0166 97.4147 32.5059 97.6865C32.9951 97.9583 33.1582 98.7737 32.8864 99.5891C32.6146 100.35 32.071 100.731 31.5818 100.459C31.0925 100.133 30.9294 99.3173 31.2013 98.5562Z" fill="white"/>
<path d="M33.8673 92.5765C34.1391 91.9242 34.6283 91.5437 35.1175 91.7611C35.5524 91.9786 35.7155 92.6852 35.4437 93.3919C35.1719 94.0986 34.6283 94.4248 34.1934 94.2073C33.7585 93.9899 33.5955 93.2832 33.8673 92.5765Z" fill="white"/>
<path d="M36.2046 86.7056C36.4764 86.1076 36.9656 85.7814 37.3461 85.9989C37.7267 86.2163 37.8897 86.8143 37.6179 87.4122C37.3461 88.0102 36.8569 88.3364 36.4764 88.1189C36.0959 87.9015 35.9871 87.3035 36.2046 86.7056Z" fill="white"/>
<path d="M38.5389 81.1068C38.8107 80.5089 39.2999 80.2371 39.6805 80.4001C40.1153 80.5632 40.2241 81.1612 39.9523 81.7592C39.6805 82.3571 39.1912 82.6833 38.7563 82.5202C38.4302 82.2484 38.3215 81.7048 38.5389 81.1068Z" fill="white"/>
<path d="M10.7636 68.4401C10.9811 67.8965 11.3072 67.5704 11.579 67.6247C11.8508 67.7334 11.9052 68.1683 11.6878 68.7119C11.4703 69.2555 11.1442 69.5817 10.8724 69.5273C10.6006 69.4186 10.6006 68.9294 10.7636 68.4401Z" fill="white"/>
<path d="M7.55375 71.2125C7.77119 70.7232 8.04299 70.4515 8.31479 70.5058C8.58659 70.5602 8.58659 70.995 8.36915 71.4843C8.15171 71.9735 7.8799 72.2997 7.6081 72.191C7.39066 72.0822 7.39067 71.6474 7.55375 71.2125Z" fill="white"/>
<path d="M4.78247 74.0935C4.94555 73.6587 5.21734 73.3869 5.43478 73.4412C5.65222 73.4956 5.70658 73.8761 5.48914 74.311C5.32606 74.7459 5.05427 75.0177 4.78247 74.9633C4.61939 74.909 4.61939 74.5284 4.78247 74.0935Z" fill="white"/>
<path d="M14.5702 65.2329C14.842 64.6893 15.2769 64.3088 15.6031 64.4175C15.9292 64.5262 15.9293 65.0155 15.6575 65.5591C15.3857 66.1027 14.9508 66.4832 14.6246 66.3745C14.2441 66.2658 14.2441 65.7765 14.5702 65.2329Z" fill="white"/>
<path d="M29.406 104.753C29.6234 104.101 30.0583 103.829 30.4388 104.046C30.8193 104.318 30.9824 105.025 30.765 105.677C30.5475 106.329 30.1127 106.656 29.7321 106.384C29.3516 106.112 29.1885 105.405 29.406 104.753Z" fill="white"/>
<path d="M27.8296 110.57C27.9927 109.972 28.3732 109.7 28.7537 109.918C29.0799 110.189 29.243 110.842 29.0799 111.494C28.9168 112.146 28.5363 112.418 28.1558 112.146C27.8296 111.875 27.6665 111.168 27.8296 110.57Z" fill="white"/>
<path d="M25.6564 61.3745C26.3087 61.5376 27.2328 60.994 27.8851 59.9612C27.5046 61.1571 27.6677 62.1356 28.4287 62.353C29.0811 62.5161 29.9508 62.0812 30.6575 61.2115C30.4401 62.1899 30.7119 63.0053 31.4185 63.2228C32.2339 63.4402 33.3211 62.7879 34.0822 61.7007C33.7017 62.951 33.9735 63.9838 34.8432 64.2556C35.5499 64.4731 36.474 64.0382 37.1807 63.2228C37.072 64.2012 37.3982 65.0167 38.1592 65.2341C39.029 65.4515 40.0074 64.9623 40.8228 63.9838C40.6598 65.1254 40.9859 66.0495 41.91 66.3213C43.106 66.6475 44.628 65.669 45.3891 64.0382C45.9871 62.7335 45.8783 61.5376 45.1717 60.9397C46.2045 60.7766 47.3461 59.9068 47.9984 58.6021C48.542 57.4606 48.4876 56.4821 47.9984 55.8298C48.9225 55.5036 49.8466 54.6882 50.3902 53.601C50.9338 52.5138 50.8795 51.5353 50.3902 50.9374C51.3687 50.6112 52.2385 49.7415 52.8364 48.7086C53.38 47.6214 53.3257 46.6429 52.7821 46.045C53.7606 45.6644 54.739 44.849 55.337 43.7618C56.0981 42.2397 55.7175 40.9895 54.4672 40.8808C53.5431 40.8264 52.4016 41.4244 51.5862 42.3485C51.7492 41.3156 51.3687 40.609 50.499 40.5546C49.6836 40.5002 48.7051 40.9895 47.944 41.8049C48.0527 40.9351 47.6722 40.3371 46.9112 40.2284C45.9871 40.1741 44.8455 40.8808 44.0301 41.968C44.4106 40.8264 44.0844 40.011 43.2147 39.9023C42.4536 39.8479 41.5295 40.3915 40.8228 41.2069C40.9859 40.3371 40.7141 39.6848 40.0074 39.6305C39.192 39.5761 38.1048 40.2828 37.3982 41.37C37.7243 40.3915 37.5612 39.6848 36.8546 39.5761C36.0392 39.5217 34.9519 40.3915 34.2996 41.5331C33.756 42.5659 33.8104 43.3813 34.2996 43.7075C33.5386 43.8706 32.6688 44.6316 32.1252 45.6101C31.636 46.5886 31.636 47.404 32.0709 47.7845C31.2554 47.9476 30.3313 48.763 29.7877 49.8502C29.2441 50.9917 29.2441 51.9702 29.7334 52.3507C29.0267 52.5138 28.2113 53.2205 27.6677 54.2533C27.0697 55.5036 27.1241 56.5365 27.8851 56.7539C27.1241 56.5908 26.0912 57.4606 25.4389 58.6565C24.841 60.0155 24.9497 61.1027 25.6564 61.3745ZM48.7594 45.5557C49.0856 44.9577 49.6836 44.5772 50.1728 44.5772C50.662 44.6316 50.7708 45.1208 50.499 45.7732C50.1728 46.3711 49.5748 46.806 49.0856 46.7516C48.5963 46.6973 48.4333 46.1537 48.7594 45.5557ZM46.4763 50.285C46.7481 49.7414 47.2917 49.4153 47.6722 49.4696C48.1071 49.524 48.2158 50.0133 47.944 50.5569C47.6722 51.1005 47.1286 51.481 46.6937 51.3723C46.3132 51.2635 46.2045 50.8287 46.4763 50.285ZM44.0844 55.0144C44.3562 54.4708 44.8999 54.0903 45.2804 54.199C45.7153 54.3077 45.824 54.7969 45.5522 55.3405C45.2804 55.8841 44.7368 56.2647 44.3562 56.1559C43.9757 56.0472 43.867 55.558 44.0844 55.0144ZM42.8342 59.3089C43.2691 59.4176 43.4321 60.0155 43.106 60.6135C42.7798 61.2658 42.1819 61.6463 41.747 61.5376C41.3121 61.4289 41.2034 60.8309 41.4752 60.233C41.8013 59.5806 42.3449 59.2001 42.8342 59.3089ZM45.4435 44.9578C45.7153 44.4685 46.2045 44.088 46.6394 44.1424C47.0199 44.1967 47.1286 44.6316 46.8568 45.1752C46.585 45.7188 46.0414 46.045 45.6609 46.045C45.2804 45.9362 45.1717 45.5014 45.4435 44.9578ZM38.2136 59.4175C38.4854 58.8739 38.9746 58.5478 39.3551 58.6021C39.7356 58.7109 39.8444 59.2001 39.5726 59.7437C39.3008 60.2873 38.8115 60.6135 38.431 60.5591C38.0505 60.4504 37.9418 59.9612 38.2136 59.4175ZM41.9644 44.5772C42.2362 44.088 42.7255 43.7075 43.106 43.7618C43.4865 43.8162 43.5952 44.2511 43.3234 44.7403C43.0516 45.2295 42.5624 45.6101 42.1818 45.5557C41.747 45.5014 41.6926 45.0665 41.9644 44.5772ZM34.8432 58.6021C35.115 58.0585 35.6043 57.7324 35.9304 57.8411C36.3109 57.9498 36.3653 58.3847 36.0935 58.9283C35.8217 59.4719 35.3325 59.7981 35.0063 59.7437C34.6802 59.5806 34.6258 59.0914 34.8432 58.6021ZM38.7028 44.1967C38.9746 43.7075 39.4095 43.3813 39.79 43.3813C40.1705 43.4357 40.2249 43.8162 39.9531 44.3598C39.6813 44.8491 39.2464 45.2296 38.8659 45.1752C38.4853 45.0665 38.431 44.6859 38.7028 44.1967ZM31.7447 57.7867C32.0165 57.2975 32.4514 56.9714 32.7775 57.0257C33.1581 57.1344 33.1581 57.5693 32.9406 58.1129C32.6688 58.6022 32.2339 58.9827 31.8534 58.8739C31.5273 58.7652 31.4729 58.3303 31.7447 57.7867ZM35.3325 43.9793C35.6043 43.4357 36.0935 43.0551 36.474 43.1095C36.8545 43.1639 36.9089 43.5988 36.6371 44.1424C36.3653 44.686 35.8217 45.0665 35.4956 45.0121C35.115 44.9577 35.0607 44.5229 35.3325 43.9793ZM33.2124 48.165C33.4842 47.6758 33.8647 47.3496 34.2453 47.404C34.5714 47.4583 34.6258 47.8389 34.354 48.3281C34.0822 48.8173 33.7017 49.1435 33.3211 49.0891C32.995 49.0348 32.9406 48.6543 33.2124 48.165ZM31.038 52.4051C31.3098 51.9159 31.6903 51.5897 32.0165 51.6441C32.3427 51.6984 32.397 52.1333 32.1252 52.6225C31.8534 53.1118 31.4729 53.4379 31.0924 53.3836C30.8206 53.3292 30.7662 52.8944 31.038 52.4051ZM28.5918 57.0257C28.8636 56.4821 29.3528 56.1016 29.679 56.2103C30.0052 56.319 30.1139 56.8083 29.7877 57.3519C29.5159 57.8955 29.0267 58.276 28.6462 58.1673C28.3744 58.1129 28.32 57.5693 28.5918 57.0257Z" fill="white"/>
<defs>
<radialGradient id="paint0_radial_1707_2001" cx="0" cy="0" r="1" gradientUnits="userSpaceOnUse" gradientTransform="translate(152.333 173.753) rotate(-131.277) scale(231.161 231.161)">
<stop stop-color="#83C04B"/>
<stop offset="0.29" stop-color="#83C04B"/>
<stop offset="0.44" stop-color="#66B94F"/>
<stop offset="0.685" stop-color="#009B53"/>
<stop offset="0.705" stop-color="#0069B2"/>
<stop offset="0.9" stop-color="#00A8E7"/>
<stop offset="1" stop-color="#00AEED"/>
</radialGradient>
</defs>
</svg>
