<svg width="300" height="80" viewBox="-20 0 300 80" fill="none" xmlns="http://www.w3.org/2000/svg">
<path d="M52.2951 45.8735C53.4895 44.2312 54.0494 42.141 54.0494 39.5655C54.0494 36.99 53.8254 36.6541 53.4522 35.4224C52.1085 36.6914 51.25 38.2964 51.25 40.2C51.25 42.1036 51.5859 43.7833 52.2578 45.8362" fill="#E3853B"/>
<path d="M67.1826 30.9805C67.5931 33.2573 67.7798 35.5342 67.7798 37.7737C67.7798 46.2093 66.1375 52.2187 63.6367 56.5484C64.0473 56.5858 64.4952 56.6231 64.9431 56.6231C76.7377 56.6231 79.2758 45.6494 79.2758 40.8717C79.2758 33.22 71.4749 31.1671 67.1826 30.9805Z" fill="#E3853B"/>
<path d="M55.3154 39.5643C55.3154 42.7743 54.4196 45.3124 52.7773 47.216C53.2252 48.2985 53.7851 49.4182 54.457 50.4634C56.7711 47.8132 57.9282 43.9687 57.9282 39.0044C57.9282 34.0401 57.5922 34.9733 56.9577 33.1816C56.0619 33.5922 55.2408 34.0775 54.4943 34.6C54.9795 36.0557 55.3154 37.698 55.3154 39.6016" fill="#E3853B"/>
<path d="M59.4221 38.967C59.4221 45.0137 57.7798 49.0076 55.3164 51.695C55.9509 52.4788 56.6601 53.2253 57.4066 53.8599C60.0193 50.5752 61.7363 45.6856 61.7363 38.3698C61.7363 31.054 61.4377 33.8907 60.8778 31.7632C60.0193 31.9871 59.1609 32.2484 58.3397 32.5843C59.0116 34.5626 59.4221 36.6901 59.4221 39.0043" fill="#E3853B"/>
<path d="M63.5992 38.3707C63.5992 46.2091 61.6956 51.4346 58.9336 54.9432C59.7174 55.4285 60.5386 55.8017 61.4717 56.063C64.0471 51.9572 65.6521 46.0971 65.6521 37.7362C65.6521 29.3753 65.5401 34.0036 64.9802 31.0176C64.271 31.0922 63.4872 31.1669 62.6287 31.3535C63.2633 33.6304 63.5619 36.0192 63.5619 38.3707" fill="#E3853B"/>
<path d="M40.0485 20.679C46.5803 20.679 51.9924 23.1798 55.4263 27.3229C56.1355 26.3524 56.7327 25.3073 57.2179 24.2622C54.1199 20.3804 49.3424 17.7676 42.7732 17.7676C36.204 17.7676 32.9195 18.5887 27.2461 20.7536C27.3581 21.4255 27.582 22.1347 27.9179 22.7692C31.9117 21.3135 36.428 20.679 40.0485 20.679Z" fill="#EFBD4B"/>
<path d="M58.9366 15.6767C58.4887 9.74196 55.3535 0 44.4546 0C33.5558 0 30.9804 7.95033 28.6289 13.9597C35.0488 11.9442 41.6179 11.1603 45.4251 11.1603C51.1358 11.1603 55.5401 12.9146 58.8993 15.6767" fill="#EFBD4B"/>
<path d="M30.6458 26.0525C32.624 25.6046 34.8635 25.3433 37.3642 25.3433C41.0594 25.3433 48.0391 25.9778 52.1448 30.4569C53.0033 29.897 53.7871 29.2251 54.459 28.4786C51.3237 24.5221 46.2475 22.1333 40.0889 22.1333C33.9303 22.1333 32.4747 22.6932 28.7422 23.9996C29.2647 24.7088 29.9366 25.4179 30.6831 26.0525" fill="#EFBD4B"/>
<path d="M50.9124 31.1292C47.1053 27.21 40.7227 26.6128 37.3262 26.6128C33.9296 26.6128 33.5564 26.7621 31.9141 27.098C36.0944 30.1587 42.0664 32.2863 45.9482 32.2863C49.83 32.2863 49.494 31.8384 50.9124 31.1665" fill="#EFBD4B"/>
<path d="M42.7376 15.864C49.5307 15.864 54.5323 18.4768 57.9661 22.396C58.526 20.8283 58.8246 19.4473 58.9366 18.4395C55.9506 15.4161 51.6582 13.2886 45.4623 13.2886C39.2664 13.2886 34.4515 14.2217 27.8077 16.4986C27.5838 17.3197 27.3971 18.0662 27.2852 18.6634C32.7719 16.6852 38.7812 15.864 42.7376 15.864Z" fill="#EFBD4B"/>
<path d="M14.3732 32.3237C14.3732 27.3968 17.5085 23.8135 21.8382 21.238C21.2036 20.8275 20.5318 20.4915 19.8599 20.2676C15.7915 22.9177 12.9922 26.4263 12.9922 30.98C12.9922 35.5337 14.4852 40.2367 17.1726 45.3503C17.6205 45.3503 18.0684 45.2383 18.4416 45.089C15.8662 40.5353 14.3732 35.907 14.3732 32.3237Z" fill="#C2CC51"/>
<path d="M17.8788 33.6674C17.8788 29.4123 20.6409 26.3516 24.4107 24.2987C24.0748 23.6269 23.7388 23.0297 23.2909 22.5444C19.2225 24.784 16.1992 27.9566 16.1992 32.3237C16.1992 36.6908 17.5802 40.0128 20.0064 44.2679C20.4169 43.9693 20.7902 43.6334 21.1261 43.2601C19.0732 39.8635 17.8788 36.3922 17.8788 33.6674Z" fill="#C2CC51"/>
<path d="M17.0201 19.6718C16.4602 19.6345 15.975 19.5972 15.4898 19.5972C10.5629 19.5972 0 23.6657 0 31.2054C0 38.7452 8.95796 44.232 14.7806 45.2025C12.2425 40.0889 10.8242 34.9753 10.8242 30.9441C10.8242 26.913 13.325 22.5086 17.0201 19.6718Z" fill="#C2CC51"/>
<path d="M21.2412 35.0118C21.2412 32.175 22.7342 29.8608 25.347 28.1812C25.2723 27.2481 25.1603 26.3896 24.9364 25.6431C21.6891 27.472 19.375 30.0848 19.375 33.6681C19.375 37.2513 20.3454 39.0429 22.0624 42.029C22.3983 41.5064 22.6969 40.9465 22.9582 40.3493C21.8384 38.4084 21.2412 36.5421 21.2412 35.0118Z" fill="#C2CC51"/>
<path d="M22.5078 35.0114C22.5078 36.1311 22.8811 37.5122 23.5529 38.8932C24.8593 35.422 25.2698 31.4655 25.3818 29.6738C23.5529 31.0549 22.5078 32.8838 22.5078 35.0114Z" fill="#C2CC51"/>
<path d="M41.3891 51.2473C35.5291 51.2473 30.5649 48.6719 27.019 45.3872C26.3472 45.6485 25.7126 45.9471 25.0781 46.283C29.1465 51.0607 35.1558 54.9426 42.3222 54.9426C49.4885 54.9426 48.6674 54.3453 50.9815 53.1136C50.5336 51.8445 49.8991 50.7621 49.1526 49.7916C47.0624 50.7248 44.487 51.21 41.3891 51.21" fill="#49A098"/>
<path d="M18.2503 51.0981C15.7495 53.599 14.1445 56.4357 14.1445 59.2351C14.1445 70.1715 31.1646 76.3302 37.7711 76.3302C44.3776 76.3302 49.2299 71.3659 50.8348 66.1403C48.4834 66.7375 46.1692 66.9242 44.191 66.9242C33.2922 66.9242 24.2222 59.683 18.2876 51.0981" fill="#49A098"/>
<path d="M35.1212 43.7075C32.9191 43.7075 30.6049 44.1554 28.3281 44.9393C31.6127 47.8133 36.129 49.9782 41.3918 49.9782C46.6546 49.9782 46.4307 49.5676 48.2969 48.8211C44.1538 44.5287 37.6593 43.7075 35.1212 43.7075Z" fill="#49A098"/>
<path d="M42.3242 56.4363C34.598 56.4363 28.1408 52.1438 23.8111 46.9556C23.3259 47.2168 22.8407 47.5154 22.3555 47.814C27.1704 54.346 34.486 59.8329 43.2574 59.8329C52.0287 59.8329 49.1174 59.385 51.8794 58.1532C51.8794 56.8468 51.6928 55.6524 51.4315 54.57C48.5948 55.951 45.3475 56.4363 42.3242 56.4363Z" fill="#49A098"/>
<path d="M43.2585 61.6979C33.8527 61.6979 26.0145 55.8378 20.8637 48.8579C20.4904 49.1192 20.1545 49.4178 19.7812 49.7164C25.3053 57.8907 33.89 64.7586 44.1543 64.7586C54.4187 64.7586 48.9692 64.46 51.358 63.7508C51.6193 62.519 51.7313 61.2873 51.8059 60.1302C48.8199 61.3246 45.722 61.6606 43.2212 61.6606" fill="#49A098"/>
<path d="M206.443 0.672852V14.7819C207.638 14.7819 208.459 13.8114 208.459 12.0198V0.672852H206.443ZM175.464 11.6092C175.837 12.617 176.733 13.1769 177.853 13.1769H182.929V11.6092C183.302 12.617 184.198 13.1769 185.318 13.1769H186.475C187.333 13.1769 187.781 13.0276 188.229 12.6917C188.602 12.3931 189.05 11.4973 189.274 10.7881C189.087 12.4304 192.148 13.0276 193.977 13.2142C195.582 13.3635 195.694 12.3184 195.694 11.6466C196.067 12.6544 196.963 13.2142 198.083 13.2142H203.084V0.710179H201.069V11.6466H197.821C196.44 11.6466 195.694 10.7881 195.694 9.40703C195.694 6.8689 195.134 4.51739 192.82 4.51739C189.125 4.51739 188.565 8.66052 187.333 10.7134C186.997 11.2733 186.699 11.6466 185.728 11.6466H185.094C183.713 11.6466 182.966 10.7881 182.966 9.40703V0.710179H180.951V11.6466H177.629C176.248 11.6466 175.501 10.7881 175.501 9.40703V0.710179H173.486V11.6466H163.445C160.497 11.6466 160.944 9.25772 162.4 7.6154L161.878 7.13017C159.675 8.95912 158.406 11.4226 160.273 12.7663C160.683 13.0649 161.168 13.2142 162.102 13.2142H175.501V11.6466L175.464 11.6092ZM193.678 8.10064V11.3853C191.812 11.124 190.506 10.6014 189.685 9.6683C189.909 8.95912 190.058 8.39924 190.319 7.65273C190.767 6.30901 191.364 5.03994 192.484 5.33854C193.305 5.56249 193.678 6.71959 193.678 8.06331M115.371 0.672852V14.7819C116.565 14.7819 117.386 13.8114 117.386 12.0198V0.672852H115.371ZM104.509 13.1769V11.6092C104.883 12.617 105.778 13.1769 106.935 13.1769H112.012V0.672852H109.996V11.6092H106.674C105.293 11.6092 104.547 10.7507 104.547 9.3697V0.672852H102.531V11.6092H99.2466V10.7881C99.2466 7.50342 97.1191 4.74134 94.1331 6.98087C92.0802 8.51122 90.7739 11.3853 92.6028 12.729C93.0507 13.0276 93.4986 13.1769 94.469 13.1769H104.547H104.509ZM97.0444 11.6092C96.7085 11.6092 96.0367 11.6092 95.7754 11.6092C92.8267 11.6092 93.1626 8.73517 94.8423 7.4661C96.2979 6.30901 97.0817 8.13796 97.0817 10.5268V11.6092H97.0444ZM244.813 11.3853C242.947 11.124 241.641 10.6014 240.782 9.6683C241.006 8.95912 241.155 8.39924 241.417 7.65273C241.865 6.30901 242.462 5.03994 243.619 5.33854C244.44 5.56249 244.813 6.71959 244.813 8.10064V11.3853ZM230.033 7.95133L231.003 6.53296C233.765 6.79424 233.317 9.0711 232.011 10.4895C231.75 9.44436 230.817 8.32458 230.033 7.95133ZM222.157 11.6092C221.821 11.6092 221.149 11.6092 220.888 11.6092C217.902 11.6092 218.275 8.73517 219.955 7.4661C221.411 6.30901 222.194 8.17528 222.194 10.5641V11.6466L222.157 11.6092ZM243.955 4.48006C240.26 4.48006 239.7 8.62319 238.468 10.6761C238.132 11.236 237.796 11.6092 236.863 11.6092H232.795C233.989 10.4521 235.631 7.61541 234.4 6.23436C233.28 4.9653 231.302 4.96529 229.958 4.85331L227.868 7.91401C229.809 8.80982 230.481 9.85494 231.115 11.6092H224.359V10.7881C224.359 7.4661 222.232 4.74134 219.246 6.98087C217.193 8.51122 215.887 11.3853 217.715 12.729C218.126 13.0276 218.611 13.1769 219.582 13.1769H229.622C230.593 13.1769 231.19 13.0276 231.6 12.617C231.974 12.9903 232.608 13.1769 233.579 13.1769H237.647C238.505 13.1769 238.991 13.0276 239.401 12.6917C239.774 12.3931 240.222 11.4973 240.446 10.7881C240.26 12.4304 243.32 13.0276 245.149 13.2142C246.754 13.3635 246.866 12.3184 246.866 11.6466V9.40703C246.866 6.8689 246.344 4.51739 243.992 4.51739M147.955 11.6092C145.455 11.6092 144.559 9.81761 144.484 8.02598C144.41 5.93575 146.5 5.2639 149.635 6.15971L149.859 5.5625C148.739 5.11459 147.582 4.62936 146.35 4.62936C143.551 4.62936 142.245 6.01041 142.245 8.24994C142.245 10.4895 142.805 10.9374 143.812 11.6092H139.408C138.027 11.6092 137.281 10.7507 137.281 9.3697V7.35413H135.265V11.6092H130.823C129.442 11.6092 128.696 10.7507 128.696 9.3697V4.70401H126.68V11.6092H123.06C122.052 11.6092 122.164 11.012 122.537 10.4521L122.015 10.0789C120.746 11.4599 120.97 13.1769 123.284 13.1769H128.733V11.6092C129.106 12.617 130.002 13.1769 131.122 13.1769H137.281V11.6092C137.654 12.617 138.55 13.1769 139.669 13.1769H150.307V11.6092H147.918H147.955ZM263.849 8.36191C262.729 6.38366 261.386 4.92797 258.81 4.92797L258.661 5.67448C262.692 6.38367 260.714 8.9218 264.11 11.6466H253.062V0.710179H251.047V10.4521C251.047 12.2438 251.868 13.2142 253.062 13.2142H267.955V11.6466C265.939 11.0494 264.969 10.3775 263.849 8.39924M136.833 16.9095H134.854V15.1178H136.833V16.9095ZM223.389 3.8082H221.411V2.01657H223.389V3.8082ZM220.366 3.8082H218.387V2.01657H220.366V3.8082ZM262.655 16.9095H260.676V15.1178H262.655V16.9095ZM164.154 6.08505C165.498 5.56249 166.394 5.52517 167.7 5.93575L168.745 4.62936C166.207 4.62936 165.386 3.39762 165.983 2.57646C166.543 1.75529 167.588 2.35251 168.335 2.87507L169.417 1.56867C168.111 0.672861 166.73 0.560884 165.461 2.12856C165.013 2.68844 164.752 3.84553 165.535 4.55471C164.752 4.74134 164.042 5.22657 163.707 5.59982L164.192 6.08505H164.154Z" fill="#6B635B"/>
<path d="M181.811 31.3536C181.475 31.3536 180.803 31.3536 180.542 31.3536C177.556 31.3536 177.929 28.4795 179.609 27.2104C181.065 26.0534 181.849 27.9196 181.849 30.2711V31.3536H181.811ZM197.114 27.6957L198.085 26.24C200.847 26.5013 200.399 28.7781 199.093 30.1965C198.831 29.1514 197.898 28.0316 197.114 27.6584M212.679 20.4172V31.3536H209.357C207.976 31.3536 207.229 30.4951 207.229 29.1141V20.4172H205.214V31.3536H199.839C201.033 30.1965 202.676 27.3598 201.444 25.9787C200.324 24.7096 198.346 24.747 197.04 24.5977L194.95 27.6584C196.89 28.5542 197.562 29.562 198.197 31.3163H191.441C190.06 31.3163 189.313 30.4578 189.313 29.0767V20.3799H187.298V31.3163H184.013V30.4951C184.013 27.2105 181.886 24.4484 178.9 26.6879C176.847 28.2182 175.541 31.0923 177.37 32.436C177.817 32.7346 178.265 32.8839 179.236 32.8839H181.625C181.177 35.4967 180.579 37.9229 176.996 39.6399L177.183 40.237C180.206 39.3412 183.08 38.0349 183.789 32.8839H189.313V31.2789C189.687 32.2867 190.583 32.8839 191.702 32.8839H196.704C197.674 32.8839 198.271 32.7346 198.682 32.324C199.055 32.6973 199.69 32.8839 200.66 32.8839H207.229V31.0177C207.229 31.6522 207.528 32.1374 207.939 32.436C208.349 32.7346 208.834 32.8839 209.805 32.8839H214.694V20.3799H212.679V20.4172ZM151.839 31.3536C151.503 31.3536 150.832 31.3536 150.57 31.3536C147.622 31.3536 147.958 28.4795 149.637 27.2104C151.093 26.0534 151.877 27.9196 151.877 30.2711V31.3536H151.839ZM154.042 30.5324C154.042 27.2478 151.914 24.4857 148.928 26.7252C146.875 28.2556 145.569 31.1296 147.398 32.4733C147.846 32.772 148.294 32.9213 149.264 32.9213H151.653C151.205 35.534 150.608 37.9602 147.025 39.6772L147.211 40.2744C150.234 39.3786 153.071 37.9229 153.818 32.9213C153.93 32.0628 154.042 31.2789 154.042 30.5324ZM99.2114 31.3536V30.5324C99.2114 27.2478 97.0839 24.4857 94.0979 26.7252C92.0451 28.2556 90.7387 31.1296 92.5676 32.4733C92.9782 32.772 93.4634 32.9213 94.4339 32.9213H104.959V31.3163C105.333 32.324 106.228 32.9213 107.348 32.9213H112.499V31.3163C112.872 32.324 113.768 32.9213 114.888 32.9213H121.382C122.95 32.9213 123.099 32.0254 123.099 31.3163C123.473 32.324 124.368 32.9213 125.488 32.9213H130.751V31.3163C131.124 32.324 132.02 32.9213 133.14 32.9213H138.141V20.4172H136.126V31.3536H132.878C131.497 31.3536 130.751 30.4951 130.751 29.1141V27.0985H128.735V31.3536H125.227C123.846 31.3536 123.211 30.2711 123.062 29.226C122.838 27.6957 122.166 25.3068 119.964 25.3068C117.762 25.3068 116.866 26.128 117.314 28.1809C117.613 29.5993 118.882 30.6444 119.964 31.3536H114.589C113.208 31.3536 112.462 30.4951 112.462 29.1141V27.0985H110.446V31.3536H107.012C105.631 31.3536 104.885 30.4951 104.885 29.1141V27.0985H102.869V31.3536H99.1368H99.2114ZM119.031 27.1731C121.121 25.9414 121.681 30.0845 121.681 31.3536C118.994 29.8979 117.874 27.845 119.031 27.1731ZM97.0466 31.3536C96.7107 31.3536 96.0388 31.3536 95.7775 31.3536C92.7916 31.3536 93.1648 28.4795 94.8444 27.2104C96.3001 26.0534 97.0839 27.9196 97.0839 30.2711V31.3536H97.0466ZM98.2783 23.5526H96.3001V21.7609H98.2783V23.5526ZM112.536 25.3815H110.558V23.5899H112.536V25.3815ZM95.255 23.5526H93.2768V21.7609H95.255V23.5526ZM122.278 23.5526H120.3V21.7609H122.278V23.5526ZM119.255 23.5526H117.277V21.7609H119.255V23.5526ZM132.319 25.3815H130.34V23.5899H132.319V25.3815ZM129.295 25.3815H127.317V23.5899H129.295V25.3815ZM106.452 36.6911H104.474V34.8995H106.452V36.6911ZM103.429 36.6911H101.451V34.8995H103.429V36.6911ZM171.323 31.1296V27.845C171.323 26.5013 170.95 25.3069 170.129 25.0829C168.971 24.7843 168.412 26.0534 167.964 27.3971C167.74 28.0689 167.441 29.0394 167.18 29.7859C168.449 29.9725 169.979 30.5697 171.323 31.1296ZM170.464 24.2244C172.779 24.2244 173.338 26.5759 173.338 29.1141V31.3536C173.338 32.0254 173.115 33.5558 171.622 32.9586C169.83 32.2121 167.329 30.8684 166.209 31.5775C165.463 32.0628 165.575 32.8093 165.575 34.4143V38.2215C165.575 40.0131 164.754 40.9836 163.559 40.9836V33.2572C163.559 31.4282 164.231 30.5697 165.052 30.0099C165.09 30.0099 165.127 29.9725 165.164 29.9352C166.247 27.7703 167.031 24.1871 170.464 24.1871M141.799 20.4172V34.5262C142.993 34.5262 143.815 33.5185 143.815 31.7268V20.3799H141.799V20.4172Z" fill="#6B635B"/>
<path d="M100.329 46.9916H102.009V48.5219H100.329V46.9916ZM100.404 50.3136H101.971V57.6667H100.404V50.3136ZM104.435 50.3136H106.002V52.0679C106.264 51.5453 106.973 50.1643 108.578 50.1643C110.183 50.1643 110.444 51.2467 110.444 52.2918V57.6667H108.876V53.0757C108.876 52.1425 108.727 51.3213 107.943 51.3213C106.413 51.3213 105.965 53.7475 105.965 54.6433V57.6667H104.397V50.3136H104.435ZM118.618 57.4427C118.618 59.4956 117.946 61.138 114.998 61.138C112.049 61.138 113.43 60.9887 112.87 60.8394V59.309C113.355 59.6076 114.214 60.2048 115.222 60.2048C116.864 60.2048 117.051 59.0477 117.051 57.4427V56.6216C116.827 56.9948 116.416 57.6294 115.147 57.6294C113.206 57.6294 112.385 56.0244 112.385 53.8595C112.385 51.6946 113.019 50.0896 115.147 50.0896C117.275 50.0896 116.864 50.9854 117.051 51.4707V50.2389H118.618V57.4054V57.4427ZM115.52 56.7709C116.864 56.7709 117.013 55.2032 117.013 54.0088C117.013 52.8144 116.827 51.1347 115.52 51.1347C114.214 51.1347 114.027 52.7397 114.027 53.8968C114.027 55.0539 114.289 56.7709 115.52 56.7709ZM127.949 46.9916H129.704L133.287 57.6667H131.533L130.562 54.494H126.867L125.897 57.6667H124.404L127.949 46.9916ZM127.203 53.4862H130.226L128.733 48.5219L127.203 53.4862ZM136.086 51.3213C136.422 50.8734 136.907 50.1269 138.139 50.1269C140.117 50.1269 140.901 51.8066 140.901 54.0088C140.901 56.211 139.557 57.8533 137.617 57.8533C134.743 57.8533 134.481 55.9124 134.481 54.0088V46.9916H136.049V51.3213H136.086ZM137.654 57.1815C138.923 57.1815 139.222 55.5018 139.222 54.0088C139.222 52.5158 138.923 51.0227 137.654 51.0227C136.385 51.0227 136.124 52.5904 136.124 54.0088C136.124 55.4272 136.347 57.1815 137.654 57.1815ZM146.985 56.4349C146.761 56.9202 146.276 57.816 145.082 57.816C142.954 57.816 142.319 56.0617 142.319 53.9715C142.319 51.8812 143.141 50.1269 145.082 50.1269C147.022 50.1269 146.798 50.9108 146.985 51.3213V46.9916H148.553V57.6667H146.985V56.4723V56.4349ZM145.455 56.8455C146.724 56.8455 146.91 55.2032 146.91 54.0088C146.91 52.8144 146.798 51.0601 145.455 51.0601C144.111 51.0601 143.962 52.7397 143.962 54.0088C143.962 55.2779 144.186 56.8455 145.455 56.8455ZM155.383 55.9124C155.122 56.4723 154.45 57.8533 152.808 57.8533C151.165 57.8533 150.942 56.7709 150.942 55.6884V50.3136H152.509V54.9046C152.509 55.8377 152.658 56.6589 153.442 56.6589C154.973 56.6589 155.42 54.2327 155.42 53.3369V50.2762H156.988V57.6294H155.42V55.8751L155.383 55.9124ZM159.452 46.9916H161.019V57.6667H159.452V46.9916ZM163.557 46.9916H165.125V57.6667H163.557V46.9916ZM171.246 56.6216C171.022 57.0695 170.35 57.816 169.193 57.816C168.036 57.816 167.178 56.9948 167.178 55.987C167.178 53.7102 170.313 53.5982 171.284 53.5609V52.889C171.284 52.1052 171.284 50.7615 170.238 50.7615C169.193 50.7615 169.119 51.508 169.044 52.3665H167.402C167.476 51.284 167.924 50.0896 170.238 50.0896C172.553 50.0896 172.814 51.4333 172.814 52.889V57.6294H171.246V56.6216ZM171.246 54.1954C170.612 54.2327 168.82 54.382 168.82 55.7258C168.82 57.0695 169.193 56.8082 169.716 56.8082C170.238 56.8082 171.246 56.2857 171.246 55.0166V54.1581V54.1954ZM175.203 46.9916H176.77V52.0305C177.032 51.508 177.741 50.1269 179.346 50.1269C180.951 50.1269 181.212 51.2094 181.212 52.2545V57.6294H179.644V53.0383C179.644 52.1052 179.495 51.284 178.711 51.284C177.181 51.284 176.733 53.6729 176.733 54.606V57.6667H175.165V46.9916H175.203ZM195.209 53.8595C195.209 55.8004 194.873 57.816 191.588 57.816C188.304 57.816 187.968 55.8004 187.968 53.8595V46.9916H189.685V53.8595C189.685 55.5765 189.797 56.8829 191.588 56.8829C193.38 56.8829 193.492 55.5391 193.492 53.8595V46.9916H195.209V53.8595ZM197.598 50.3136H199.165V52.0679C199.389 51.5453 200.136 50.1643 201.741 50.1643C203.346 50.1643 203.607 51.2467 203.607 52.2918V57.6667H202.039V53.0757C202.039 52.1425 201.89 51.3213 201.106 51.3213C199.576 51.3213 199.128 53.7475 199.128 54.6433V57.6667H197.56V50.3136H197.598ZM206.033 46.9916H207.713V48.5219H206.033V46.9916ZM206.108 50.3136H207.675V57.6667H206.108V50.3136ZM209.056 50.3136H210.699L212.602 55.5765L214.319 50.3136H215.775L213.162 57.6667H211.818L209.019 50.3136H209.056ZM222.419 57.4054C221.784 57.6667 221.187 57.816 220.254 57.816C218.201 57.816 216.596 56.6216 216.596 53.6355C216.596 50.6495 217.417 50.1269 219.731 50.1269C222.045 50.1269 222.568 51.7319 222.568 53.1503H218.163C218.163 54.606 218.835 57.0321 221.037 57.0321C223.24 57.0321 222.008 56.9202 222.456 56.6962V57.4054H222.419ZM221.037 52.4411C221.037 51.8812 220.851 50.7988 219.694 50.7988C218.537 50.7988 218.275 52.0305 218.238 52.4411H221.075H221.037ZM224.397 50.3136H225.964V52.1798C226.45 51.2094 227.009 50.2389 228.353 50.1269V51.7319C226.86 51.7692 225.927 52.2918 225.927 54.2701V57.6294H224.359V50.2762L224.397 50.3136ZM233.653 51.7319C233.131 51.396 232.534 51.0227 231.787 51.0227C231.041 51.0227 230.742 51.2467 230.742 51.8066C230.742 53.1503 234.101 53.2623 234.101 55.6138C234.101 57.9653 232.869 57.8533 231.302 57.8533C229.734 57.8533 229.697 57.6294 229.324 57.5174V56.0617C229.771 56.3603 230.518 56.8455 231.376 56.8455C232.235 56.8455 232.645 56.3976 232.645 55.9124C232.645 54.606 229.324 54.3447 229.324 52.2545C229.324 50.1643 230.033 50.1269 231.899 50.1269C233.765 50.1269 233.392 50.3509 233.616 50.4255V51.7319H233.653ZM235.743 46.9916H237.423V48.5219H235.743V46.9916ZM235.818 50.3136H237.386V57.6667H235.818V50.3136ZM243.731 57.704C243.432 57.7787 242.984 57.816 242.649 57.816C241.193 57.816 240.334 57.3681 240.334 55.9497V51.0974H239.14V50.3136H240.334V48.5966L241.902 47.6635V50.3509H243.918V51.1347H241.902V55.3898C241.902 56.4723 242.014 56.9948 243.022 56.9948C244.03 56.9948 243.544 56.9948 243.768 56.8829V57.7787L243.731 57.704ZM247.128 57.7413L244.291 50.3136H245.933L247.874 55.5765L249.591 50.3136H251.047L247.24 60.9887H245.97L247.053 57.7787L247.128 57.7413ZM254.704 53.9715C254.704 51.4706 255.787 50.1269 257.952 50.1269C260.117 50.1269 261.199 51.4706 261.199 53.9715C261.199 56.4723 260.117 57.816 257.952 57.816C255.787 57.816 254.704 56.4723 254.704 53.9715ZM257.952 57.1815C259.37 57.1815 259.519 55.3152 259.519 53.9715C259.519 52.6277 259.37 50.7615 257.952 50.7615C256.533 50.7615 256.421 52.6277 256.421 53.9715C256.421 55.3152 256.608 57.1815 257.952 57.1815ZM263.625 51.0974H262.356V50.3136H263.625V49.6417C263.625 48.2607 263.961 46.8423 266.424 46.8423C268.888 46.8423 267.619 46.9543 267.992 47.0289V48.1114C267.656 47.9621 267.246 47.7754 266.611 47.7754C265.342 47.7754 265.193 48.6712 265.193 49.4924V50.3882H267.283V51.172H265.193V57.7413H263.625V51.172V51.0974ZM91.707 46.9916H93.424V51.6946L96.9325 46.9916H98.6494L94.8796 51.8439L99.06 57.6294H97.0445L93.424 52.4411V57.6294H91.707V46.9543V46.9916Z" fill="#6B635B"/>
<path d="M105.18 75.807C104.545 76.031 103.873 76.1803 103.201 76.1803C100.887 76.1803 99.5062 74.7619 99.5062 72.0372C99.5062 69.3124 100.514 68.4912 102.641 68.4912C104.769 68.4912 105.292 69.5364 105.292 71.0667H103.649C103.649 70.1709 103.537 69.1631 102.567 69.1631C101.596 69.1631 101.223 70.2082 101.223 71.5519C101.223 72.8957 101.97 75.3965 103.873 75.3965C105.777 75.3965 104.769 75.2845 105.18 75.1352V75.8444V75.807ZM106.785 65.3559H108.464V66.8863H106.785V65.3559ZM106.859 68.6779H108.427V76.031H106.859V68.6779ZM116.19 75.7697C115.519 76.031 114.959 76.1803 114.026 76.1803C111.973 76.1803 110.368 74.9859 110.368 71.9999C110.368 69.0138 111.189 68.4912 113.503 68.4912C115.817 68.4912 116.34 70.0962 116.34 71.5146H111.935C111.935 72.9703 112.57 75.3965 114.809 75.3965C117.049 75.3965 115.742 75.2845 116.228 75.0605V75.7697H116.19ZM114.809 70.8054C114.809 70.2455 114.585 69.1631 113.466 69.1631C112.346 69.1631 112.01 70.3948 112.01 70.8054H114.847H114.809ZM118.169 68.6779H119.736V70.4322C119.96 69.9096 120.707 68.5286 122.312 68.5286C123.917 68.5286 124.178 69.611 124.178 70.6935V76.0683H122.61V71.4773C122.61 70.5441 122.461 69.723 121.677 69.723C120.147 69.723 119.699 72.1491 119.699 73.045V76.1057H118.131V68.7525L118.169 68.6779ZM131.717 75.807C131.083 76.031 130.411 76.1803 129.739 76.1803C127.425 76.1803 126.044 74.7619 126.044 72.0372C126.044 69.3124 127.052 68.4912 129.179 68.4912C131.307 68.4912 131.829 69.5364 131.829 71.0667H130.187C130.187 70.1709 130.075 69.1631 129.105 69.1631C128.134 69.1631 127.724 70.2082 127.724 71.5519C127.724 72.8957 128.47 75.3965 130.374 75.3965C132.277 75.3965 131.27 75.2845 131.68 75.1352V75.8444L131.717 75.807ZM138.585 75.7697C137.951 76.031 137.354 76.1803 136.42 76.1803C134.405 76.1803 132.763 74.9859 132.763 71.9999C132.763 69.0138 133.584 68.4912 135.898 68.4912C138.212 68.4912 138.735 70.0962 138.735 71.5146H134.33C134.33 72.9703 135.002 75.3965 137.204 75.3965C139.406 75.3965 138.137 75.2845 138.623 75.0605V75.7697H138.585ZM137.167 70.8054C137.167 70.2455 136.98 69.1631 135.823 69.1631C134.666 69.1631 134.368 70.3948 134.368 70.8054H137.204H137.167ZM148.588 75.0232C148.364 75.4711 147.692 76.2176 146.535 76.2176C145.378 76.2176 144.52 75.3965 144.52 74.3887C144.52 72.1118 147.655 71.9998 148.626 71.9625V71.328C148.626 70.5068 148.626 69.2004 147.581 69.2004C146.535 69.2004 146.461 69.9469 146.386 70.8054H144.744C144.818 69.6857 145.266 68.5286 147.581 68.5286C149.895 68.5286 150.193 69.8723 150.193 71.328V76.0683H148.626V75.0605L148.588 75.0232ZM148.588 72.5597C147.954 72.5971 146.162 72.7464 146.162 74.0901C146.162 75.4338 146.573 75.1725 147.058 75.1725C147.543 75.1725 148.551 74.6499 148.551 73.3809V72.5224L148.588 72.5597ZM152.507 68.6779H154.075V70.4322H154.112C154.336 69.9096 155.083 68.5286 156.688 68.5286C158.293 68.5286 158.554 69.611 158.554 70.6935V76.0683H156.986V71.4773C156.986 70.5441 156.837 69.723 156.053 69.723C154.523 69.723 154.075 72.1491 154.075 73.045V76.1057H152.507V68.7525V68.6779ZM165.123 74.8366C164.899 75.3218 164.414 76.2176 163.22 76.2176C161.092 76.2176 160.458 74.5007 160.458 72.3731C160.458 70.2456 161.279 68.5286 163.22 68.5286C165.16 68.5286 164.937 69.3124 165.123 69.723V65.3932H166.691V76.0683H165.123V74.8739V74.8366ZM163.593 75.2098C164.862 75.2098 165.049 73.5675 165.049 72.3358C165.049 71.104 164.937 69.3871 163.593 69.3871C162.249 69.3871 162.1 71.0667 162.1 72.3358C162.1 73.6048 162.324 75.2098 163.593 75.2098ZM174.94 66.3637H172.364V65.3559H179.232V66.3637H176.657V76.031H174.94V66.3637ZM185.167 75.7697C184.532 76.031 183.935 76.1803 183.002 76.1803C180.949 76.1803 179.344 74.9859 179.344 71.9999C179.344 69.0138 180.165 68.4912 182.479 68.4912C184.793 68.4912 185.316 70.0962 185.316 71.5146H180.912C180.912 72.9703 181.546 75.3965 183.748 75.3965C185.95 75.3965 184.681 75.2845 185.167 75.0605V75.7697ZM183.786 70.8054C183.786 70.2455 183.599 69.1631 182.442 69.1631C181.285 69.1631 180.986 70.3948 180.986 70.8054H183.823H183.786ZM192.258 75.807C191.624 76.031 190.952 76.1803 190.28 76.1803C187.966 76.1803 186.585 74.7619 186.585 72.0372C186.585 69.3124 187.593 68.4912 189.72 68.4912C191.848 68.4912 192.37 69.5364 192.37 71.0667H190.728C190.728 70.1709 190.653 69.1631 189.646 69.1631C188.638 69.1631 188.265 70.2082 188.265 71.5519C188.265 72.8957 189.011 75.3965 190.915 75.3965C192.818 75.3965 191.81 75.2845 192.221 75.1352V75.8444L192.258 75.807ZM193.826 65.3559H195.394V70.3948C195.655 69.8723 196.364 68.4912 197.969 68.4912C199.574 68.4912 199.835 69.5737 199.835 70.6561V76.031H198.268V71.44C198.268 70.5068 198.118 69.6857 197.334 69.6857C195.767 69.6857 195.356 72.1118 195.356 73.0076V76.0683H193.789V65.3932L193.826 65.3559ZM202.261 68.6779H203.829V70.4322C204.09 69.9096 204.799 68.5286 206.404 68.5286C208.009 68.5286 208.271 69.611 208.271 70.6935V76.0683H206.703V71.4773C206.703 70.5441 206.554 69.723 205.77 69.723C204.202 69.723 203.792 72.1491 203.792 73.045V76.1057H202.224V68.7525L202.261 68.6779ZM210.174 72.3358C210.174 69.835 211.257 68.4912 213.421 68.4912C215.586 68.4912 216.706 69.8723 216.706 72.3358C216.706 74.7992 215.624 76.1803 213.421 76.1803C211.219 76.1803 210.174 74.8366 210.174 72.3358ZM213.384 75.5458C214.765 75.5458 214.952 73.6795 214.952 72.3358C214.952 70.992 214.802 69.1258 213.384 69.1258C211.966 69.1258 211.854 70.992 211.854 72.3358C211.854 73.6795 212.04 75.5458 213.384 75.5458ZM218.61 65.3559H220.177V76.031H218.61V65.3559ZM222.155 72.3358C222.155 69.835 223.238 68.4912 225.403 68.4912C227.568 68.4912 228.65 69.8723 228.65 72.3358C228.65 74.7992 227.568 76.1803 225.403 76.1803C223.238 76.1803 222.155 74.8366 222.155 72.3358ZM225.403 75.5458C226.784 75.5458 226.97 73.6795 226.97 72.3358C226.97 70.992 226.784 69.1258 225.403 69.1258C224.022 69.1258 223.835 70.992 223.835 72.3358C223.835 73.6795 224.022 75.5458 225.403 75.5458ZM236.264 75.807C236.264 77.8599 235.592 79.5023 232.644 79.5023C229.695 79.5023 231.076 79.353 230.516 79.2037V77.6733C231.001 77.9719 231.86 78.5691 232.868 78.5691C234.51 78.5691 234.697 77.412 234.697 75.807V75.0232C234.473 75.3591 234.062 76.031 232.756 76.031C230.815 76.031 229.994 74.426 229.994 72.2611C229.994 70.0962 230.628 68.4912 232.756 68.4912C234.883 68.4912 234.473 69.3871 234.697 69.8723V68.6406H236.264V75.7697V75.807ZM233.166 75.1352C234.51 75.1352 234.659 73.5675 234.659 72.3358C234.659 71.104 234.473 69.4617 233.166 69.4617C231.86 69.4617 231.673 71.0667 231.673 72.2238C231.673 73.3809 231.935 75.0979 233.166 75.0979M240.37 76.1057L237.533 68.6779H239.176L241.116 73.9408L242.833 68.6779H244.289L240.519 79.353H239.288L240.37 76.1057ZM97.6399 66.9236C97.2667 66.6996 96.1469 66.2144 94.9899 66.2144C93.8328 66.2144 93.3849 66.7369 93.3849 67.5581C93.3849 69.7976 98.4238 69.7603 98.4238 73.0823C98.4238 76.4042 96.7068 76.2176 94.542 76.2176C92.3771 76.2176 92.1532 75.9563 91.8173 75.807V74.1647C92.3025 74.426 93.5342 75.0979 94.8033 75.0979C96.0723 75.0979 96.7068 74.6499 96.7068 73.5675C96.7068 71.104 91.668 71.2906 91.668 67.9687C91.668 64.6467 92.937 65.2439 95.1392 65.2439C97.3413 65.2439 97.192 65.4306 97.6026 65.5052V66.9609L97.6399 66.9236Z" fill="#6B635B"/>
</svg>
