<svg width="160" height="434" viewBox="0 0 160 434" fill="none" xmlns="http://www.w3.org/2000/svg">
<path d="M52.9922 232.066C52.9922 233.516 54.1524 234.67 55.5966 234.67C57.0407 234.67 58.2009 233.51 58.2009 232.066C58.2009 230.622 57.0407 229.462 55.5966 229.462C54.1463 229.462 52.9922 230.622 52.9922 232.066Z" fill="#8E9092"/>
<path d="M31.572 246.538C31.572 245.088 30.4118 243.934 28.9676 243.934C27.5235 243.934 26.3633 245.094 26.3633 246.538C26.3633 247.982 27.5235 249.143 28.9676 249.143C30.4118 249.143 31.572 247.982 31.572 246.538Z" fill="#8E9092"/>
<path d="M52.9922 238.725C52.9922 240.175 54.1524 241.33 55.5966 241.33C57.0407 241.33 58.2009 240.169 58.2009 238.725C58.2009 237.281 57.0407 236.121 55.5966 236.121C54.1524 236.121 52.9922 237.281 52.9922 238.725Z" fill="#8E9092"/>
<path d="M46.3343 234.09V243.933H33.3064L34.4666 248.568H46.3343V281.573H28.9618L26.9375 284.467C29.5419 286.492 30.412 300.68 41.4156 300.68C48.3646 300.68 50.969 294.891 50.969 289.966L46.9144 287.072C46.9144 291.706 45.4642 296.045 41.1256 296.045C36.787 296.045 34.4666 288.516 33.8865 286.492H45.4702C48.9447 286.492 50.969 285.041 50.969 281.567V250.296C50.969 248.272 50.6789 246.822 49.2347 246.242C49.2347 246.242 50.969 245.372 50.969 242.187V236.108C50.969 234.374 50.0988 230.029 45.7602 230.029H33.3125L34.4726 234.664H46.3403V234.084L46.3343 234.09Z" fill="#8E9092"/>
<path d="M24.6228 283.887C24.6228 282.437 23.4626 281.283 22.0184 281.283C20.5742 281.283 19.4141 282.443 19.4141 283.887C19.4141 285.332 20.5742 286.492 22.0184 286.492C23.4626 286.492 24.6228 285.332 24.6228 283.887Z" fill="#8E9092"/>
<path d="M24.6228 289.676C24.6228 288.226 23.4626 287.072 22.0184 287.072C20.5742 287.072 19.4141 288.232 19.4141 289.676C19.4141 291.121 20.5742 292.281 22.0184 292.281C23.4626 292.281 24.6228 291.121 24.6228 289.676Z" fill="#8E9092"/>
<path d="M42.2847 185.453C45.7592 185.453 47.2094 186.903 47.2094 190.088C47.2094 192.692 45.4752 196.457 40.5505 196.457C36.4959 196.457 34.1816 193.852 34.1816 188.638C34.1816 187.187 34.4716 185.163 34.4716 185.163H42.2907V185.453H42.2847ZM30.127 190.378C30.417 193.852 32.1512 201.382 39.9704 201.382C44.025 201.382 46.3393 199.357 46.3393 199.357V208.041H40.2604C30.9971 208.041 29.5469 214.699 29.5469 218.754V221.068L34.1816 221.939V218.754C34.1816 213.545 37.076 212.675 41.4206 212.675H46.3453V225.703L50.98 226.863V213.835C50.98 210.941 49.5298 209.781 49.5298 209.781C49.5298 209.781 50.98 209.201 50.98 207.176V197.913C50.98 195.309 51.2701 194.149 51.8502 192.704C52.1402 191.544 52.4303 190.39 52.4303 188.65C52.4303 185.755 51.2701 181.411 44.9012 181.411H36.2179C34.4837 181.411 34.1936 180.541 34.1936 179.676L31.0092 179.386C31.0092 178.806 29.849 186.335 30.1391 190.39" fill="#8E9092"/>
<path d="M60.8125 185.454H90.3428V180.819H59.6523L60.8125 185.454Z" fill="#8E9092"/>
<path d="M72.1012 267.385H69.2068V271.73C69.2068 271.73 66.3124 273.754 65.4423 267.965L62.2578 268.256C62.2578 268.256 62.5479 275.205 67.1825 275.205C68.3427 275.205 68.9168 274.624 68.9168 274.624V276.075L71.8112 277.525V267.391H72.1012V267.385Z" fill="#8E9092"/>
<path d="M81.6595 210.349C85.134 210.349 86.5843 211.799 86.5843 214.984C86.5843 217.588 84.85 221.353 79.9253 221.353C75.8707 221.353 73.5564 218.748 73.5564 213.534C73.5564 212.083 73.8464 210.059 73.8464 210.059H81.6656V210.349H81.6595ZM90.3428 258.122C90.3428 255.518 89.7627 253.487 88.3185 252.913C88.3185 252.913 90.3428 252.043 90.3428 248.569V243.934C90.3428 239.009 88.6085 238.145 88.6085 238.145C88.6085 238.145 90.3428 237.275 90.3428 234.671V222.223C90.3428 219.619 90.6328 218.458 91.2129 217.014C91.5029 215.854 91.793 214.7 91.793 212.96C91.793 210.935 91.2129 208.325 88.6085 206.881C89.4787 206.301 90.3428 204.856 90.3428 203.116V197.327C90.3428 192.693 89.4726 191.538 84.844 191.538H60.8125L61.9727 196.173H85.7141V203.992C85.7141 205.152 84.844 205.727 83.9799 206.017H75.5867C73.8525 206.017 73.5624 205.146 73.5624 204.282L70.378 203.992C70.378 203.992 69.2178 211.521 69.5078 215.286C69.7979 218.76 71.5321 226.29 79.3513 226.29C83.4058 226.29 85.7202 224.265 85.7202 224.265V238.163H60.8246L61.9848 242.508H85.7262V252.641H60.8306L61.9908 256.986H85.7323V283.622C85.7323 290.281 80.2335 290.571 74.7286 286.516L70.9641 289.121C74.1486 291.435 77.9131 293.465 81.3876 293.465C88.3366 293.465 90.0708 288.257 90.0708 284.202L90.3609 258.146L90.3428 258.122Z" fill="#8E9092"/>
<path d="M90.3428 374.219V369.584H59.6523L60.8125 374.219H90.3428Z" fill="#8E9092"/>
<path d="M85.7092 384.642V395.066H61.0977L61.9678 399.7H85.4192V414.753H68.0467L66.0224 417.647C68.6267 419.671 69.4969 433.859 80.5005 433.859C87.4495 433.859 90.0539 428.071 90.0539 423.146L85.9993 420.251C85.9993 424.886 84.549 429.225 80.2104 429.225C75.8719 429.225 73.5515 421.696 72.9714 419.671H84.5551C88.0296 419.671 90.0539 418.221 90.0539 414.747V399.978C90.0539 397.664 89.1837 396.504 87.7395 395.924C87.7395 395.924 90.0539 395.054 90.0539 392.159V386.37C90.0539 381.446 88.8937 380.292 84.5551 380.292H61.1037L62.2639 384.926H85.7153V384.636L85.7092 384.642Z" fill="#8E9092"/>
<path d="M92.082 331.371C92.082 332.821 93.2422 333.975 94.6864 333.975C96.1306 333.975 97.2908 332.815 97.2908 331.371C97.2908 329.927 96.1306 328.766 94.6864 328.766C92.9522 328.766 92.082 329.927 92.082 331.371Z" fill="#8E9092"/>
<path d="M80.7849 316.892C77.0203 316.892 74.1259 313.998 74.1259 309.363V307.629L68.9172 305.895C68.6271 307.919 68.6271 312.844 70.6514 316.608C72.3856 319.793 75.5761 321.533 79.9147 321.533C83.0992 321.533 85.1235 320.083 85.1235 320.083V328.766H72.3856L73.5458 333.401H85.4135V341.51H79.3346C69.7813 341.51 68.6211 349.039 68.6211 352.223V354.538L73.2558 355.408V352.223C73.2558 347.015 76.1502 346.144 80.4948 346.144H85.1295V358.882L89.7642 360.042V347.015C89.7642 345.28 89.4741 344.12 88.604 343.25L88.314 342.96L88.894 342.67C89.4741 342.38 89.7642 341.8 89.7642 340.356V335.431C89.7642 333.407 89.1841 332.246 87.7399 331.376C87.7399 331.376 89.7642 330.796 89.7642 327.032V304.16H85.1295V315.454C85.7096 315.454 84.2594 316.904 80.7849 316.904" fill="#8E9092"/>
<path d="M111.191 313.129V315.443L115.826 316.313V313.709C115.826 308.5 118.721 307.63 123.065 307.63H127.41V318.634L132.044 319.794V303.002H121.911C112.648 303.002 111.197 309.37 111.197 313.135" fill="#8E9092"/>
<path d="M133.773 327.316C133.773 328.766 134.934 329.92 136.378 329.92C137.822 329.92 138.982 328.76 138.982 327.316C138.982 325.872 137.822 324.712 136.378 324.712C134.928 324.712 133.773 325.872 133.773 327.316Z" fill="#8E9092"/>
<path d="M133.773 333.685C133.773 335.135 134.934 336.289 136.378 336.289C137.822 336.289 138.982 335.129 138.982 333.685C138.982 332.241 137.822 331.08 136.378 331.08C134.928 331.37 133.773 332.531 133.773 333.685Z" fill="#8E9092"/>
<path d="M127.401 329.056V362.351H110.028L108.004 365.246C110.608 367.27 111.478 381.458 122.482 381.458C129.431 381.458 132.035 375.669 132.035 370.744L127.981 367.85C127.981 372.485 126.531 376.823 122.192 376.823C117.853 376.823 115.533 369.294 114.953 367.27H126.537C130.011 367.27 132.035 365.82 132.035 362.345V331.365C132.035 329.63 131.165 325.286 126.827 325.286H114.379L115.539 329.921H127.407V329.05L127.401 329.056Z" fill="#8E9092"/>
<path d="M112.056 250.013C112.056 248.563 110.896 247.408 109.452 247.408C108.008 247.408 106.848 248.569 106.848 250.013C106.848 251.457 108.008 252.617 109.452 252.617C110.902 252.617 112.056 251.457 112.056 250.013Z" fill="#8E9092"/>
<path d="M112.056 243.643C112.056 242.192 110.896 241.038 109.452 241.038C108.008 241.038 106.848 242.199 106.848 243.643C106.848 245.087 108.008 246.247 109.452 246.247C110.896 246.247 112.056 245.087 112.056 243.643Z" fill="#8E9092"/>
<path d="M102.787 185.454H132.033V180.819H101.633L102.787 185.454Z" fill="#8E9092"/>
<path d="M127.401 195.876V202.825H109.159L110.319 207.46H127.401V212.669L132.036 213.829V197.617C132.036 192.692 130.876 191.538 126.537 191.538H103.086L104.246 196.173H127.407V195.883L127.401 195.876Z" fill="#8E9092"/>
<path d="M105.404 364.377C105.404 362.926 104.244 361.772 102.8 361.772C101.355 361.772 100.195 362.932 100.195 364.377C100.195 365.821 101.355 366.981 102.8 366.981C104.534 366.981 105.404 365.821 105.404 364.377Z" fill="#8E9092"/>
<path d="M105.404 370.454C105.404 369.004 104.244 367.85 102.8 367.85C101.355 367.85 100.195 369.01 100.195 370.454C100.195 371.898 101.355 373.059 102.8 373.059C104.534 372.769 105.404 371.608 105.404 370.454Z" fill="#8E9092"/>
<path d="M107.424 229.172C107.424 227.722 106.263 226.568 104.819 226.568C103.375 226.568 102.215 227.728 102.215 229.172C102.215 230.617 103.375 231.777 104.819 231.777C106.263 231.777 107.424 230.617 107.424 229.172Z" fill="#8E9092"/>
<path d="M107.424 223.087C107.424 221.637 106.263 220.483 104.819 220.483C103.375 220.483 102.215 221.643 102.215 223.087C102.215 224.531 103.375 225.691 104.819 225.691C106.269 225.401 107.424 224.241 107.424 223.087Z" fill="#8E9092"/>
<path d="M114.952 222.513H127.4V225.697C127.4 229.462 123.635 232.066 120.741 232.066C116.396 232.066 114.372 228.882 114.372 225.407C114.372 223.093 114.952 222.513 114.952 222.513ZM127.4 261.887V280.993H124.505C124.505 280.993 115.532 274.044 115.532 267.095C115.532 262.461 119.297 261.887 122.771 261.887H127.406H127.4ZM132.034 223.673C132.034 222.223 133.195 221.359 133.195 221.359L132.034 217.884H110.897C110.607 218.755 109.447 221.649 109.447 225.413C109.447 232.072 112.922 236.997 119.871 236.997C123.345 236.997 125.659 235.263 127.11 233.813V244.816H114.082L115.242 249.451H127.4V257.56H121.321C112.057 257.56 110.607 263.639 110.607 267.114C110.607 275.223 119 281.302 119 281.302H113.792L115.816 285.356H127.4V292.305H103.078L104.812 296.94H126.523C130.868 296.94 132.022 295.78 132.022 290.861V250.907C132.022 248.883 131.442 247.723 129.998 246.853C129.998 246.853 132.022 245.983 132.022 242.508V223.691L132.034 223.673Z" fill="#8E9092"/>
<path d="M131.058 159.066H159.09V0.0121765L159.078 7.62939e-05H131.07V159.066H131.058ZM120.623 140.05C120.695 140.962 121.644 140.847 121.644 140.008L121.644 7.62939e-05H109.323C109.323 7.62939e-05 120.611 139.748 120.617 140.044M111.758 138.908C111.933 139.796 112.864 139.657 112.779 138.859C112.767 138.606 99.4372 7.62939e-05 99.4372 7.62939e-05H85.4607C85.4607 7.62939e-05 111.667 138.406 111.758 138.908ZM103.25 140.261C103.504 141.131 104.441 140.793 104.283 140.044C104.193 139.603 75.7804 7.62939e-05 75.7804 7.62939e-05H62.396C62.396 7.62939e-05 103.093 139.772 103.25 140.261ZM95.1772 144.521C95.5035 145.391 96.7422 145.005 96.4703 144.092C96.3193 143.536 52.5043 7.62939e-05 52.5043 7.62939e-05H38.5942C38.5942 7.62939e-05 94.9838 144.032 95.1772 144.521ZM0.00603007 159.066H92.7481L27.8685 7.62939e-05H0L0 159.066H0.00603007Z" fill="url(#paint0_linear_1707_3184)"/>
<defs>
<linearGradient id="paint0_linear_1707_3184" x1="159.084" y1="159.072" x2="0.0120048" y2="0.000160286" gradientUnits="userSpaceOnUse">
<stop stop-color="#A0C560"/>
<stop offset="0.55" stop-color="#5B998E"/>
<stop offset="1" stop-color="#367BBB"/>
</linearGradient>
</defs>
</svg>
